{
.appVersion = "1269";
DisplayStrings = (
"Pasaporte/Er-cy a12l3/a-cy/ze-cy/hardsign-cy/ia-cy/er-cy/ie-cy/yeru-cy/iishort-cy  /che-cy/te-cy/ie-cy/tse-cy  /ereversed-cy/ge-cy/o-cy/ii-cy/es-cy/te-cy/ii-cy/che-cy/o-cy  /softsign-cy/io-cy/te-cy  /ia-cy/te-cy/softsign-cy/iu-cy  /zhe-cy/ie-cy/er-cy/de-cy/ia-cy/em-cy/ii-cy  /sha-cy/u-cy/es-cy/te-cy/er-cy/o-cy/ge-cy/o-cy  /ef-cy/ie-cy/ha-cy/te-cy/o-cy/ve-cy/a-cy/el-cy/softsign-cy/shcha-cy/ii-cy/ka-cy/a-cy .\012/En-cy/a-cy/sha-cy  /a-cy/ka-cy  /ve-cy/che-cy e/ie-cy/er-cy/a-cy  /zhe-cy/ie-cy  /ve-cy/yeru-cy/el-cy/a-cy/te-cy/ii-cy/el-cy  /Ef-cy ./Ia-cy . /Ereversed-cy/iishort-cy/ha-cy/ge-cy/o-cy/el-cy/softsign-cy/de-cy/u-cy  /ka-cy/o-cy/em-cy/ii-cy/es-cy/es-cy/ii-cy/iu-cy  /ze-cy/a-cy  /tse-cy e/ie-cy/yeru-cy/ie-cy  /ve-cy/ie-cy/shcha-cy/ii-cy .",
"Selononan/R.ss01",
"Lorem ipsum dolor sit amet, consectetur adipisicing elit, sed do eiusmod tempor incididunt ut labore et dolore magna aliqua. Ut enim ad minim veniam, quis nostrud exercitation ullamco laboris nisi ut aliquip ex ea commodo consequat. Duis aute irure dolor in reprehenderit in voluptate velit esse cillum dolore eu fugiat nulla pariatur. Excepteur sint occaecat cupidatat non proident, sunt in culpa qui officia deserunt mollit anim id est laborum.",
a,
"/idotless.ss01",
"/ve-cy",
"/ge-cy",
"/A-cy.ss01",
"/A.ss01",
L,
"/X.swsh",
Y,
"/Y.ss01",
"/W.swsh",
"/Y.swsh",
Z,
"/Z.ss01",
"/a.ss01",
"æ",
b,
c,
"/c.ss01",
"/d.ss01",
"/caroncomb.alt/dcaron",
"ð",
"/e.ss01",
e,
"/f.ss01",
g,
ax,
"a/g.ss01",
h,
"/h.ss01",
"/hbar",
"/idotless i",
"/jdotless",
"/_cutout aka",
x,
"/k.ss01",
"/kgreenlandic",
l,
"/l.ss01",
"/lslash",
m,
"/m.ss01",
n,
"i/n.ss01",
"/eng",
"/engtail n/nhookleft",
"/nhookleft.ss01",
o,
"/oe",
"/e.ss01/oe.ss01",
"/oe.ss01",
"/A-cy.ss01",
p,
"þ",
q,
r,
s,
"ß",
"/longs",
t,
"/t.ss01",
u,
"/u.ss01",
v,
"/x.ss01",
y,
"/y.ss01",
"/y.ss01",
"/z.ss01",
"/z.ss01",
"/f_f",
"/f_f_i",
"/f_f_l",
"/fi",
"/longs/longs_t",
"ª",
"º",
"-/numero",
"/A-cy",
"/Be-cy",
"/Ge-cy",

glyphs = (
{
glyphname = A;
lastChange = "2019-10-11 08:41:27 +0000";
layers = (
{
anchors = (
{
name = bottom;
position = "{420, 0}";
},
{
name = ogonek;
position = "{726, 0}";
},
{
name = top;
position = "{420, 684}";
}
);
layerId = "873CAA12-270D-4223-A88E-AE8E101FDBE8";
paths = (
{
closed = 1;
nodes = (
"149 -13 OFFCURVE",
"183 6 OFFCURVE",
"197 41 CURVE SMOOTH",
"272 227 LINE",
"567 227 LINE",
"662 0 LINE",
"726 0 LINE",
"430 693 LINE",
"410 693 LINE",
"149 78 LINE SMOOTH",
"139 54 OFFCURVE",
"130 43 OFFCURVE",
"114 43 CURVE SMOOTH",
"96 43 OFFCURVE",
"81 58 OFFCURVE",
"77 73 CURVE",
"24 62 LINE",
"32 18 OFFCURVE",
"72 -13 OFFCURVE",
"115 -13 CURVE SMOOTH"
);
},
{
closed = 1;
nodes = (
"409 552 LINE",
"419 592 LINE",
"430 552 LINE",
"543 283 LINE",
"296 283 LINE"
);
}
);
width = 752;
},
{
anchors = (
{
name = bottom;
position = "{421, 11}";
},
{
name = ogonek;
position = "{735, -1}";
},
{
name = top;
position = "{419, 684}";
}
);
layerId = "0CAF3BED-C4AC-4024-B3E1-4C69D1EF7EC0";
paths = (
{
closed = 1;
nodes = (
"159 -9 OFFCURVE",
"199 13 OFFCURVE",
"214 50 CURVE SMOOTH",
"285 220 LINE",
"556 220 LINE",
"648 -1 LINE",
"735 -1 LINE",
"437 688 LINE",
"403 688 LINE",
"147 94 LINE SMOOTH",
"140 77 OFFCURVE",
"132 65 OFFCURVE",
"120 65 CURVE SMOOTH",
"104 65 OFFCURVE",
"92 81 OFFCURVE",
"90 98 CURVE",
"23 84 LINE",
"25 32 OFFCURVE",
"69 -9 OFFCURVE",
"124 -9 CURVE SMOOTH"
);
},
{
closed = 1;
nodes = (
"418 548 LINE",
"419 563 LINE",
"421 548 LINE",
"522 294 LINE",
"315 294 LINE"
);
}
);
width = 759;
},
{
anchors = (
{
name = bottom;
position = "{422, -8}";
},
{
name = ogonek;
position = "{721, 1}";
},
{
name = top;
position = "{422, 684}";
}
);
layerId = "49C16FD3-6177-408B-A733-AEB3898BB77C";
paths = (
{
closed = 1;
nodes = (
"144 -9 OFFCURVE",
"172 8 OFFCURVE",
"186 42 CURVE SMOOTH",
"264 234 LINE",
"579 234 LINE",
"676 1 LINE",
"721 1 LINE",
"426 692 LINE",
"418 692 LINE",
"148 58 LINE SMOOTH",
"143 46 OFFCURVE",
"129 31 OFFCURVE",
"111 31 CURVE SMOOTH",
"92 31 OFFCURVE",
"74 45 OFFCURVE",
"67 59 CURVE",
"28 53 LINE",
"39 15 OFFCURVE",
"72 -9 OFFCURVE",
"110 -9 CURVE SMOOTH"
);
},
{
closed = 1;
nodes = (
"402 560 LINE",
"421 625 LINE",
"440 562 LINE",
"561 274 LINE",
"281 274 LINE"
);
}
);
width = 752;
}
);
leftKerningGroup = A;
rightKerningGroup = A;
unicode = 0041;
userData = {
position = 666;
width = 20;
};
},
{
glyphname = A.ss01;
lastChange = "2019-10-11 08:41:31 +0000";
layers = (
{
anchors = (
{
name = bottom;
position = "{334, 0}";
},
{
name = ogonek;
position = "{641, 0}";
},
{
name = top;
position = "{323, 703}";
}
);
layerId = "873CAA12-270D-4223-A88E-AE8E101FDBE8";
paths = (
{
closed = 1;
nodes = (
"90 0 LINE",
"185 227 LINE",
"480 227 LINE",
"577 0 LINE",
"641 0 LINE",
"342 703 LINE",
"323 703 LINE",
"26 0 LINE"
);
},
{
closed = 1;
nodes = (
"308 517 LINE SMOOTH",
"320 545 OFFCURVE",
"326 571 OFFCURVE",
"332 595 CURVE",
"337 574 OFFCURVE",
"346 542 OFFCURVE",
"357 517 CURVE SMOOTH",
"456 283 LINE",
"209 283 LINE"
);
}
);
width = 667;
},
{
anchors = (
{
name = bottom;
position = "{339, 0}";
},
{
name = ogonek;
position = "{654, -1}";
},
{
name = top;
position = "{342, 701}";
}
);
layerId = "0CAF3BED-C4AC-4024-B3E1-4C69D1EF7EC0";
paths = (
{
closed = 1;
nodes = (
"110 -1 LINE",
"202 220 LINE",
"473 220 LINE",
"567 -1 LINE",
"654 -1 LINE",
"354 705 LINE",
"321 705 LINE",
"23 -1 LINE"
);
},
{
closed = 1;
nodes = (
"322 508 LINE SMOOTH",
"327 519 OFFCURVE",
"333 545 OFFCURVE",
"337 557 CURVE",
"341 545 OFFCURVE",
"346 519 OFFCURVE",
"351 508 CURVE SMOOTH",
"441 294 LINE",
"233 294 LINE"
);
}
);
width = 677;
},
{
anchors = (
{
name = bottom;
position = "{333, 0}";
},
{
name = ogonek;
position = "{635, 1}";
},
{
name = top;
position = "{339, 704}";
}
);
layerId = "49C16FD3-6177-408B-A733-AEB3898BB77C";
paths = (
{
closed = 1;
nodes = (
"77 1 LINE",
"175 234 LINE",
"489 234 LINE",
"588 1 LINE",
"635 1 LINE",
"336 704 LINE",
"328 704 LINE",
"31 1 LINE"
);
},
{
closed = 1;
nodes = (
"298 526 LINE SMOOTH",
"313 562 OFFCURVE",
"326 614 OFFCURVE",
"331 629 CURVE",
"336 615 OFFCURVE",
"352 563 OFFCURVE",
"368 526 CURVE SMOOTH",
"473 274 LINE",
"191 274 LINE"
);
}
);
width = 666;
}
);
leftKerningGroup = Atext;
rightKerningGroup = A;
userData = {
position = 10;
width = 615;
};
},
{
glyphname = A.swsh;
lastChange = "2019-10-11 08:41:31 +0000";
layers = (
{
anchors = (
{
name = bottom;
position = "{426, 0}";
},
{
name = ogonek;
position = "{731, 0}";
},
{
name = top;
position = "{426, 684}";
}
);
layerId = "873CAA12-270D-4223-A88E-AE8E101FDBE8";
paths = (
{
closed = 1;
nodes = (
"166 -11 OFFCURVE",
"191 8 OFFCURVE",
"215 70 CURVE SMOOTH",
"278 227 LINE",
"573 227 LINE",
"668 0 LINE",
"732 0 LINE",
"435 693 LINE",
"416 693 LINE",
"160 92 LINE SMOOTH",
"145 56 OFFCURVE",
"141 43 OFFCURVE",
"113 43 CURVE SMOOTH",
"102 43 OFFCURVE",
"85 55 OFFCURVE",
"85 71 CURVE SMOOTH",
"85 75 OFFCURVE",
"85 79 OFFCURVE",
"87 83 CURVE",
"40 113 LINE",
"32 101 OFFCURVE",
"29 83 OFFCURVE",
"29 71 CURVE SMOOTH",
"29 25 OFFCURVE",
"69 -13 OFFCURVE",
"120 -12 CURVE SMOOTH"
);
},
{
closed = 1;
nodes = (
"415 552 LINE",
"425 592 LINE",
"436 552 LINE",
"549 283 LINE",
"302 283 LINE"
);
}
);
width = 758;
},
{
anchors = (
{
name = bottom;
position = "{427, 11}";
},
{
name = ogonek;
position = "{741, -1}";
},
{
name = top;
position = "{425, 684}";
}
);
layerId = "0CAF3BED-C4AC-4024-B3E1-4C69D1EF7EC0";
paths = (
{
closed = 1;
nodes = (
"178 -14 OFFCURVE",
"206 19 OFFCURVE",
"227 65 CURVE SMOOTH",
"291 220 LINE",
"562 220 LINE",
"654 0 LINE",
"741 0 LINE",
"443 688 LINE",
"409 688 LINE",
"159 108 LINE SMOOTH",
"149 84 OFFCURVE",
"142 60 OFFCURVE",
"122 60 CURVE SMOOTH",
"112 60 OFFCURVE",
"103 67 OFFCURVE",
"100 78 CURVE SMOOTH",
"99 82 OFFCURVE",
"99 88 OFFCURVE",
"102 94 CURVE",
"41 133 LINE",
"32 114 OFFCURVE",
"28 96 OFFCURVE",
"28 80 CURVE SMOOTH",
"28 25 OFFCURVE",
"74 -14 OFFCURVE",
"122 -14 CURVE SMOOTH"
);
},
{
closed = 1;
nodes = (
"413 518 LINE",
"426 564 LINE",
"439 518 LINE",
"528 294 LINE",
"321 294 LINE"
);
}
);
width = 764;
},
{
anchors = (
{
name = bottom;
position = "{427, -6}";
},
{
name = ogonek;
position = "{728, 1}";
},
{
name = top;
position = "{427, 684}";
}
);
layerId = "49C16FD3-6177-408B-A733-AEB3898BB77C";
paths = (
{
closed = 1;
nodes = (
"155 -11 OFFCURVE",
"180 11 OFFCURVE",
"197 49 CURVE SMOOTH",
"271 233 LINE",
"582 233 LINE",
"679 0 LINE",
"728 0 LINE",
"432 692 LINE",
"422 692 LINE",
"157 70 LINE SMOOTH",
"145 44 OFFCURVE",
"135 35 OFFCURVE",
"119 33 CURVE SMOOTH",
"97 30 OFFCURVE",
"77 46 OFFCURVE",
"77 67 CURVE SMOOTH",
"77 72 OFFCURVE",
"78 77 OFFCURVE",
"80 82 CURVE",
"45 106 LINE",
"37 94 OFFCURVE",
"33 76 OFFCURVE",
"33 66 CURVE SMOOTH",
"33 21 OFFCURVE",
"74 -11 OFFCURVE",
"116 -11 CURVE SMOOTH"
);
},
{
closed = 1;
nodes = (
"413 569 LINE",
"426 619 LINE",
"440 569 LINE",
"563 277 LINE",
"290 277 LINE"
);
}
);
width = 759;
}
);
leftKerningGroup = A;
rightKerningGroup = A;
userData = {
position = 666;
width = 20;
};
},
{
glyphname = AE;
lastChange = "2019-10-11 08:41:29 +0000";
layers = (
{
anchors = (
{
name = bottom;
position = "{547, 0}";
},
{
name = top;
position = "{557, 682}";
}
);
layerId = "873CAA12-270D-4223-A88E-AE8E101FDBE8";
paths = (
{
closed = 1;
nodes = (
"129 -14 OFFCURVE",
"160 1 OFFCURVE",
"175 31 CURVE SMOOTH",
"274 227 LINE",
"496 227 LINE",
"496 0 LINE",
"934 0 LINE",
"934 56 LINE",
"557 56 LINE",
"557 334 LINE",
"814 334 LINE",
"814 390 LINE",
"557 390 LINE",
"557 628 LINE",
"914 628 LINE",
"914 684 LINE",
"467 684 LINE",
"126 62 LINE SMOOTH",
"120 52 OFFCURVE",
"110 43 OFFCURVE",
"97 43 CURVE SMOOTH",
"83 43 OFFCURVE",
"73 45 OFFCURVE",
"60 64 CURVE",
"20 24 LINE",
"40 0 OFFCURVE",
"66 -14 OFFCURVE",
"93 -14 CURVE SMOOTH"
);
},
{
closed = 1;
nodes = (
"479 592 LINE",
"497 630 LINE",
"496 283 LINE",
"309 283 LINE"
);
}
);
width = 970;
},
{
anchors = (
{
name = bottom;
position = "{548, 0}";
},
{
name = top;
position = "{559, 673}";
}
);
layerId = "0CAF3BED-C4AC-4024-B3E1-4C69D1EF7EC0";
paths = (
{
closed = 1;
nodes = (
"148 -12 OFFCURVE",
"184 8 OFFCURVE",
"201 44 CURVE SMOOTH",
"291 220 LINE",
"488 220 LINE",
"488 -1 LINE",
"935 -1 LINE",
"935 75 LINE",
"570 75 LINE",
"570 325 LINE",
"817 325 LINE",
"817 401 LINE",
"570 401 LINE",
"570 610 LINE",
"915 610 LINE",
"915 686 LINE",
"461 686 LINE",
"138 93 LINE SMOOTH",
"128 75 OFFCURVE",
"118 67 OFFCURVE",
"104 67 CURVE SMOOTH",
"93 67 OFFCURVE",
"81 72 OFFCURVE",
"71 86 CURVE",
"23 30 LINE",
"40 5 OFFCURVE",
"71 -12 OFFCURVE",
"112 -12 CURVE SMOOTH"
);
},
{
closed = 1;
nodes = (
"467 537 LINE",
"488 586 LINE",
"488 296 LINE",
"335 296 LINE"
);
}
);
width = 972;
},
{
anchors = (
{
name = bottom;
position = "{552, 0}";
},
{
name = top;
position = "{560, 692}";
}
);
layerId = "49C16FD3-6177-408B-A733-AEB3898BB77C";
paths = (
{
closed = 1;
nodes = (
"143 -2 OFFCURVE",
"155 26 OFFCURVE",
"186 71 CURVE",
"278 235 LINE",
"506 235 LINE",
"506 1 LINE",
"935 1 LINE",
"935 41 LINE",
"548 41 LINE",
"548 344 LINE",
"812 344 LINE",
"812 384 LINE",
"548 384 LINE",
"548 645 LINE",
"915 645 LINE",
"915 685 LINE",
"478 685 LINE",
"144 78 LINE",
"130 57 OFFCURVE",
"121 38 OFFCURVE",
"97 38 CURVE SMOOTH",
"83 38 OFFCURVE",
"66 47 OFFCURVE",
"58 56 CURVE",
"21 38 LINE",
"38 12 OFFCURVE",
"65 -2 OFFCURVE",
"96 -2 CURVE SMOOTH"
);
},
{
closed = 1;
nodes = (
"474 596 LINE",
"505 656 LINE",
"506 275 LINE",
"299 275 LINE"
);
}
);
width = 972;
}
);
leftKerningGroup = A;
leftMetricsKey = "=A*.75";
rightKerningGroup = E;
unicode = 00C6;
userData = {
position = 422;
width = 61;
};
},
{
glyphname = AE.ss01;
lastChange = "2019-10-11 08:41:28 +0000";
layers = (
{
anchors = (
{
name = bottom;
position = "{479, 0}";
},
{
name = top;
position = "{489, 682}";
}
);
layerId = "873CAA12-270D-4223-A88E-AE8E101FDBE8";
paths = (
{
closed = 1;
nodes = (
"84 0 LINE",
"209 227 LINE",
"428 227 LINE",
"428 0 LINE",
"855 0 LINE",
"855 56 LINE",
"488 56 LINE",
"488 334 LINE",
"735 334 LINE",
"735 390 LINE",
"488 390 LINE",
"488 628 LINE",
"835 628 LINE",
"835 684 LINE",
"405 684 LINE",
"16 0 LINE"
);
},
{
closed = 1;
nodes = (
"409 587 LINE",
"428 631 LINE",
"428 283 LINE",
"237 283 LINE"
);
}
);
width = 891;
},
{
anchors = (
{
name = bottom;
position = "{486, 0}";
},
{
name = top;
position = "{497, 673}";
}
);
layerId = "0CAF3BED-C4AC-4024-B3E1-4C69D1EF7EC0";
paths = (
{
closed = 1;
nodes = (
"108 0 LINE",
"229 220 LINE",
"426 220 LINE",
"426 -1 LINE",
"863 -1 LINE",
"863 75 LINE",
"508 75 LINE",
"508 325 LINE",
"745 325 LINE",
"745 401 LINE",
"508 401 LINE",
"508 610 LINE",
"843 610 LINE",
"843 686 LINE",
"409 686 LINE",
"18 -1 LINE"
);
},
{
closed = 1;
nodes = (
"412 561 LINE",
"426 593 LINE",
"426 296 LINE",
"267 296 LINE"
);
}
);
width = 900;
},
{
anchors = (
{
name = bottom;
position = "{467, 0}";
},
{
name = top;
position = "{474, 692}";
}
);
layerId = "49C16FD3-6177-408B-A733-AEB3898BB77C";
paths = (
{
closed = 1;
nodes = (
"69 1 LINE",
"194 234 LINE",
"421 234 LINE",
"421 1 LINE",
"851 1 LINE",
"851 41 LINE",
"463 41 LINE",
"463 344 LINE",
"729 344 LINE",
"729 384 LINE",
"463 384 LINE",
"463 645 LINE",
"831 645 LINE",
"831 685 LINE",
"394 685 LINE",
"17 1 LINE"
);
},
{
closed = 1;
nodes = (
"391 598 LINE",
"421 645 LINE",
"421 274 LINE",
"212 274 LINE"
);
}
);
width = 888;
}
);
leftKerningGroup = Atext;
leftMetricsKey = "=A*.6";
userData = {
position = 422;
width = 61;
};
},
{
glyphname = B;
lastChange = "2019-10-11 08:41:30 +0000";
layers = (
{
anchors = (
{
name = bottom;
position = "{316, 0}";
},
{
name = top;
position = "{316, 684}";
}
);
layerId = "873CAA12-270D-4223-A88E-AE8E101FDBE8";
paths = (
{
closed = 1;
nodes = (
"203 -5 LINE SMOOTH",
"244 -10 OFFCURVE",
"310 -10 OFFCURVE",
"330 -10 CURVE SMOOTH",
"485 -10 OFFCURVE",
"595 47 OFFCURVE",
"595 182 CURVE SMOOTH",
"595 262 OFFCURVE",
"556 322 OFFCURVE",
"489 358 CURVE",
"478 361 OFFCURVE",
"468 365 OFFCURVE",
"457 368 CURVE",
"480 375 OFFCURVE",
"485 378 OFFCURVE",
"487 379 CURVE SMOOTH",
"533 402 OFFCURVE",
"563 452 OFFCURVE",
"563 515 CURVE SMOOTH",
"563 622 OFFCURVE",
"477 695 OFFCURVE",
"361 695 CURVE SMOOTH",
"129 695 LINE SMOOTH",
"100 695 OFFCURVE",
"76 683 OFFCURVE",
"56 663 CURVE SMOOTH",
"37 644 OFFCURVE",
"26 619 OFFCURVE",
"26 590 CURVE",
"82 590 LINE",
"82 600 OFFCURVE",
"87 616 OFFCURVE",
"97 626 CURVE SMOOTH",
"106 635 OFFCURVE",
"119 639 OFFCURVE",
"150 639 CURVE",
"150 1 LINE"
);
},
{
closed = 1;
nodes = (
"314 45 OFFCURVE",
"309 46 OFFCURVE",
"210 50 CURVE",
"210 639 LINE",
"375 639 LINE",
"450 635 OFFCURVE",
"503 595 OFFCURVE",
"503 515 CURVE SMOOTH",
"503 476 OFFCURVE",
"490 445 OFFCURVE",
"464 423 CURVE SMOOTH",
"439 402 OFFCURVE",
"402 390 OFFCURVE",
"360 390 CURVE SMOOTH",
"272 390 LINE",
"272 335 LINE",
"367 335 LINE SMOOTH",
"459 335 OFFCURVE",
"535 281 OFFCURVE",
"535 183 CURVE SMOOTH",
"535 81 OFFCURVE",
"454 45 OFFCURVE",
"334 45 CURVE SMOOTH"
);
}
);
width = 649;
},
{
anchors = (
{
name = bottom;
position = "{318, 0}";
},
{
name = top;
position = "{318, 684}";
}
);
layerId = "0CAF3BED-C4AC-4024-B3E1-4C69D1EF7EC0";
paths = (
{
closed = 1;
nodes = (
"207 -5 LINE SMOOTH",
"258 -11 OFFCURVE",
"315 -10 OFFCURVE",
"332 -10 CURVE SMOOTH",
"485 -10 OFFCURVE",
"599 50 OFFCURVE",
"599 188 CURVE SMOOTH",
"599 269 OFFCURVE",
"569 318 OFFCURVE",
"532 338 CURVE SMOOTH",
"501 355 OFFCURVE",
"470 357 OFFCURVE",
"454 357 CURVE",
"468 360 OFFCURVE",
"479 363 OFFCURVE",
"489 368 CURVE SMOOTH",
"538 392 OFFCURVE",
"569 446 OFFCURVE",
"569 511 CURVE SMOOTH",
"569 620 OFFCURVE",
"479 697 OFFCURVE",
"362 697 CURVE SMOOTH",
"136 697 LINE SMOOTH",
"106 697 OFFCURVE",
"78 683 OFFCURVE",
"57 662 CURVE SMOOTH",
"31 636 OFFCURVE",
"25 612 OFFCURVE",
"26 572 CURVE",
"91 572 LINE",
"91 584 OFFCURVE",
"95 596 OFFCURVE",
"103 605 CURVE SMOOTH",
"112 615 OFFCURVE",
"125 621 OFFCURVE",
"145 621 CURVE",
"145 2 LINE"
);
},
{
closed = 1;
nodes = (
"318 66 OFFCURVE",
"287 66 OFFCURVE",
"227 71 CURVE",
"227 621 LINE",
"375 621 LINE SMOOTH",
"442 621 OFFCURVE",
"488 580 OFFCURVE",
"488 511 CURVE SMOOTH",
"488 475 OFFCURVE",
"477 450 OFFCURVE",
"454 430 CURVE SMOOTH",
"432 411 OFFCURVE",
"400 400 OFFCURVE",
"361 400 CURVE SMOOTH",
"275 399 LINE",
"274 325 LINE",
"368 325 LINE SMOOTH",
"451 325 OFFCURVE",
"519 276 OFFCURVE",
"519 189 CURVE SMOOTH",
"519 99 OFFCURVE",
"448 66 OFFCURVE",
"336 66 CURVE SMOOTH"
);
}
);
width = 652;
},
{
anchors = (
{
name = bottom;
position = "{324, 0}";
},
{
name = top;
position = "{324, 684}";
}
);
layerId = "49C16FD3-6177-408B-A733-AEB3898BB77C";
paths = (
{
closed = 1;
nodes = (
"203 -4 LINE SMOOTH",
"244 -9 OFFCURVE",
"311 -9 OFFCURVE",
"332 -9 CURVE SMOOTH",
"489 -9 OFFCURVE",
"593 46 OFFCURVE",
"593 180 CURVE SMOOTH",
"593 261 OFFCURVE",
"555 317 OFFCURVE",
"492 352 CURVE",
"472 358 OFFCURVE",
"451 365 OFFCURVE",
"431 371 CURVE",
"460 378 OFFCURVE",
"484 386 OFFCURVE",
"490 390 CURVE SMOOTH",
"528 417 OFFCURVE",
"562 458 OFFCURVE",
"562 520 CURVE SMOOTH",
"562 626 OFFCURVE",
"478 696 OFFCURVE",
"364 696 CURVE SMOOTH",
"126 696 LINE SMOOTH",
"101 696 OFFCURVE",
"80 688 OFFCURVE",
"58 666 CURVE SMOOTH",
"41 649 OFFCURVE",
"31 631 OFFCURVE",
"30 606 CURVE",
"70 606 LINE",
"72 616 OFFCURVE",
"77 631 OFFCURVE",
"87 641 CURVE SMOOTH",
"98 652 OFFCURVE",
"119 658 OFFCURVE",
"159 657 CURVE",
"159 1 LINE"
);
},
{
closed = 1;
nodes = (
"313 30 OFFCURVE",
"310 31 OFFCURVE",
"201 35 CURVE",
"201 657 LINE",
"378 657 LINE",
"454 653 OFFCURVE",
"518 609 OFFCURVE",
"518 520 CURVE SMOOTH",
"518 479 OFFCURVE",
"503 444 OFFCURVE",
"474 419 CURVE SMOOTH",
"448 397 OFFCURVE",
"407 384 OFFCURVE",
"363 384 CURVE SMOOTH",
"281 384 LINE",
"281 345 LINE",
"370 345 LINE SMOOTH",
"467 345 OFFCURVE",
"550 284 OFFCURVE",
"550 181 CURVE SMOOTH",
"550 70 OFFCURVE",
"460 30 OFFCURVE",
"336 30 CURVE SMOOTH"
);
}
);
width = 652;
}
);
leftKerningGroup = E;
rightKerningGroup = B;
unicode = 0042;
userData = {
position = 514;
width = 59;
};
},
{
glyphname = B.ss01;
lastChange = "2019-10-11 08:41:31 +0000";
layers = (
{
anchors = (
{
name = bottom;
position = "{295, 0}";
},
{
name = top;
position = "{295, 684}";
}
);
layerId = "873CAA12-270D-4223-A88E-AE8E101FDBE8";
paths = (
{
closed = 1;
nodes = (
"343 -10 OFFCURVE",
"378 -6 OFFCURVE",
"409 4 CURVE SMOOTH",
"499 33 OFFCURVE",
"543 106 OFFCURVE",
"543 185 CURVE SMOOTH",
"543 261 OFFCURVE",
"501 320 OFFCURVE",
"438 358 CURVE SMOOTH",
"433 361 OFFCURVE",
"427 363 OFFCURVE",
"406 368 CURVE",
"429 375 OFFCURVE",
"434 378 OFFCURVE",
"436 379 CURVE SMOOTH",
"490 406 OFFCURVE",
"512 456 OFFCURVE",
"512 514 CURVE SMOOTH",
"512 594 OFFCURVE",
"467 655 OFFCURVE",
"392 682 CURVE SMOOTH",
"367 691 OFFCURVE",
"340 695 OFFCURVE",
"310 695 CURVE SMOOTH",
"100 695 LINE",
"100 639 LINE",
"324 639 LINE",
"405 633 OFFCURVE",
"452 592 OFFCURVE",
"452 518 CURVE SMOOTH",
"452 433 OFFCURVE",
"391 390 OFFCURVE",
"309 390 CURVE SMOOTH",
"141 390 LINE",
"141 335 LINE",
"316 335 LINE SMOOTH",
"425 335 OFFCURVE",
"483 270 OFFCURVE",
"483 185 CURVE SMOOTH",
"483 92 OFFCURVE",
"413 45 OFFCURVE",
"302 45 CURVE SMOOTH",
"287 45 OFFCURVE",
"257 46 OFFCURVE",
"235 47 CURVE SMOOTH",
"160 50 LINE",
"160 652 LINE",
"100 652 LINE",
"100 1 LINE",
"152 -5 LINE SMOOTH",
"186 -9 OFFCURVE",
"265 -10 OFFCURVE",
"292 -10 CURVE SMOOTH"
);
}
);
width = 597;
},
{
anchors = (
{
name = bottom;
position = "{298, 0}";
},
{
name = top;
position = "{298, 684}";
}
);
layerId = "0CAF3BED-C4AC-4024-B3E1-4C69D1EF7EC0";
paths = (
{
closed = 1;
nodes = (
"346 -10 OFFCURVE",
"382 -6 OFFCURVE",
"413 4 CURVE SMOOTH",
"504 33 OFFCURVE",
"551 111 OFFCURVE",
"551 191 CURVE SMOOTH",
"551 268 OFFCURVE",
"516 320 OFFCURVE",
"455 357 CURVE SMOOTH",
"445 363 OFFCURVE",
"427 369 OFFCURVE",
"419 369 CURVE",
"431 373 OFFCURVE",
"436 375 OFFCURVE",
"440 377 CURVE SMOOTH",
"496 405 OFFCURVE",
"521 451 OFFCURVE",
"521 510 CURVE SMOOTH",
"521 591 OFFCURVE",
"473 655 OFFCURVE",
"397 684 CURVE SMOOTH",
"371 694 OFFCURVE",
"343 697 OFFCURVE",
"313 697 CURVE SMOOTH",
"97 697 LINE",
"97 619 LINE",
"326 619 LINE",
"399 614 OFFCURVE",
"439 578 OFFCURVE",
"439 514 CURVE SMOOTH",
"439 439 OFFCURVE",
"386 401 OFFCURVE",
"312 401 CURVE SMOOTH",
"137 401 LINE",
"137 324 LINE",
"319 324 LINE SMOOTH",
"418 324 OFFCURVE",
"470 267 OFFCURVE",
"470 191 CURVE SMOOTH",
"470 109 OFFCURVE",
"408 66 OFFCURVE",
"306 66 CURVE SMOOTH",
"290 66 OFFCURVE",
"261 67 OFFCURVE",
"241 68 CURVE SMOOTH",
"179 71 LINE",
"179 655 LINE",
"97 655 LINE",
"97 2 LINE",
"158 -5 LINE SMOOTH",
"194 -9 OFFCURVE",
"269 -10 OFFCURVE",
"296 -10 CURVE SMOOTH"
);
}
);
width = 603;
},
{
anchors = (
{
name = bottom;
position = "{295, 0}";
},
{
name = top;
position = "{295, 684}";
}
);
layerId = "49C16FD3-6177-408B-A733-AEB3898BB77C";
paths = (
{
closed = 1;
nodes = (
"342 -9 OFFCURVE",
"380 -5 OFFCURVE",
"411 5 CURVE SMOOTH",
"500 34 OFFCURVE",
"543 104 OFFCURVE",
"543 182 CURVE SMOOTH",
"543 256 OFFCURVE",
"504 319 OFFCURVE",
"438 352 CURVE",
"431 357 OFFCURVE",
"420 358 OFFCURVE",
"377 369 CURVE",
"424 381 OFFCURVE",
"434 386 OFFCURVE",
"438 389 CURVE SMOOTH",
"483 420 OFFCURVE",
"510 460 OFFCURVE",
"510 519 CURVE SMOOTH",
"510 599 OFFCURVE",
"468 656 OFFCURVE",
"393 683 CURVE SMOOTH",
"365 693 OFFCURVE",
"340 696 OFFCURVE",
"312 696 CURVE SMOOTH",
"105 696 LINE",
"105 656 LINE",
"327 656 LINE",
"417 650 OFFCURVE",
"467 600 OFFCURVE",
"467 523 CURVE SMOOTH",
"467 432 OFFCURVE",
"398 384 OFFCURVE",
"311 384 CURVE SMOOTH",
"148 384 LINE",
"148 345 LINE",
"318 345 LINE SMOOTH",
"435 345 OFFCURVE",
"500 272 OFFCURVE",
"500 182 CURVE SMOOTH",
"500 82 OFFCURVE",
"420 30 OFFCURVE",
"304 30 CURVE SMOOTH",
"289 30 OFFCURVE",
"262 31 OFFCURVE",
"235 32 CURVE SMOOTH",
"150 34 LINE",
"150 664 LINE",
"105 664 LINE",
"106 3 LINE",
"152 -4 LINE SMOOTH",
"189 -10 OFFCURVE",
"271 -9 OFFCURVE",
"294 -9 CURVE SMOOTH"
);
}
);
width = 601;
}
);
leftKerningGroup = L;
rightKerningGroup = B;
userData = {
position = 494;
width = 59;
};
},
{
color = 1;
glyphname = B.swsh;
lastChange = "2019-10-11 08:41:27 +0000";
layers = (
{
layerId = "873CAA12-270D-4223-A88E-AE8E101FDBE8";
paths = (
{
closed = 1;
nodes = (
"497 -15 OFFCURVE",
"590 48 OFFCURVE",
"590 181 CURVE SMOOTH",
"590 267 OFFCURVE",
"548 324 OFFCURVE",
"485 358 CURVE SMOOTH",
"482 360 OFFCURVE",
"476 362 OFFCURVE",
"453 368 CURVE",
"475 375 OFFCURVE",
"478 376 OFFCURVE",
"483 379 CURVE SMOOTH",
"531 407 OFFCURVE",
"559 450 OFFCURVE",
"559 511 CURVE SMOOTH",
"559 566 OFFCURVE",
"535 642 OFFCURVE",
"443 674 CURVE SMOOTH",
"417 683 OFFCURVE",
"386 687 OFFCURVE",
"357 687 CURVE SMOOTH",
"135 687 LINE SMOOTH",
"79 687 OFFCURVE",
"32 640 OFFCURVE",
"32 581 CURVE SMOOTH",
"32 544 OFFCURVE",
"50 511 OFFCURVE",
"82 492 CURVE",
"111 540 LINE",
"97 549 OFFCURVE",
"88 563 OFFCURVE",
"88 581 CURVE SMOOTH",
"88 609 OFFCURVE",
"111 631 OFFCURVE",
"137 631 CURVE SMOOTH",
"371 631 LINE",
"450 626 OFFCURVE",
"499 585 OFFCURVE",
"499 514 CURVE SMOOTH",
"499 429 OFFCURVE",
"438 390 OFFCURVE",
"356 390 CURVE SMOOTH",
"268 390 LINE",
"268 335 LINE",
"363 335 LINE SMOOTH",
"453 335 OFFCURVE",
"531 284 OFFCURVE",
"531 185 CURVE SMOOTH",
"531 89 OFFCURVE",
"459 45 OFFCURVE",
"333 45 CURVE SMOOTH",
"316 45 OFFCURVE",
"302 46 OFFCURVE",
"282 47 CURVE SMOOTH",
"216 50 LINE",
"216 592 LINE",
"156 592 LINE",
"156 1 LINE",
"209 -4 LINE SMOOTH",
"241 -7 OFFCURVE",
"272 -9 OFFCURVE",
"313 -10 CURVE SMOOTH"
);
}
);
width = 645;
},
{
layerId = "0CAF3BED-C4AC-4024-B3E1-4C69D1EF7EC0";
paths = (
{
closed = 1;
nodes = (
"527 -10 OFFCURVE",
"606 55 OFFCURVE",
"606 187 CURVE SMOOTH",
"606 254 OFFCURVE",
"577 305 OFFCURVE",
"539 335 CURVE SMOOTH",
"514 354 OFFCURVE",
"485 363 OFFCURVE",
"464 363 CURVE",
"484 367 OFFCURVE",
"500 368 OFFCURVE",
"527 393 CURVE SMOOTH",
"557 422 OFFCURVE",
"575 458 OFFCURVE",
"575 506 CURVE SMOOTH",
"575 562 OFFCURVE",
"545 642 OFFCURVE",
"469 667 CURVE SMOOTH",
"424 682 OFFCURVE",
"396 685 OFFCURVE",
"367 685 CURVE SMOOTH",
"141 685 LINE SMOOTH",
"82 685 OFFCURVE",
"30 637 OFFCURVE",
"30 574 CURVE SMOOTH",
"30 532 OFFCURVE",
"54 491 OFFCURVE",
"94 473 CURVE",
"134 539 LINE",
"116 548 OFFCURVE",
"108 557 OFFCURVE",
"108 574 CURVE SMOOTH",
"108 595 OFFCURVE",
"125 609 OFFCURVE",
"143 609 CURVE SMOOTH",
"380 609 LINE SMOOTH",
"450 609 OFFCURVE",
"493 571 OFFCURVE",
"493 509 CURVE SMOOTH",
"493 434 OFFCURVE",
"440 401 OFFCURVE",
"366 401 CURVE SMOOTH",
"269 401 LINE",
"269 324 LINE",
"373 324 LINE SMOOTH",
"454 324 OFFCURVE",
"524 278 OFFCURVE",
"524 191 CURVE SMOOTH",
"524 97 OFFCURVE",
"460 66 OFFCURVE",
"344 66 CURVE SMOOTH",
"324 66 OFFCURVE",
"312 67 OFFCURVE",
"294 68 CURVE SMOOTH",
"242 71 LINE",
"242 584 LINE",
"160 584 LINE",
"160 2 LINE",
"223 -5 LINE SMOOTH",
"250 -8 OFFCURVE",
"297 -10 OFFCURVE",
"338 -10 CURVE SMOOTH"
);
}
);
width = 659;
},
{
layerId = "49C16FD3-6177-408B-A733-AEB3898BB77C";
paths = (
{
closed = 1;
nodes = (
"496 -9 OFFCURVE",
"590 47 OFFCURVE",
"590 178 CURVE SMOOTH",
"590 266 OFFCURVE",
"548 320 OFFCURVE",
"484 353 CURVE SMOOTH",
"482 354 OFFCURVE",
"482 355 OFFCURVE",
"430 370 CURVE",
"478 385 OFFCURVE",
"479 385 OFFCURVE",
"481 386 CURVE SMOOTH",
"530 413 OFFCURVE",
"559 452 OFFCURVE",
"559 514 CURVE SMOOTH",
"559 568 OFFCURVE",
"532 640 OFFCURVE",
"441 672 CURVE SMOOTH",
"415 681 OFFCURVE",
"389 685 OFFCURVE",
"361 685 CURVE SMOOTH",
"133 685 LINE SMOOTH",
"80 685 OFFCURVE",
"37 641 OFFCURVE",
"37 586 CURVE SMOOTH",
"37 553 OFFCURVE",
"51 526 OFFCURVE",
"76 507 CURVE",
"96 540 LINE",
"85 551 OFFCURVE",
"76 567 OFFCURVE",
"76 586 CURVE SMOOTH",
"76 617 OFFCURVE",
"105 645 OFFCURVE",
"135 645 CURVE SMOOTH",
"375 645 LINE",
"459 640 OFFCURVE",
"516 593 OFFCURVE",
"516 517 CURVE SMOOTH",
"516 425 OFFCURVE",
"446 383 OFFCURVE",
"360 383 CURVE SMOOTH",
"278 383 LINE",
"278 345 LINE",
"367 345 LINE SMOOTH",
"462 345 OFFCURVE",
"548 289 OFFCURVE",
"548 182 CURVE SMOOTH",
"548 78 OFFCURVE",
"468 29 OFFCURVE",
"335 29 CURVE SMOOTH",
"317 29 OFFCURVE",
"303 29 OFFCURVE",
"283 30 CURVE SMOOTH",
"206 34 LINE",
"206 591 LINE",
"164 591 LINE",
"164 1 LINE",
"210 -3 LINE SMOOTH",
"245 -6 OFFCURVE",
"273 -9 OFFCURVE",
"315 -9 CURVE SMOOTH"
);
}
);
width = 649;
}
);
leftKerningGroup = E.swsh;
rightKerningGroup = B.swsh;
userData = {
position = 514;
width = 59;
};
},
{
glyphname = C;
lastChange = "2019-10-11 08:41:29 +0000";
layers = (
{
anchors = (
{
name = bottom;
position = "{384, -21}";
},
{
name = top;
position = "{384, 713}";
}
);
layerId = "873CAA12-270D-4223-A88E-AE8E101FDBE8";
paths = (
{
closed = 1;
nodes = (
"509 -23 OFFCURVE",
"617 25 OFFCURVE",
"684 124 CURVE",
"638 156 LINE",
"587 81 OFFCURVE",
"499 34 OFFCURVE",
"402 34 CURVE SMOOTH",
"234 34 OFFCURVE",
"112 171 OFFCURVE",
"112 336 CURVE SMOOTH",
"112 506 OFFCURVE",
"242 654 OFFCURVE",
"408 654 CURVE SMOOTH",
"479 654 OFFCURVE",
"583 622 OFFCURVE",
"583 561 CURVE SMOOTH",
"583 538 OFFCURVE",
"569 522 OFFCURVE",
"552 522 CURVE SMOOTH",
"544 522 OFFCURVE",
"537 525 OFFCURVE",
"529 530 CURVE",
"494 486 LINE",
"510 474 OFFCURVE",
"530 466 OFFCURVE",
"551 466 CURVE SMOOTH",
"601 466 OFFCURVE",
"644 508 OFFCURVE",
"644 560 CURVE SMOOTH",
"644 661 OFFCURVE",
"520 711 OFFCURVE",
"407 711 CURVE SMOOTH",
"214 711 OFFCURVE",
"52 539 OFFCURVE",
"52 336 CURVE SMOOTH",
"52 140 OFFCURVE",
"204 -23 OFFCURVE",
"401 -23 CURVE SMOOTH"
);
}
);
width = 716;
},
{
anchors = (
{
name = bottom;
position = "{393, -9}";
},
{
name = top;
position = "{393, 703}";
}
);
layerId = "0CAF3BED-C4AC-4024-B3E1-4C69D1EF7EC0";
paths = (
{
closed = 1;
nodes = (
"552 -19 OFFCURVE",
"653 56 OFFCURVE",
"695 146 CURVE",
"627 178 LINE",
"592 101 OFFCURVE",
"501 52 OFFCURVE",
"407 52 CURVE SMOOTH",
"256 52 OFFCURVE",
"131 178 OFFCURVE",
"131 339 CURVE SMOOTH",
"131 507 OFFCURVE",
"268 630 OFFCURVE",
"398 630 CURVE SMOOTH",
"465 630 OFFCURVE",
"558 601 OFFCURVE",
"558 541 CURVE SMOOTH",
"558 524 OFFCURVE",
"548 511 OFFCURVE",
"536 511 CURVE SMOOTH",
"530 511 OFFCURVE",
"522 515 OFFCURVE",
"515 525 CURVE",
"450 487 LINE",
"472 452 OFFCURVE",
"504 436 OFFCURVE",
"535 436 CURVE SMOOTH",
"585 436 OFFCURVE",
"632 475 OFFCURVE",
"633 539 CURVE SMOOTH",
"634 637 OFFCURVE",
"528 704 OFFCURVE",
"404 704 CURVE SMOOTH",
"206 704 OFFCURVE",
"49 537 OFFCURVE",
"49 339 CURVE SMOOTH",
"49 150 OFFCURVE",
"195 -27 OFFCURVE",
"410 -22 CURVE SMOOTH"
);
}
);
width = 721;
},
{
anchors = (
{
name = bottom;
position = "{390, -29}";
},
{
name = top;
position = "{390, 723}";
}
);
layerId = "49C16FD3-6177-408B-A733-AEB3898BB77C";
paths = (
{
closed = 1;
nodes = (
"510 -22 OFFCURVE",
"616 20 OFFCURVE",
"685 118 CURVE",
"653 140 LINE",
"599 65 OFFCURVE",
"506 18 OFFCURVE",
"409 18 CURVE SMOOTH",
"232 18 OFFCURVE",
"98 166 OFFCURVE",
"98 337 CURVE SMOOTH",
"98 508 OFFCURVE",
"240 665 OFFCURVE",
"415 665 CURVE SMOOTH",
"492 665 OFFCURVE",
"604 628 OFFCURVE",
"604 561 CURVE SMOOTH",
"604 536 OFFCURVE",
"586 512 OFFCURVE",
"563 512 CURVE SMOOTH",
"555 512 OFFCURVE",
"548 515 OFFCURVE",
"541 518 CURVE",
"516 486 LINE",
"530 476 OFFCURVE",
"546 472 OFFCURVE",
"562 472 CURVE SMOOTH",
"609 472 OFFCURVE",
"641 511 OFFCURVE",
"641 560 CURVE SMOOTH",
"641 661 OFFCURVE",
"527 706 OFFCURVE",
"414 706 CURVE SMOOTH",
"220 706 OFFCURVE",
"56 535 OFFCURVE",
"56 337 CURVE SMOOTH",
"56 140 OFFCURVE",
"210 -22 OFFCURVE",
"408 -22 CURVE SMOOTH"
);
}
);
width = 721;
}
);
leftKerningGroup = O;
rightKerningGroup = C;
unicode = 0043;
userData = {
position = 570;
width = 54;
};
},
{
glyphname = C.ss01;
lastChange = "2019-10-11 08:41:32 +0000";
layers = (
{
anchors = (
{
name = bottom;
position = "{383, -18}";
},
{
name = top;
position = "{383, 711}";
}
);
layerId = "873CAA12-270D-4223-A88E-AE8E101FDBE8";
paths = (
{
closed = 1;
nodes = (
"510 -17 OFFCURVE",
"619 35 OFFCURVE",
"683 132 CURVE",
"634 166 LINE",
"586 92 OFFCURVE",
"498 44 OFFCURVE",
"400 44 CURVE SMOOTH",
"236 44 OFFCURVE",
"111 180 OFFCURVE",
"111 333 CURVE SMOOTH",
"111 492 OFFCURVE",
"243 645 OFFCURVE",
"398 645 CURVE SMOOTH",
"449 645 OFFCURVE",
"573 633 OFFCURVE",
"578 531 CURVE",
"638 531 LINE",
"632 680 OFFCURVE",
"481 705 OFFCURVE",
"403 705 CURVE SMOOTH",
"214 705 OFFCURVE",
"51 533 OFFCURVE",
"51 336 CURVE SMOOTH",
"51 145 OFFCURVE",
"203 -17 OFFCURVE",
"399 -17 CURVE SMOOTH"
);
}
);
width = 712;
},
{
anchors = (
{
name = bottom;
position = "{382, -7}";
},
{
name = top;
position = "{382, 701}";
}
);
layerId = "0CAF3BED-C4AC-4024-B3E1-4C69D1EF7EC0";
paths = (
{
closed = 1;
nodes = (
"508 -17 OFFCURVE",
"624 30 OFFCURVE",
"690 136 CURVE",
"623 182 LINE",
"575 102 OFFCURVE",
"491 59 OFFCURVE",
"399 59 CURVE SMOOTH",
"246 59 OFFCURVE",
"129 186 OFFCURVE",
"129 334 CURVE SMOOTH",
"129 489 OFFCURVE",
"254 631 OFFCURVE",
"397 631 CURVE SMOOTH",
"454 631 OFFCURVE",
"566 616 OFFCURVE",
"562 520 CURVE",
"641 520 LINE",
"644 680 OFFCURVE",
"488 707 OFFCURVE",
"402 707 CURVE SMOOTH",
"213 707 OFFCURVE",
"49 538 OFFCURVE",
"49 337 CURVE SMOOTH",
"49 142 OFFCURVE",
"203 -17 OFFCURVE",
"398 -17 CURVE SMOOTH"
);
}
);
width = 717;
},
{
anchors = (
{
name = bottom;
position = "{387, -27}";
},
{
name = top;
position = "{387, 721}";
}
);
layerId = "49C16FD3-6177-408B-A733-AEB3898BB77C";
paths = (
{
closed = 1;
nodes = (
"510 -20 OFFCURVE",
"615 24 OFFCURVE",
"682 119 CURVE",
"648 142 LINE",
"595 67 OFFCURVE",
"503 20 OFFCURVE",
"406 20 CURVE SMOOTH",
"231 20 OFFCURVE",
"99 167 OFFCURVE",
"99 334 CURVE SMOOTH",
"99 507 OFFCURVE",
"239 669 OFFCURVE",
"404 669 CURVE SMOOTH",
"461 669 OFFCURVE",
"586 654 OFFCURVE",
"598 552 CURVE",
"639 552 LINE",
"627 684 OFFCURVE",
"493 709 OFFCURVE",
"409 709 CURVE SMOOTH",
"218 709 OFFCURVE",
"57 540 OFFCURVE",
"57 337 CURVE SMOOTH",
"57 140 OFFCURVE",
"207 -20 OFFCURVE",
"405 -20 CURVE SMOOTH"
);
}
);
width = 716;
}
);
leftKerningGroup = O;
rightKerningGroup = C;
userData = {
position = 570;
width = 54;
};
},
{
glyphname = C.swsh;
lastChange = "2019-10-11 08:41:30 +0000";
layers = (
{
anchors = (
{
name = bottom;
position = "{408, 0}";
},
{
name = top;
position = "{399, 684}";
}
);
layerId = "873CAA12-270D-4223-A88E-AE8E101FDBE8";
paths = (
{
closed = 1;
nodes = (
"520 -22 OFFCURVE",
"643 36 OFFCURVE",
"694 145 CURVE",
"643 168 LINE",
"606 85 OFFCURVE",
"509 32 OFFCURVE",
"407 32 CURVE SMOOTH",
"240 32 OFFCURVE",
"112 172 OFFCURVE",
"112 347 CURVE SMOOTH",
"112 504 OFFCURVE",
"244 652 OFFCURVE",
"398 652 CURVE SMOOTH",
"473 652 OFFCURVE",
"574 619 OFFCURVE",
"574 551 CURVE SMOOTH",
"574 527 OFFCURVE",
"559 508 OFFCURVE",
"540 508 CURVE SMOOTH",
"527 508 OFFCURVE",
"520 514 OFFCURVE",
"508 527 CURVE",
"461 499 LINE",
"476 474 OFFCURVE",
"506 453 OFFCURVE",
"541 453 CURVE SMOOTH",
"590 453 OFFCURVE",
"628 496 OFFCURVE",
"628 550 CURVE SMOOTH",
"628 648 OFFCURVE",
"517 705 OFFCURVE",
"406 707 CURVE SMOOTH",
"212 710 OFFCURVE",
"52 534 OFFCURVE",
"52 348 CURVE SMOOTH",
"52 144 OFFCURVE",
"201 -22 OFFCURVE",
"408 -22 CURVE SMOOTH"
);
}
);
width = 721;
},
{
anchors = (
{
name = bottom;
position = "{384, -9}";
},
{
name = top;
position = "{384, 703}";
}
);
layerId = "0CAF3BED-C4AC-4024-B3E1-4C69D1EF7EC0";
paths = (
{
closed = 1;
nodes = (
"511 -16 OFFCURVE",
"627 32 OFFCURVE",
"693 139 CURVE",
"626 184 LINE",
"580 106 OFFCURVE",
"495 60 OFFCURVE",
"401 60 CURVE SMOOTH",
"249 60 OFFCURVE",
"129 184 OFFCURVE",
"129 337 CURVE SMOOTH",
"129 493 OFFCURVE",
"257 630 OFFCURVE",
"407 630 CURVE SMOOTH",
"470 630 OFFCURVE",
"564 604 OFFCURVE",
"564 552 CURVE SMOOTH",
"564 539 OFFCURVE",
"554 528 OFFCURVE",
"543 528 CURVE SMOOTH",
"536 528 OFFCURVE",
"526 532 OFFCURVE",
"521 539 CURVE",
"473 478 LINE",
"491 460 OFFCURVE",
"519 447 OFFCURVE",
"549 447 CURVE SMOOTH",
"600 447 OFFCURVE",
"644 494 OFFCURVE",
"644 551 CURVE SMOOTH",
"644 661 OFFCURVE",
"517 706 OFFCURVE",
"406 706 CURVE SMOOTH",
"213 706 OFFCURVE",
"49 536 OFFCURVE",
"49 337 CURVE SMOOTH",
"49 141 OFFCURVE",
"206 -16 OFFCURVE",
"400 -16 CURVE SMOOTH"
);
}
);
width = 721;
},
{
anchors = (
{
name = bottom;
position = "{377, 0}";
},
{
name = top;
position = "{389, 684}";
}
);
layerId = "49C16FD3-6177-408B-A733-AEB3898BB77C";
paths = (
{
closed = 1;
nodes = (
"513 -21 OFFCURVE",
"636 33 OFFCURVE",
"686 140 CURVE",
"647 157 LINE",
"614 85 OFFCURVE",
"533 18 OFFCURVE",
"396 19 CURVE SMOOTH",
"254 20 OFFCURVE",
"98 149 OFFCURVE",
"98 343 CURVE SMOOTH",
"98 508 OFFCURVE",
"240 657 OFFCURVE",
"400 657 CURVE SMOOTH",
"481 657 OFFCURVE",
"578 621 OFFCURVE",
"578 548 CURVE SMOOTH",
"578 521 OFFCURVE",
"562 500 OFFCURVE",
"538 500 CURVE SMOOTH",
"525 500 OFFCURVE",
"508 510 OFFCURVE",
"501 523 CURVE",
"465 501 LINE",
"483 471 OFFCURVE",
"510 458 OFFCURVE",
"537 458 CURVE SMOOTH",
"579 458 OFFCURVE",
"620 492 OFFCURVE",
"620 546 CURVE SMOOTH",
"620 639 OFFCURVE",
"512 697 OFFCURVE",
"401 697 CURVE SMOOTH",
"217 697 OFFCURVE",
"56 536 OFFCURVE",
"56 344 CURVE SMOOTH",
"56 159 OFFCURVE",
"197 -21 OFFCURVE",
"397 -21 CURVE SMOOTH"
);
}
);
width = 718;
}
);
leftKerningGroup = O;
rightKerningGroup = C;
userData = {
position = 570;
width = 54;
};
},
{
glyphname = D;
lastChange = "2019-10-11 08:41:29 +0000";
layers = (
{
anchors = (
{
name = bottom;
position = "{398, 0}";
},
{
name = center;
position = "{215, 367}";
},
{
name = top;
position = "{416, 684}";
}
);
layerId = "873CAA12-270D-4223-A88E-AE8E101FDBE8";
paths = (
{
closed = 1;
nodes = (
"631 -8 OFFCURVE",
"747 126 OFFCURVE",
"747 339 CURVE SMOOTH",
"747 539 OFFCURVE",
"617 685 OFFCURVE",
"430 689 CURVE",
"131 690 LINE SMOOTH",
"100 690 OFFCURVE",
"76 677 OFFCURVE",
"58 659 CURVE SMOOTH",
"35 637 OFFCURVE",
"27 612 OFFCURVE",
"27 585 CURVE",
"83 585 LINE",
"83 591 OFFCURVE",
"84 606 OFFCURVE",
"96 618 CURVE SMOOTH",
"108 630 OFFCURVE",
"129 633 OFFCURVE",
"152 633 CURVE",
"152 0 LINE",
"199 -5 LINE SMOOTH",
"209 -6 OFFCURVE",
"293 -8 OFFCURVE",
"347 -8 CURVE SMOOTH"
);
},
{
closed = 1;
nodes = (
"314 48 OFFCURVE",
"237 52 OFFCURVE",
"212 53 CURVE",
"212 633 LINE",
"420 633 LINE",
"583 633 OFFCURVE",
"687 512 OFFCURVE",
"687 338 CURVE SMOOTH",
"687 149 OFFCURVE",
"569 48 OFFCURVE",
"349 48 CURVE SMOOTH"
);
}
);
width = 801;
},
{
anchors = (
{
name = bottom;
position = "{397, 0}";
},
{
name = center;
position = "{230, 367}";
},
{
name = top;
position = "{415, 675}";
}
);
layerId = "0CAF3BED-C4AC-4024-B3E1-4C69D1EF7EC0";
paths = (
{
closed = 1;
nodes = (
"626 -9 OFFCURVE",
"748 111 OFFCURVE",
"748 342 CURVE SMOOTH",
"748 538 OFFCURVE",
"626 684 OFFCURVE",
"429 691 CURVE",
"138 692 LINE SMOOTH",
"110 692 OFFCURVE",
"84 681 OFFCURVE",
"59 659 CURVE SMOOTH",
"31 632 OFFCURVE",
"24 594 OFFCURVE",
"26 567 CURVE",
"104 567 LINE",
"104 584 OFFCURVE",
"106 594 OFFCURVE",
"113 602 CURVE SMOOTH",
"120 610 OFFCURVE",
"132 613 OFFCURVE",
"147 614 CURVE",
"147 1 LINE",
"204 -5 LINE SMOOTH",
"213 -6 OFFCURVE",
"315 -9 OFFCURVE",
"358 -9 CURVE SMOOTH"
);
},
{
closed = 1;
nodes = (
"335 66 OFFCURVE",
"265 69 OFFCURVE",
"229 71 CURVE",
"229 615 LINE",
"418 615 LINE",
"575 615 OFFCURVE",
"666 504 OFFCURVE",
"666 342 CURVE SMOOTH",
"666 176 OFFCURVE",
"584 66 OFFCURVE",
"371 66 CURVE SMOOTH"
);
}
);
width = 801;
},
{
anchors = (
{
name = bottom;
position = "{401, 0}";
},
{
name = center;
position = "{197, 367}";
},
{
name = top;
position = "{414, 694}";
}
);
layerId = "49C16FD3-6177-408B-A733-AEB3898BB77C";
paths = (
{
closed = 1;
nodes = (
"591 -8 OFFCURVE",
"743 91 OFFCURVE",
"743 331 CURVE SMOOTH",
"743 543 OFFCURVE",
"605 684 OFFCURVE",
"428 690 CURVE",
"127 691 LINE SMOOTH",
"100 691 OFFCURVE",
"79 682 OFFCURVE",
"58 661 CURVE SMOOTH",
"36 639 OFFCURVE",
"31 617 OFFCURVE",
"30 601 CURVE",
"70 601 LINE",
"70 611 OFFCURVE",
"77 624 OFFCURVE",
"85 632 CURVE SMOOTH",
"98 645 OFFCURVE",
"121 653 OFFCURVE",
"153 651 CURVE",
"153 0 LINE",
"192 -4 LINE SMOOTH",
"203 -5 OFFCURVE",
"251 -8 OFFCURVE",
"303 -8 CURVE SMOOTH"
);
},
{
closed = 1;
nodes = (
"281 32 OFFCURVE",
"241 33 OFFCURVE",
"195 36 CURVE",
"195 650 LINE",
"418 650 LINE",
"594 638 OFFCURVE",
"701 521 OFFCURVE",
"701 333 CURVE SMOOTH",
"701 141 OFFCURVE",
"587 32 OFFCURVE",
"321 32 CURVE SMOOTH"
);
}
);
width = 802;
}
);
leftKerningGroup = E;
rightKerningGroup = O;
unicode = 0044;
userData = {
position = 674;
width = 60;
};
},
{
glyphname = D.ss01;
lastChange = "2019-10-11 08:41:32 +0000";
layers = (
{
anchors = (
{
name = bottom;
position = "{376, 0}";
},
{
name = center;
position = "{155, 341}";
},
{
name = top;
position = "{378, 689}";
}
);
layerId = "873CAA12-270D-4223-A88E-AE8E101FDBE8";
paths = (
{
closed = 1;
nodes = (
"353 -10 LINE SMOOTH",
"556 -10 OFFCURVE",
"695 132 OFFCURVE",
"695 341 CURVE SMOOTH",
"695 535 OFFCURVE",
"571 677 OFFCURVE",
"378 689 CURVE",
"100 690 LINE",
"100 633 LINE",
"368 633 LINE",
"534 624 OFFCURVE",
"635 515 OFFCURVE",
"635 338 CURVE SMOOTH",
"635 161 OFFCURVE",
"533 45 OFFCURVE",
"315 45 CURVE SMOOTH",
"275 45 OFFCURVE",
"190 49 OFFCURVE",
"160 50 CURVE",
"160 655 LINE",
"100 655 LINE",
"100 0 LINE",
"147 -4 LINE SMOOTH",
"230 -11 OFFCURVE",
"251 -10 OFFCURVE",
"296 -10 CURVE SMOOTH"
);
}
);
width = 748;
},
{
anchors = (
{
name = bottom;
position = "{349, -10}";
},
{
name = center;
position = "{179, 367}";
},
{
name = top;
position = "{379, 691}";
}
);
layerId = "0CAF3BED-C4AC-4024-B3E1-4C69D1EF7EC0";
paths = (
{
closed = 1;
nodes = (
"349 -10 LINE SMOOTH",
"551 -10 OFFCURVE",
"697 134 OFFCURVE",
"697 342 CURVE SMOOTH",
"697 534 OFFCURVE",
"571 679 OFFCURVE",
"379 691 CURVE",
"97 692 LINE",
"97 615 LINE",
"368 615 LINE",
"522 607 OFFCURVE",
"615 504 OFFCURVE",
"615 339 CURVE SMOOTH",
"615 174 OFFCURVE",
"521 65 OFFCURVE",
"317 65 CURVE SMOOTH",
"283 65 OFFCURVE",
"214 68 OFFCURVE",
"179 70 CURVE",
"179 658 LINE",
"97 658 LINE",
"97 1 LINE",
"153 -4 LINE SMOOTH",
"231 -11 OFFCURVE",
"254 -10 OFFCURVE",
"299 -10 CURVE SMOOTH"
);
}
);
width = 747;
},
{
anchors = (
{
name = bottom;
position = "{285, -10}";
},
{
name = center;
position = "{125, 357}";
},
{
name = top;
position = "{380, 690}";
}
);
layerId = "49C16FD3-6177-408B-A733-AEB3898BB77C";
paths = (
{
closed = 1;
nodes = (
"359 -9 LINE SMOOTH",
"563 -9 OFFCURVE",
"697 132 OFFCURVE",
"697 342 CURVE SMOOTH",
"697 537 OFFCURVE",
"575 678 OFFCURVE",
"380 690 CURVE",
"105 691 LINE",
"105 651 LINE",
"371 651 LINE",
"545 641 OFFCURVE",
"654 524 OFFCURVE",
"654 339 CURVE SMOOTH",
"654 155 OFFCURVE",
"544 30 OFFCURVE",
"316 30 CURVE SMOOTH",
"271 30 OFFCURVE",
"167 35 OFFCURVE",
"147 35 CURVE",
"147 655 LINE",
"105 655 LINE",
"105 0 LINE",
"146 -3 LINE SMOOTH",
"230 -9 OFFCURVE",
"254 -9 OFFCURVE",
"297 -9 CURVE SMOOTH"
);
}
);
width = 756;
}
);
leftKerningGroup = L;
rightKerningGroup = O;
userData = {
position = 674;
width = 60;
};
},
{
glyphname = D.swsh;
lastChange = "2019-10-11 08:41:30 +0000";
layers = (
{
anchors = (
{
name = bottom;
position = "{400, 0}";
},
{
name = center;
position = "{421, 0}";
},
{
name = top;
position = "{421, 0}";
}
);
layerId = "873CAA12-270D-4223-A88E-AE8E101FDBE8";
paths = (
{
closed = 1;
nodes = (
"405 -10 LINE SMOOTH",
"610 -10 OFFCURVE",
"752 136 OFFCURVE",
"752 341 CURVE SMOOTH",
"752 533 OFFCURVE",
"628 677 OFFCURVE",
"435 689 CURVE",
"136 690 LINE SMOOTH",
"95 690 OFFCURVE",
"32 657 OFFCURVE",
"32 586 CURVE SMOOTH",
"32 548 OFFCURVE",
"50 515 OFFCURVE",
"83 496 CURVE",
"112 544 LINE",
"95 554 OFFCURVE",
"88 568 OFFCURVE",
"88 585 CURVE SMOOTH",
"88 611 OFFCURVE",
"106 630 OFFCURVE",
"132 634 CURVE",
"425 634 LINE",
"581 624 OFFCURVE",
"692 524 OFFCURVE",
"692 336 CURVE SMOOTH",
"692 157 OFFCURVE",
"591 45 OFFCURVE",
"365 45 CURVE SMOOTH",
"328 45 OFFCURVE",
"261 48 OFFCURVE",
"217 50 CURVE",
"217 575 LINE",
"157 575 LINE",
"157 0 LINE",
"204 -4 LINE SMOOTH",
"287 -11 OFFCURVE",
"308 -10 OFFCURVE",
"353 -10 CURVE SMOOTH"
);
}
);
width = 805;
},
{
anchors = (
{
name = bottom;
position = "{404, 0}";
},
{
name = center;
position = "{429, 11}";
},
{
name = top;
position = "{429, 11}";
}
);
layerId = "0CAF3BED-C4AC-4024-B3E1-4C69D1EF7EC0";
paths = (
{
closed = 1;
nodes = (
"413 -10 LINE SMOOTH",
"617 -10 OFFCURVE",
"762 138 OFFCURVE",
"762 342 CURVE SMOOTH",
"762 532 OFFCURVE",
"635 678 OFFCURVE",
"443 690 CURVE",
"142 691 LINE SMOOTH",
"100 691 OFFCURVE",
"30 655 OFFCURVE",
"30 580 CURVE SMOOTH",
"30 536 OFFCURVE",
"54 495 OFFCURVE",
"95 477 CURVE",
"136 543 LINE",
"114 553 OFFCURVE",
"108 562 OFFCURVE",
"108 579 CURVE SMOOTH",
"108 597 OFFCURVE",
"121 611 OFFCURVE",
"140 614 CURVE",
"432 614 LINE",
"577 605 OFFCURVE",
"680 517 OFFCURVE",
"680 342 CURVE SMOOTH",
"680 175 OFFCURVE",
"587 66 OFFCURVE",
"375 66 CURVE SMOOTH",
"342 66 OFFCURVE",
"285 69 OFFCURVE",
"243 71 CURVE",
"243 569 LINE",
"161 569 LINE",
"161 1 LINE",
"218 -4 LINE SMOOTH",
"299 -11 OFFCURVE",
"317 -10 OFFCURVE",
"363 -10 CURVE SMOOTH"
);
}
);
width = 812;
},
{
anchors = (
{
name = bottom;
position = "{409, 0}";
},
{
name = center;
position = "{427, -8}";
},
{
name = top;
position = "{427, -8}";
}
);
layerId = "49C16FD3-6177-408B-A733-AEB3898BB77C";
paths = (
{
closed = 1;
nodes = (
"421 -9 LINE SMOOTH",
"609 -9 OFFCURVE",
"758 122 OFFCURVE",
"758 342 CURVE SMOOTH",
"758 535 OFFCURVE",
"643 682 OFFCURVE",
"441 690 CURVE",
"135 691 LINE SMOOTH",
"95 691 OFFCURVE",
"37 660 OFFCURVE",
"37 593 CURVE SMOOTH",
"37 559 OFFCURVE",
"51 531 OFFCURVE",
"78 513 CURVE",
"98 548 LINE",
"84 559 OFFCURVE",
"77 575 OFFCURVE",
"77 592 CURVE SMOOTH",
"77 623 OFFCURVE",
"101 647 OFFCURVE",
"131 651 CURVE",
"431 651 LINE",
"594 640 OFFCURVE",
"716 535 OFFCURVE",
"716 349 CURVE SMOOTH",
"716 161 OFFCURVE",
"607 30 OFFCURVE",
"393 30 CURVE SMOOTH",
"352 30 OFFCURVE",
"248 33 OFFCURVE",
"207 35 CURVE",
"207 573 LINE",
"165 573 LINE",
"165 0 LINE",
"205 -3 LINE SMOOTH",
"290 -9 OFFCURVE",
"314 -9 OFFCURVE",
"357 -9 CURVE SMOOTH"
);
}
);
width = 817;
}
);
leftKerningGroup = Swash;
rightKerningGroup = O;
userData = {
position = 674;
width = 60;
};
},
{
glyphname = E;
lastChange = "2019-10-11 08:41:32 +0000";
layers = (
{
anchors = (
{
name = bottom;
position = "{372, 0}";
},
{
name = ogonek;
position = "{590, 1}";
},
{
name = top;
position = "{361, 684}";
},
{
name = topleft;
position = "{24, 684}";
}
);
layerId = "873CAA12-270D-4223-A88E-AE8E101FDBE8";
paths = (
{
closed = 1;
nodes = (
"590 0 LINE",
"590 56 LINE",
"202 56 LINE",
"202 334 LINE",
"470 334 LINE",
"470 390 LINE",
"202 390 LINE",
"202 628 LINE",
"590 628 LINE",
"590 684 LINE",
"129 684 LINE SMOOTH",
"99 684 OFFCURVE",
"75 671 OFFCURVE",
"56 652 CURVE SMOOTH",
"37 633 OFFCURVE",
"26 608 OFFCURVE",
"26 579 CURVE",
"82 579 LINE",
"82 592 OFFCURVE",
"88 606 OFFCURVE",
"96 614 CURVE SMOOTH",
"106 624 OFFCURVE",
"116 628 OFFCURVE",
"142 628 CURVE",
"142 0 LINE"
);
}
);
width = 630;
},
{
anchors = (
{
name = bottom;
position = "{373, 11}";
},
{
name = ogonek;
position = "{596, -1}";
},
{
name = top;
position = "{363, 684}";
},
{
name = topleft;
position = "{22, 684}";
}
);
layerId = "0CAF3BED-C4AC-4024-B3E1-4C69D1EF7EC0";
paths = (
{
closed = 1;
nodes = (
"596 -1 LINE",
"596 75 LINE",
"220 75 LINE",
"220 325 LINE",
"480 325 LINE",
"480 401 LINE",
"220 401 LINE",
"220 610 LINE",
"596 610 LINE",
"596 686 LINE",
"137 686 LINE SMOOTH",
"80 686 OFFCURVE",
"26 637 OFFCURVE",
"26 574 CURVE SMOOTH",
"26 569 OFFCURVE",
"27 565 OFFCURVE",
"27 561 CURVE",
"105 561 LINE",
"104 565 OFFCURVE",
"103 569 OFFCURVE",
"103 573 CURVE SMOOTH",
"103 588 OFFCURVE",
"115 608 OFFCURVE",
"138 608 CURVE",
"138 -1 LINE"
);
}
);
width = 638;
},
{
anchors = (
{
name = bottom;
position = "{376, -8}";
},
{
name = ogonek;
position = "{590, 1}";
},
{
name = top;
position = "{365, 693}";
},
{
name = topleft;
position = "{47, 684}";
}
);
layerId = "49C16FD3-6177-408B-A733-AEB3898BB77C";
paths = (
{
closed = 1;
nodes = (
"588 1 LINE",
"588 41 LINE",
"192 41 LINE",
"192 344 LINE",
"465 344 LINE",
"465 384 LINE",
"192 384 LINE",
"192 645 LINE",
"588 645 LINE",
"588 685 LINE",
"127 685 LINE SMOOTH",
"103 685 OFFCURVE",
"80 676 OFFCURVE",
"60 658 CURVE SMOOTH",
"45 644 OFFCURVE",
"32 621 OFFCURVE",
"31 595 CURVE",
"71 595 LINE",
"73 606 OFFCURVE",
"77 619 OFFCURVE",
"88 629 CURVE SMOOTH",
"101 641 OFFCURVE",
"114 645 OFFCURVE",
"150 645 CURVE",
"150 1 LINE"
);
}
);
width = 629;
}
);
leftKerningGroup = E;
rightKerningGroup = E;
unicode = 0045;
userData = {
position = 130;
width = 61;
};
},
{
glyphname = E.ss01;
lastChange = "2019-10-11 08:41:30 +0000";
layers = (
{
anchors = (
{
name = bottom;
position = "{349, 0}";
},
{
name = ogonek;
position = "{569, 0}";
},
{
name = top;
position = "{344, 684}";
},
{
name = topleft;
position = "{35, 684}";
}
);
layerId = "873CAA12-270D-4223-A88E-AE8E101FDBE8";
paths = (
{
closed = 1;
nodes = (
"569 0 LINE",
"569 56 LINE",
"160 56 LINE",
"160 334 LINE",
"449 334 LINE",
"449 390 LINE",
"160 390 LINE",
"160 628 LINE",
"549 628 LINE",
"549 684 LINE",
"100 684 LINE",
"100 0 LINE"
);
}
);
width = 605;
},
{
anchors = (
{
name = bottom;
position = "{333, 0}";
},
{
name = ogonek;
position = "{574, -1}";
},
{
name = top;
position = "{335, 685}";
},
{
name = topleft;
position = "{31, 684}";
}
);
layerId = "0CAF3BED-C4AC-4024-B3E1-4C69D1EF7EC0";
paths = (
{
closed = 1;
nodes = (
"574 -1 LINE",
"574 75 LINE",
"177 75 LINE",
"177 325 LINE",
"458 325 LINE",
"458 401 LINE",
"177 401 LINE",
"177 610 LINE",
"555 610 LINE",
"555 686 LINE",
"97 686 LINE",
"97 -1 LINE"
);
}
);
width = 611;
},
{
anchors = (
{
name = bottom;
position = "{302, -7}";
},
{
name = ogonek;
position = "{551, 5}";
},
{
name = top;
position = "{349, 687}";
},
{
name = topleft;
position = "{39, 684}";
}
);
layerId = "49C16FD3-6177-408B-A733-AEB3898BB77C";
paths = (
{
closed = 1;
nodes = (
"567 1 LINE",
"567 41 LINE",
"147 41 LINE",
"147 344 LINE",
"444 344 LINE",
"444 384 LINE",
"147 384 LINE",
"147 645 LINE",
"547 645 LINE",
"547 685 LINE",
"105 685 LINE",
"105 1 LINE"
);
}
);
width = 604;
}
);
leftKerningGroup = L;
rightKerningGroup = E;
userData = {
position = 95;
width = 61;
};
},
{
glyphname = E.swsh;
lastChange = "2019-10-11 08:41:27 +0000";
layers = (
{
anchors = (
{
name = bottom;
position = "{342, 0}";
},
{
name = ogonek;
position = "{596, 0}";
},
{
name = top;
position = "{342, 0}";
},
{
name = topleft;
position = "{25, 684}";
}
);
layerId = "873CAA12-270D-4223-A88E-AE8E101FDBE8";
paths = (
{
closed = 1;
nodes = (
"596 0 LINE",
"596 56 LINE",
"208 56 LINE",
"208 334 LINE",
"476 334 LINE",
"476 390 LINE",
"208 390 LINE",
"208 572 LINE",
"148 572 LINE",
"148 0 LINE"
);
},
{
closed = 1;
nodes = (
"111 537 LINE",
"97 545 OFFCURVE",
"88 560 OFFCURVE",
"88 578 CURVE SMOOTH",
"88 607 OFFCURVE",
"110 628 OFFCURVE",
"136 628 CURVE SMOOTH",
"596 628 LINE",
"596 684 LINE",
"135 684 LINE SMOOTH",
"91 684 OFFCURVE",
"32 647 OFFCURVE",
"32 578 CURVE SMOOTH",
"32 541 OFFCURVE",
"49 508 OFFCURVE",
"82 489 CURVE"
);
}
);
width = 636;
},
{
anchors = (
{
name = bottom;
position = "{352, 11}";
},
{
name = ogonek;
position = "{610, -1}";
},
{
name = top;
position = "{352, 11}";
},
{
name = topleft;
position = "{23, 684}";
}
);
layerId = "0CAF3BED-C4AC-4024-B3E1-4C69D1EF7EC0";
paths = (
{
closed = 1;
nodes = (
"610 0 LINE",
"610 76 LINE",
"234 76 LINE",
"234 325 LINE",
"494 325 LINE",
"494 401 LINE",
"234 401 LINE",
"234 569 LINE",
"152 569 LINE",
"152 0 LINE"
);
},
{
closed = 1;
nodes = (
"135 537 LINE",
"117 543 OFFCURVE",
"108 553 OFFCURVE",
"108 572 CURVE SMOOTH",
"108 593 OFFCURVE",
"124 609 OFFCURVE",
"142 609 CURVE SMOOTH",
"610 609 LINE",
"610 685 LINE",
"141 685 LINE SMOOTH",
"95 685 OFFCURVE",
"30 645 OFFCURVE",
"30 572 CURVE SMOOTH",
"30 529 OFFCURVE",
"53 489 OFFCURVE",
"94 470 CURVE"
);
}
);
width = 653;
},
{
anchors = (
{
name = bottom;
position = "{353, -15}";
},
{
name = ogonek;
position = "{597, 1}";
},
{
name = top;
position = "{353, -15}";
},
{
name = topleft;
position = "{46, 684}";
}
);
layerId = "49C16FD3-6177-408B-A733-AEB3898BB77C";
paths = (
{
closed = 1;
nodes = (
"597 0 LINE",
"597 40 LINE",
"198 40 LINE",
"198 344 LINE",
"474 344 LINE",
"474 384 LINE",
"198 384 LINE",
"198 570 LINE",
"156 570 LINE",
"156 0 LINE"
);
},
{
closed = 1;
nodes = (
"97 540 LINE",
"86 550 OFFCURVE",
"77 566 OFFCURVE",
"77 584 CURVE SMOOTH",
"77 617 OFFCURVE",
"105 644 OFFCURVE",
"135 644 CURVE SMOOTH",
"597 644 LINE",
"597 684 LINE",
"134 684 LINE SMOOTH",
"92 684 OFFCURVE",
"37 649 OFFCURVE",
"37 584 CURVE SMOOTH",
"37 551 OFFCURVE",
"50 523 OFFCURVE",
"77 505 CURVE"
);
}
);
width = 638;
}
);
leftKerningGroup = Swash;
rightKerningGroup = E;
userData = {
position = 130;
width = 61;
};
},
{
glyphname = F;
lastChange = "2019-10-11 08:41:31 +0000";
layers = (
{
anchors = (
{
name = bottom;
position = "{309, 0}";
},
{
name = top;
position = "{309, 684}";
}
);
layerId = "873CAA12-270D-4223-A88E-AE8E101FDBE8";
paths = (
{
closed = 1;
nodes = (
"202 -1 LINE",
"202 333 LINE",
"470 333 LINE",
"470 389 LINE",
"202 389 LINE",
"202 627 LINE",
"590 627 LINE",
"590 683 LINE",
"129 683 LINE SMOOTH",
"100 683 OFFCURVE",
"76 671 OFFCURVE",
"56 651 CURVE SMOOTH",
"37 632 OFFCURVE",
"26 607 OFFCURVE",
"26 578 CURVE",
"82 578 LINE",
"82 591 OFFCURVE",
"88 605 OFFCURVE",
"96 613 CURVE SMOOTH",
"106 623 OFFCURVE",
"116 627 OFFCURVE",
"142 627 CURVE",
"142 -1 LINE"
);
}
);
width = 616;
},
{
anchors = (
{
name = bottom;
position = "{311, 0}";
},
{
name = top;
position = "{311, 684}";
}
);
layerId = "0CAF3BED-C4AC-4024-B3E1-4C69D1EF7EC0";
paths = (
{
closed = 1;
nodes = (
"219 -1 LINE",
"219 323 LINE",
"479 323 LINE",
"479 400 LINE",
"219 400 LINE",
"219 609 LINE",
"595 609 LINE",
"595 685 LINE",
"136 685 LINE SMOOTH",
"106 685 OFFCURVE",
"78 672 OFFCURVE",
"57 651 CURVE SMOOTH",
"29 622 OFFCURVE",
"26 598 OFFCURVE",
"26 560 CURVE",
"104 560 LINE",
"101 572 OFFCURVE",
"102 586 OFFCURVE",
"113 597 CURVE SMOOTH",
"120 604 OFFCURVE",
"126 607 OFFCURVE",
"137 607 CURVE",
"137 -1 LINE"
);
}
);
width = 621;
},
{
anchors = (
{
name = bottom;
position = "{305, 0}";
},
{
name = top;
position = "{305, 684}";
}
);
layerId = "49C16FD3-6177-408B-A733-AEB3898BB77C";
paths = (
{
closed = 1;
nodes = (
"187 0 LINE",
"187 343 LINE",
"463 343 LINE",
"463 383 LINE",
"187 383 LINE",
"187 644 LINE",
"585 644 LINE",
"585 684 LINE",
"122 684 LINE SMOOTH",
"102 684 OFFCURVE",
"81 676 OFFCURVE",
"59 654 CURVE SMOOTH",
"42 637 OFFCURVE",
"32 619 OFFCURVE",
"31 594 CURVE",
"71 594 LINE",
"71 605 OFFCURVE",
"79 620 OFFCURVE",
"87 627 CURVE SMOOTH",
"100 639 OFFCURVE",
"115 645 OFFCURVE",
"145 645 CURVE",
"145 0 LINE"
);
}
);
width = 614;
}
);
leftKerningGroup = E;
rightKerningGroup = F;
unicode = 0046;
userData = {
position = 129;
width = 61;
};
},
{
glyphname = F.ss01;
lastChange = "2019-10-11 08:41:28 +0000";
layers = (
{
anchors = (
{
name = bottom;
position = "{293, 0}";
},
{
name = top;
position = "{293, 684}";
}
);
layerId = "873CAA12-270D-4223-A88E-AE8E101FDBE8";
paths = (
{
closed = 1;
nodes = (
"161 0 LINE",
"161 325 LINE",
"458 325 LINE",
"458 382 LINE",
"161 382 LINE",
"161 627 LINE",
"548 627 LINE",
"548 684 LINE",
"100 684 LINE",
"100 0 LINE"
);
}
);
width = 574;
},
{
anchors = (
{
name = bottom;
position = "{296, 0}";
},
{
name = top;
position = "{296, 684}";
}
);
layerId = "0CAF3BED-C4AC-4024-B3E1-4C69D1EF7EC0";
paths = (
{
closed = 1;
nodes = (
"179 -1 LINE",
"179 315 LINE",
"467 315 LINE",
"467 393 LINE",
"179 393 LINE",
"179 608 LINE",
"555 608 LINE",
"555 686 LINE",
"97 686 LINE",
"97 -1 LINE"
);
}
);
width = 581;
},
{
anchors = (
{
name = bottom;
position = "{285, 0}";
},
{
name = top;
position = "{285, 684}";
}
);
layerId = "49C16FD3-6177-408B-A733-AEB3898BB77C";
paths = (
{
closed = 1;
nodes = (
"150 1 LINE",
"150 335 LINE",
"455 335 LINE",
"455 374 LINE",
"150 374 LINE",
"150 644 LINE",
"547 644 LINE",
"547 685 LINE",
"105 685 LINE",
"105 1 LINE"
);
}
);
width = 576;
}
);
leftKerningGroup = L;
rightKerningGroup = F;
userData = {
position = 95;
width = 61;
};
},
{
color = 1;
glyphname = F.swsh;
lastChange = "2019-10-11 08:41:28 +0000";
layers = (
{
layerId = "873CAA12-270D-4223-A88E-AE8E101FDBE8";
paths = (
{
closed = 1;
nodes = (
"209 -1 LINE",
"209 333 LINE",
"476 333 LINE",
"476 389 LINE",
"209 389 LINE",
"209 571 LINE",
"148 571 LINE",
"148 -1 LINE"
);
},
{
closed = 1;
nodes = (
"111 536 LINE",
"97 544 OFFCURVE",
"88 559 OFFCURVE",
"88 577 CURVE SMOOTH",
"88 606 OFFCURVE",
"110 627 OFFCURVE",
"136 627 CURVE SMOOTH",
"596 627 LINE",
"596 683 LINE",
"135 683 LINE SMOOTH",
"109 683 OFFCURVE",
"81 671 OFFCURVE",
"62 652 CURVE SMOOTH",
"46 636 OFFCURVE",
"32 608 OFFCURVE",
"32 576 CURVE SMOOTH",
"32 541 OFFCURVE",
"49 507 OFFCURVE",
"82 488 CURVE"
);
}
);
width = 622;
},
{
layerId = "0CAF3BED-C4AC-4024-B3E1-4C69D1EF7EC0";
paths = (
{
closed = 1;
nodes = (
"235 -1 LINE",
"235 324 LINE",
"494 324 LINE",
"494 400 LINE",
"235 400 LINE",
"235 572 LINE",
"152 572 LINE",
"152 -1 LINE"
);
},
{
closed = 1;
nodes = (
"135 536 LINE",
"117 542 OFFCURVE",
"108 552 OFFCURVE",
"108 571 CURVE SMOOTH",
"108 592 OFFCURVE",
"124 608 OFFCURVE",
"142 608 CURVE SMOOTH",
"610 608 LINE",
"610 684 LINE",
"142 684 LINE SMOOTH",
"114 684 OFFCURVE",
"82 671 OFFCURVE",
"62 651 CURVE SMOOTH",
"45 634 OFFCURVE",
"30 604 OFFCURVE",
"30 570 CURVE SMOOTH",
"30 530 OFFCURVE",
"53 487 OFFCURVE",
"95 469 CURVE"
);
}
);
width = 636;
},
{
layerId = "49C16FD3-6177-408B-A733-AEB3898BB77C";
paths = (
{
closed = 1;
nodes = (
"198 0 LINE",
"198 343 LINE",
"474 343 LINE",
"474 383 LINE",
"198 383 LINE",
"198 569 LINE",
"156 569 LINE",
"156 0 LINE"
);
},
{
closed = 1;
nodes = (
"97 540 LINE",
"86 550 OFFCURVE",
"77 565 OFFCURVE",
"77 584 CURVE SMOOTH",
"77 617 OFFCURVE",
"105 644 OFFCURVE",
"135 644 CURVE SMOOTH",
"597 644 LINE",
"597 684 LINE",
"134 684 LINE SMOOTH",
"108 684 OFFCURVE",
"81 670 OFFCURVE",
"66 655 CURVE SMOOTH",
"49 638 OFFCURVE",
"37 611 OFFCURVE",
"37 583 CURVE SMOOTH",
"37 553 OFFCURVE",
"50 523 OFFCURVE",
"77 505 CURVE"
);
}
);
width = 626;
}
);
leftKerningGroup = E.swsh;
rightKerningGroup = F.swsh;
userData = {
position = 129;
width = 61;
};
},
{
glyphname = G;
lastChange = "2019-10-11 08:41:27 +0000";
layers = (
{
anchors = (
{
name = bottom;
position = "{393, -28}";
},
{
name = top;
position = "{397, 699}";
}
);
layerId = "873CAA12-270D-4223-A88E-AE8E101FDBE8";
paths = (
{
closed = 1;
nodes = (
"540 -21 OFFCURVE",
"681 91 OFFCURVE",
"681 261 CURVE",
"681 303 LINE",
"624 303 LINE",
"624 254 LINE",
"624 131 OFFCURVE",
"519 38 OFFCURVE",
"393 35 CURVE SMOOTH",
"242 32 OFFCURVE",
"112 172 OFFCURVE",
"112 328 CURVE SMOOTH",
"112 497 OFFCURVE",
"242 641 OFFCURVE",
"402 643 CURVE SMOOTH",
"464 644 OFFCURVE",
"578 622 OFFCURVE",
"578 555 CURVE SMOOTH",
"578 532 OFFCURVE",
"564 513 OFFCURVE",
"545 513 CURVE SMOOTH",
"539 513 OFFCURVE",
"527 516 OFFCURVE",
"522 521 CURVE",
"494 480 LINE",
"506 468 OFFCURVE",
"525 460 OFFCURVE",
"544 460 CURVE SMOOTH",
"594 460 OFFCURVE",
"632 499 OFFCURVE",
"632 555 CURVE SMOOTH",
"632 664 OFFCURVE",
"486 699 OFFCURVE",
"402 699 CURVE SMOOTH",
"205 699 OFFCURVE",
"52 529 OFFCURVE",
"52 329 CURVE SMOOTH",
"52 139 OFFCURVE",
"200 -21 OFFCURVE",
"393 -21 CURVE SMOOTH"
);
},
{
closed = 1;
nodes = (
"681 286 LINE",
"681 342 LINE",
"381 342 LINE",
"381 286 LINE"
);
}
);
width = 731;
},
{
anchors = (
{
name = bottom;
position = "{396, -16}";
},
{
name = top;
position = "{399, 684}";
}
);
layerId = "0CAF3BED-C4AC-4024-B3E1-4C69D1EF7EC0";
paths = (
{
closed = 1;
nodes = (
"547 -13 OFFCURVE",
"689 104 OFFCURVE",
"689 271 CURVE SMOOTH",
"689 319 LINE",
"606 319 LINE",
"607 269 LINE",
"605 150 OFFCURVE",
"510 63 OFFCURVE",
"396 63 CURVE SMOOTH",
"251 63 OFFCURVE",
"131 176 OFFCURVE",
"131 342 CURVE SMOOTH",
"131 497 OFFCURVE",
"251 620 OFFCURVE",
"405 620 CURVE SMOOTH",
"462 620 OFFCURVE",
"564 599 OFFCURVE",
"564 544 CURVE SMOOTH",
"564 530 OFFCURVE",
"557 518 OFFCURVE",
"543 517 CURVE SMOOTH",
"533 516 OFFCURVE",
"523 523 OFFCURVE",
"517 528 CURVE",
"471 471 LINE",
"489 452 OFFCURVE",
"517 442 OFFCURVE",
"542 442 CURVE SMOOTH",
"597 442 OFFCURVE",
"641 488 OFFCURVE",
"641 547 CURVE SMOOTH",
"641 656 OFFCURVE",
"487 696 OFFCURVE",
"404 696 CURVE SMOOTH",
"211 696 OFFCURVE",
"49 539 OFFCURVE",
"49 343 CURVE SMOOTH",
"49 141 OFFCURVE",
"202 -13 OFFCURVE",
"396 -13 CURVE SMOOTH"
);
},
{
closed = 1;
nodes = (
"689 280 LINE",
"689 356 LINE",
"370 356 LINE",
"370 280 LINE"
);
}
);
width = 737;
},
{
anchors = (
{
name = bottom;
position = "{398, -35}";
},
{
name = top;
position = "{408, 683}";
}
);
layerId = "49C16FD3-6177-408B-A733-AEB3898BB77C";
paths = (
{
closed = 1;
nodes = (
"543 -20 OFFCURVE",
"684 85 OFFCURVE",
"684 253 CURVE",
"684 296 LINE",
"642 296 LINE",
"642 251 LINE",
"642 124 OFFCURVE",
"529 20 OFFCURVE",
"398 20 CURVE SMOOTH",
"233 20 OFFCURVE",
"99 157 OFFCURVE",
"99 329 CURVE SMOOTH",
"99 504 OFFCURVE",
"238 658 OFFCURVE",
"408 658 CURVE SMOOTH",
"472 658 OFFCURVE",
"593 637 OFFCURVE",
"593 563 CURVE SMOOTH",
"593 537 OFFCURVE",
"576 514 OFFCURVE",
"553 514 CURVE SMOOTH",
"543 514 OFFCURVE",
"535 518 OFFCURVE",
"530 524 CURVE",
"504 491 LINE",
"512 482 OFFCURVE",
"530 473 OFFCURVE",
"552 473 CURVE SMOOTH",
"600 473 OFFCURVE",
"634 509 OFFCURVE",
"634 563 CURVE SMOOTH",
"634 669 OFFCURVE",
"492 698 OFFCURVE",
"407 698 CURVE SMOOTH",
"209 698 OFFCURVE",
"57 531 OFFCURVE",
"57 330 CURVE SMOOTH",
"57 138 OFFCURVE",
"204 -20 OFFCURVE",
"398 -20 CURVE SMOOTH"
);
},
{
closed = 1;
nodes = (
"684 293 LINE",
"684 335 LINE",
"393 335 LINE",
"393 293 LINE"
);
}
);
width = 739;
}
);
leftKerningGroup = O;
rightKerningGroup = O;
unicode = 0047;
userData = {
position = 593;
width = 57;
};
},
{
glyphname = G.ss01;
lastChange = "2019-10-11 08:41:28 +0000";
layers = (
{
anchors = (
{
name = bottom;
position = "{394, -28}";
},
{
name = top;
position = "{409, 684}";
}
);
layerId = "873CAA12-270D-4223-A88E-AE8E101FDBE8";
paths = (
{
closed = 1;
nodes = (
"548 -11 OFFCURVE",
"683 103 OFFCURVE",
"683 276 CURVE SMOOTH",
"683 352 LINE",
"626 352 LINE",
"626 264 LINE SMOOTH",
"626 139 OFFCURVE",
"513 45 OFFCURVE",
"397 45 CURVE SMOOTH",
"221 45 OFFCURVE",
"113 160 OFFCURVE",
"113 330 CURVE SMOOTH",
"113 501 OFFCURVE",
"244 641 OFFCURVE",
"407 641 CURVE SMOOTH",
"476 641 OFFCURVE",
"580 611 OFFCURVE",
"580 545 CURVE",
"634 546 LINE",
"634 642 OFFCURVE",
"515 697 OFFCURVE",
"409 697 CURVE SMOOTH",
"214 697 OFFCURVE",
"53 538 OFFCURVE",
"53 330 CURVE SMOOTH",
"53 127 OFFCURVE",
"186 -11 OFFCURVE",
"393 -11 CURVE SMOOTH"
);
},
{
closed = 1;
nodes = (
"683 296 LINE",
"683 352 LINE",
"383 352 LINE",
"383 296 LINE"
);
}
);
width = 731;
},
{
anchors = (
{
name = bottom;
position = "{393, 0}";
},
{
name = top;
position = "{407, 684}";
}
);
layerId = "0CAF3BED-C4AC-4024-B3E1-4C69D1EF7EC0";
paths = (
{
closed = 1;
nodes = (
"546 -11 OFFCURVE",
"685 106 OFFCURVE",
"685 279 CURVE SMOOTH",
"685 363 LINE",
"606 363 LINE",
"606 268 LINE SMOOTH",
"606 154 OFFCURVE",
"500 65 OFFCURVE",
"394 65 CURVE SMOOTH",
"219 65 OFFCURVE",
"132 193 OFFCURVE",
"132 331 CURVE SMOOTH",
"132 481 OFFCURVE",
"254 618 OFFCURVE",
"405 618 CURVE SMOOTH",
"474 618 OFFCURVE",
"567 587 OFFCURVE",
"567 522 CURVE",
"642 523 LINE",
"646 631 OFFCURVE",
"516 694 OFFCURVE",
"407 694 CURVE SMOOTH",
"201 694 OFFCURVE",
"50 533 OFFCURVE",
"50 332 CURVE SMOOTH",
"50 148 OFFCURVE",
"175 -11 OFFCURVE",
"392 -11 CURVE SMOOTH"
);
},
{
closed = 1;
nodes = (
"685 287 LINE",
"685 363 LINE",
"370 363 LINE",
"370 287 LINE"
);
}
);
width = 733;
},
{
anchors = (
{
name = bottom;
position = "{393, 0}";
},
{
name = top;
position = "{408, 684}";
}
);
layerId = "49C16FD3-6177-408B-A733-AEB3898BB77C";
paths = (
{
closed = 1;
nodes = (
"549 -15 OFFCURVE",
"682 97 OFFCURVE",
"682 285 CURVE SMOOTH",
"682 343 LINE",
"640 343 LINE",
"640 273 LINE SMOOTH",
"640 127 OFFCURVE",
"519 25 OFFCURVE",
"398 25 CURVE SMOOTH",
"216 25 OFFCURVE",
"101 154 OFFCURVE",
"101 331 CURVE SMOOTH",
"101 508 OFFCURVE",
"238 656 OFFCURVE",
"408 656 CURVE SMOOTH",
"477 656 OFFCURVE",
"584 625 OFFCURVE",
"591 557 CURVE",
"632 558 LINE",
"626 647 OFFCURVE",
"514 696 OFFCURVE",
"410 696 CURVE SMOOTH",
"214 696 OFFCURVE",
"59 537 OFFCURVE",
"59 332 CURVE SMOOTH",
"59 131 OFFCURVE",
"186 -15 OFFCURVE",
"394 -15 CURVE SMOOTH"
);
},
{
closed = 1;
nodes = (
"682 303 LINE",
"682 343 LINE",
"391 343 LINE",
"391 303 LINE"
);
}
);
width = 734;
}
);
leftKerningGroup = O;
rightKerningGroup = O;
userData = {
position = 593;
width = 57;
};
},
{
glyphname = G.swsh;
lastChange = "2019-10-11 08:41:29 +0000";
layers = (
{
anchors = (
{
name = bottom;
position = "{397, 0}";
},
{
name = top;
position = "{406, 696}";
}
);
layerId = "873CAA12-270D-4223-A88E-AE8E101FDBE8";
paths = (
{
closed = 1;
nodes = (
"635 -263 OFFCURVE",
"687 -231 OFFCURVE",
"687 -168 CURVE SMOOTH",
"687 315 LINE",
"626 315 LINE",
"626 234 LINE",
"610 127 OFFCURVE",
"522 40 OFFCURVE",
"397 40 CURVE SMOOTH",
"241 40 OFFCURVE",
"112 173 OFFCURVE",
"112 338 CURVE SMOOTH",
"112 506 OFFCURVE",
"235 645 OFFCURVE",
"407 645 CURVE SMOOTH",
"469 645 OFFCURVE",
"580 623 OFFCURVE",
"580 558 CURVE SMOOTH",
"580 536 OFFCURVE",
"567 519 OFFCURVE",
"549 519 CURVE SMOOTH",
"543 519 OFFCURVE",
"536 521 OFFCURVE",
"528 527 CURVE",
"491 481 LINE",
"508 468 OFFCURVE",
"528 461 OFFCURVE",
"548 461 CURVE SMOOTH",
"600 461 OFFCURVE",
"638 502 OFFCURVE",
"638 558 CURVE SMOOTH",
"638 669 OFFCURVE",
"490 701 OFFCURVE",
"406 701 CURVE SMOOTH",
"208 701 OFFCURVE",
"52 544 OFFCURVE",
"52 339 CURVE SMOOTH",
"52 144 OFFCURVE",
"203 -16 OFFCURVE",
"397 -16 CURVE SMOOTH",
"490 -16 OFFCURVE",
"571 21 OFFCURVE",
"626 91 CURVE",
"626 -168 LINE",
"624 -184 OFFCURVE",
"614 -200 OFFCURVE",
"592 -200 CURVE SMOOTH",
"579 -200 OFFCURVE",
"570 -194 OFFCURVE",
"565 -184 CURVE",
"513 -219 LINE",
"530 -246 OFFCURVE",
"559 -263 OFFCURVE",
"591 -263 CURVE SMOOTH"
);
}
);
width = 751;
},
{
anchors = (
{
name = bottom;
position = "{399, -16}";
},
{
name = top;
position = "{402, 689}";
}
);
layerId = "0CAF3BED-C4AC-4024-B3E1-4C69D1EF7EC0";
paths = (
{
closed = 1;
nodes = (
"632 -263 OFFCURVE",
"691 -228 OFFCURVE",
"691 -162 CURVE SMOOTH",
"691 317 LINE",
"611 317 LINE",
"611 229 LINE",
"596 126 OFFCURVE",
"514 45 OFFCURVE",
"399 45 CURVE SMOOTH",
"252 45 OFFCURVE",
"132 176 OFFCURVE",
"132 329 CURVE SMOOTH",
"132 487 OFFCURVE",
"237 627 OFFCURVE",
"408 627 CURVE SMOOTH",
"465 627 OFFCURVE",
"566 606 OFFCURVE",
"566 552 CURVE SMOOTH",
"566 536 OFFCURVE",
"557 524 OFFCURVE",
"546 524 CURVE SMOOTH",
"540 524 OFFCURVE",
"536 526 OFFCURVE",
"523 535 CURVE",
"477 476 LINE",
"494 458 OFFCURVE",
"521 449 OFFCURVE",
"545 449 CURVE SMOOTH",
"598 449 OFFCURVE",
"642 493 OFFCURVE",
"642 552 CURVE SMOOTH",
"642 667 OFFCURVE",
"490 703 OFFCURVE",
"407 703 CURVE SMOOTH",
"201 703 OFFCURVE",
"50 537 OFFCURVE",
"50 330 CURVE SMOOTH",
"50 134 OFFCURVE",
"206 -31 OFFCURVE",
"399 -31 CURVE SMOOTH",
"478 -31 OFFCURVE",
"555 -1 OFFCURVE",
"611 59 CURVE",
"611 -161 LINE",
"609 -172 OFFCURVE",
"601 -183 OFFCURVE",
"588 -183 CURVE SMOOTH",
"575 -183 OFFCURVE",
"573 -178 OFFCURVE",
"564 -163 CURVE",
"499 -208 LINE",
"514 -240 OFFCURVE",
"550 -263 OFFCURVE",
"587 -263 CURVE SMOOTH"
);
}
);
width = 753;
},
{
anchors = (
{
name = bottom;
position = "{399, 0}";
},
{
name = top;
position = "{408, 684}";
}
);
layerId = "49C16FD3-6177-408B-A733-AEB3898BB77C";
paths = (
{
closed = 1;
nodes = (
"638 -275 OFFCURVE",
"685 -247 OFFCURVE",
"685 -188 CURVE SMOOTH",
"685 296 LINE",
"641 296 LINE",
"641 231 LINE",
"625 123 OFFCURVE",
"530 19 OFFCURVE",
"399 19 CURVE SMOOTH",
"234 19 OFFCURVE",
"99 157 OFFCURVE",
"99 329 CURVE SMOOTH",
"99 504 OFFCURVE",
"229 661 OFFCURVE",
"409 661 CURVE SMOOTH",
"473 661 OFFCURVE",
"594 637 OFFCURVE",
"594 563 CURVE SMOOTH",
"594 537 OFFCURVE",
"577 514 OFFCURVE",
"554 514 CURVE SMOOTH",
"548 514 OFFCURVE",
"541 516 OFFCURVE",
"534 519 CURVE",
"508 486 LINE",
"522 477 OFFCURVE",
"537 473 OFFCURVE",
"553 473 CURVE SMOOTH",
"601 473 OFFCURVE",
"635 509 OFFCURVE",
"635 563 CURVE SMOOTH",
"635 669 OFFCURVE",
"493 701 OFFCURVE",
"408 701 CURVE SMOOTH",
"210 701 OFFCURVE",
"57 531 OFFCURVE",
"57 330 CURVE SMOOTH",
"57 138 OFFCURVE",
"205 -21 OFFCURVE",
"399 -21 CURVE SMOOTH",
"496 -21 OFFCURVE",
"584 21 OFFCURVE",
"641 109 CURVE",
"641 -188 LINE",
"639 -207 OFFCURVE",
"625 -229 OFFCURVE",
"598 -229 CURVE SMOOTH",
"585 -229 OFFCURVE",
"575 -224 OFFCURVE",
"568 -217 CURVE",
"530 -242 LINE",
"546 -263 OFFCURVE",
"569 -275 OFFCURVE",
"597 -275 CURVE SMOOTH"
);
}
);
width = 751;
}
);
leftKerningGroup = O;
rightKerningGroup = j;
userData = {
position = 593;
width = 57;
};
},
{
glyphname = H;
lastChange = "2019-10-11 08:41:30 +0000";
layers = (
{
anchors = (
{
name = bottom;
position = "{353, 0}";
},
{
name = center;
position = "{392, 500}";
},
{
name = top;
position = "{382, 684}";
},
{
name = topleft;
position = "{20, 684}";
}
);
layerId = "873CAA12-270D-4223-A88E-AE8E101FDBE8";
paths = (
{
closed = 1;
nodes = (
"189 0 LINE",
"189 328 LINE",
"558 328 LINE",
"558 0 LINE",
"618 0 LINE",
"618 684 LINE",
"558 684 LINE",
"558 384 LINE",
"189 384 LINE",
"189 599 LINE SMOOTH",
"189 656 OFFCURVE",
"145 692 OFFCURVE",
"97 692 CURVE SMOOTH",
"65 692 OFFCURVE",
"38 677 OFFCURVE",
"20 651 CURVE",
"67 619 LINE",
"74 630 OFFCURVE",
"89 635 OFFCURVE",
"98 635 CURVE SMOOTH",
"116 635 OFFCURVE",
"129 617 OFFCURVE",
"129 599 CURVE SMOOTH",
"129 0 LINE"
);
}
);
width = 718;
},
{
anchors = (
{
name = bottom;
position = "{357, 0}";
},
{
name = center;
position = "{380, 500}";
},
{
name = top;
position = "{387, 675}";
},
{
name = topleft;
position = "{20, 684}";
}
);
layerId = "0CAF3BED-C4AC-4024-B3E1-4C69D1EF7EC0";
paths = (
{
closed = 1;
nodes = (
"211 -1 LINE",
"211 319 LINE",
"546 319 LINE",
"546 -1 LINE",
"628 -1 LINE",
"628 686 LINE",
"546 686 LINE",
"546 395 LINE",
"211 395 LINE",
"211 589 LINE SMOOTH",
"211 650 OFFCURVE",
"160 691 OFFCURVE",
"109 691 CURVE SMOOTH",
"71 691 OFFCURVE",
"37 669 OFFCURVE",
"19 636 CURVE",
"78 596 LINE",
"86 612 OFFCURVE",
"99 614 OFFCURVE",
"110 613 CURVE SMOOTH",
"122 612 OFFCURVE",
"129 600 OFFCURVE",
"129 589 CURVE SMOOTH",
"129 -1 LINE"
);
}
);
width = 725;
},
{
anchors = (
{
name = bottom;
position = "{372, 0}";
},
{
name = center;
position = "{375, 491}";
},
{
name = top;
position = "{373, 684}";
},
{
name = topleft;
position = "{42, 684}";
}
);
layerId = "49C16FD3-6177-408B-A733-AEB3898BB77C";
paths = (
{
closed = 1;
nodes = (
"176 1 LINE",
"176 338 LINE",
"571 338 LINE",
"571 1 LINE",
"613 1 LINE",
"613 685 LINE",
"571 685 LINE",
"571 378 LINE",
"176 378 LINE",
"176 603 LINE SMOOTH",
"176 656 OFFCURVE",
"137 690 OFFCURVE",
"92 690 CURVE SMOOTH",
"64 690 OFFCURVE",
"43 679 OFFCURVE",
"25 659 CURVE",
"62 634 LINE",
"70 642 OFFCURVE",
"84 648 OFFCURVE",
"93 648 CURVE SMOOTH",
"114 648 OFFCURVE",
"134 632 OFFCURVE",
"134 603 CURVE SMOOTH",
"134 1 LINE"
);
}
);
width = 718;
}
);
leftKerningGroup = E;
unicode = 0048;
userData = {
position = 554;
width = 61;
};
},
{
glyphname = H.ss01;
lastChange = "2019-10-11 08:34:20 +0000";
layers = (
{
anchors = (
{
name = bottom;
position = "{345, 0}";
},
{
name = center;
position = "{360, 513}";
},
{
name = top;
position = "{350, 684}";
},
{
name = topleft;
position = "{33, 684}";
}
);
layerId = "873CAA12-270D-4223-A88E-AE8E101FDBE8";
paths = (
{
closed = 1;
nodes = (
"160 0 LINE",
"160 328 LINE",
"529 328 LINE",
"529 0 LINE",
"589 0 LINE",
"589 684 LINE",
"529 684 LINE",
"529 384 LINE",
"160 384 LINE",
"160 684 LINE",
"100 684 LINE",
"100 0 LINE"
);
}
);
width = 689;
},
{
anchors = (
{
name = bottom;
position = "{347, 0}";
},
{
name = center;
position = "{336, 512}";
},
{
name = top;
position = "{334, 684}";
},
{
name = topleft;
position = "{27, 684}";
}
);
layerId = "0CAF3BED-C4AC-4024-B3E1-4C69D1EF7EC0";
paths = (
{
closed = 1;
nodes = (
"179 -1 LINE",
"179 317 LINE",
"514 317 LINE",
"514 -1 LINE",
"596 -1 LINE",
"596 686 LINE",
"514 686 LINE",
"514 395 LINE",
"179 395 LINE",
"179 686 LINE",
"97 686 LINE",
"97 -1 LINE"
);
}
);
width = 693;
},
{
anchors = (
{
name = bottom;
position = "{343, 0}";
},
{
name = center;
position = "{346, 500}";
},
{
name = top;
position = "{344, 684}";
},
{
name = topleft;
position = "{33, 684}";
}
);
layerId = "49C16FD3-6177-408B-A733-AEB3898BB77C";
paths = (
{
closed = 1;
nodes = (
"147 1 LINE",
"147 338 LINE",
"543 338 LINE",
"543 1 LINE",
"585 1 LINE",
"585 685 LINE",
"543 685 LINE",
"543 378 LINE",
"147 378 LINE",
"147 685 LINE",
"105 685 LINE",
"105 1 LINE"
);
}
);
width = 690;
}
);
userData = {
position = 525;
width = 61;
};
},
{
glyphname = H.swsh;
lastChange = "2019-10-08 17:49:01 +0000";
layers = (
{
anchors = (
{
name = bottom;
position = "{382, 0}";
},
{
name = center;
position = "{413, 355}";
},
{
name = top;
position = "{411, 684}";
},
{
name = topleft;
position = "{49, 684}";
},
{
name = topswash;
position = "{219, 500}";
}
);
components = (
{
name = _top_swash.part;
transform = "{1, 0, 0, 1, -17, 7}";
}
);
layerId = "873CAA12-270D-4223-A88E-AE8E101FDBE8";
paths = (
{
closed = 1;
nodes = (
"218 0 LINE",
"218 328 LINE",
"587 328 LINE",
"587 0 LINE",
"647 0 LINE",
"647 684 LINE",
"587 684 LINE",
"587 384 LINE",
"218 384 LINE",
"218 599 LINE",
"158 599 LINE",
"158 0 LINE"
);
}
);
width = 747;
},
{
anchors = (
{
name = bottom;
position = "{380, 0}";
},
{
name = center;
position = "{403, 355}";
},
{
name = top;
position = "{410, 675}";
},
{
name = topleft;
position = "{43, 684}";
},
{
name = topswash;
position = "{232, 500}";
}
);
components = (
{
name = _top_swash.part;
transform = "{1, 0, 0, 1, -23, -3}";
}
);
layerId = "0CAF3BED-C4AC-4024-B3E1-4C69D1EF7EC0";
paths = (
{
closed = 1;
nodes = (
"234 -1 LINE",
"234 317 LINE",
"569 317 LINE",
"569 -1 LINE",
"651 -1 LINE",
"651 686 LINE",
"569 686 LINE",
"569 395 LINE",
"234 395 LINE",
"234 589 LINE",
"152 589 LINE",
"152 -1 LINE"
);
}
);
width = 748;
},
{
anchors = (
{
name = bottom;
position = "{382, 0}";
},
{
name = center;
position = "{405, 356}";
},
{
name = top;
position = "{402, 694}";
},
{
name = topleft;
position = "{62, 684}";
},
{
name = topswash;
position = "{196, 500}";
}
);
components = (
{
name = _top_swash.part;
transform = "{1, 0, 0, 1, 4, -1}";
}
);
layerId = "49C16FD3-6177-408B-A733-AEB3898BB77C";
paths = (
{
closed = 1;
nodes = (
"196 1 LINE",
"196 338 LINE",
"591 338 LINE",
"591 1 LINE",
"633 1 LINE",
"633 685 LINE",
"591 685 LINE",
"591 378 LINE",
"196 378 LINE",
"196 603 LINE",
"154 603 LINE",
"154 1 LINE"
);
}
);
width = 732;
}
);
leftKerningGroup = Swash;
userData = {
position = 554;
width = 61;
};
},
{
glyphname = I;
lastChange = "2019-10-11 08:39:07 +0000";
layers = (
{
anchors = (
{
name = bottom;
position = "{131, -1}";
},
{
name = center;
position = "{133, 386}";
},
{
name = ogonek;
position = "{161, 0}";
},
{
name = top;
position = "{128, 674}";
},
{
name = topleft;
position = "{34, 684}";
}
);
layerId = "873CAA12-270D-4223-A88E-AE8E101FDBE8";
paths = (
{
closed = 1;
nodes = (
"161 0 LINE",
"161 684 LINE",
"100 684 LINE",
"100 0 LINE"
);
}
);
width = 261;
},
{
anchors = (
{
name = bottom;
position = "{138, 0}";
},
{
name = center;
position = "{137, 386}";
},
{
name = ogonek;
position = "{179, -1}";
},
{
name = top;
position = "{136, 675}";
},
{
name = topleft;
position = "{31, 684}";
}
);
layerId = "0CAF3BED-C4AC-4024-B3E1-4C69D1EF7EC0";
paths = (
{
closed = 1;
nodes = (
"179 -1 LINE",
"179 686 LINE",
"97 686 LINE",
"97 -1 LINE"
);
}
);
width = 276;
},
{
anchors = (
{
name = bottom;
position = "{128, 0}";
},
{
name = center;
position = "{127, 386}";
},
{
name = ogonek;
position = "{150, 1}";
},
{
name = top;
position = "{125, 686}";
},
{
name = topleft;
position = "{39, 684}";
}
);
layerId = "49C16FD3-6177-408B-A733-AEB3898BB77C";
paths = (
{
closed = 1;
nodes = (
"150 1 LINE",
"150 685 LINE",
"105 685 LINE",
"105 1 LINE"
);
}
);
width = 255;
}
);
unicode = 0049;
userData = {
position = 54;
width = 61;
};
},
{
glyphname = I.swsh;
lastChange = "2019-10-08 19:11:31 +0000";
layers = (
{
anchors = (
{
name = bottom;
position = "{189, -1}";
},
{
name = center;
position = "{191, 386}";
},
{
name = ogonek;
position = "{219, 0}";
},
{
name = top;
position = "{186, 684}";
},
{
name = topleft;
position = "{92, 684}";
}
);
components = (
{
name = _top_swash.part;
transform = "{1, 0, 0, 1, -16, 0}";
}
);
layerId = "873CAA12-270D-4223-A88E-AE8E101FDBE8";
paths = (
{
closed = 1;
nodes = (
"218 0 LINE",
"218 574 LINE",
"158 574 LINE",
"158 0 LINE"
);
}
);
width = 314;
},
{
anchors = (
{
name = bottom;
position = "{193, 0}";
},
{
name = center;
position = "{192, 386}";
},
{
name = ogonek;
position = "{234, -1}";
},
{
name = top;
position = "{194, 684}";
},
{
name = topleft;
position = "{86, 684}";
}
);
components = (
{
name = _top_swash.part;
transform = "{1, 0, 0, 1, -24, 0}";
}
);
layerId = "0CAF3BED-C4AC-4024-B3E1-4C69D1EF7EC0";
paths = (
{
closed = 1;
nodes = (
"234 -1 LINE",
"234 566 LINE",
"152 566 LINE",
"152 -1 LINE"
);
}
);
width = 327;
},
{
anchors = (
{
name = bottom;
position = "{177, 0}";
},
{
name = center;
position = "{176, 386}";
},
{
name = ogonek;
position = "{200, 1}";
},
{
name = top;
position = "{174, 684}";
},
{
name = topleft;
position = "{86, 684}";
}
);
components = (
{
name = _top_swash.part;
transform = "{1, 0, 0, 1, 4, 0}";
}
);
layerId = "49C16FD3-6177-408B-A733-AEB3898BB77C";
paths = (
{
closed = 1;
nodes = (
"196 1 LINE",
"196 576 LINE",
"154 576 LINE",
"154 1 LINE"
);
}
);
width = 291;
}
);
leftKerningGroup = Swash;
userData = {
position = 54;
width = 61;
};
},
{
glyphname = J;
lastChange = "2019-10-11 08:41:31 +0000";
layers = (
{
anchors = (
{
name = bottom;
position = "{234, 0}";
},
{
name = top;
position = "{254, 682}";
}
);
layerId = "873CAA12-270D-4223-A88E-AE8E101FDBE8";
paths = (
{
closed = 1;
nodes = (
"367 -7 OFFCURVE",
"420 89 OFFCURVE",
"420 188 CURVE SMOOTH",
"420 687 LINE",
"361 687 LINE",
"361 680 OFFCURVE",
"325 660 OFFCURVE",
"307 660 CURVE SMOOTH",
"293 660 OFFCURVE",
"277 662 OFFCURVE",
"254 672 CURVE SMOOTH",
"218 688 OFFCURVE",
"180 696 OFFCURVE",
"164 696 CURVE SMOOTH",
"138 696 OFFCURVE",
"119 691 OFFCURVE",
"60 667 CURVE",
"85 617 LINE",
"110 628 OFFCURVE",
"138 641 OFFCURVE",
"164 641 CURVE SMOOTH",
"184 641 OFFCURVE",
"202 633 OFFCURVE",
"221 625 CURVE SMOOTH",
"251 612 OFFCURVE",
"271 605 OFFCURVE",
"305 605 CURVE SMOOTH",
"324 605 OFFCURVE",
"344 608 OFFCURVE",
"360 618 CURVE",
"360 191 LINE SMOOTH",
"360 127 OFFCURVE",
"334 49 OFFCURVE",
"227 49 CURVE SMOOTH",
"140 49 OFFCURVE",
"95 99 OFFCURVE",
"95 171 CURVE",
"38 176 LINE",
"40 87 OFFCURVE",
"86 -7 OFFCURVE",
"224 -7 CURVE SMOOTH"
);
}
);
width = 510;
},
{
anchors = (
{
name = bottom;
position = "{244, 0}";
},
{
name = top;
position = "{244, 684}";
}
);
layerId = "0CAF3BED-C4AC-4024-B3E1-4C69D1EF7EC0";
paths = (
{
closed = 1;
nodes = (
"377 -7 OFFCURVE",
"433 94 OFFCURVE",
"433 193 CURVE SMOOTH",
"433 689 LINE",
"364 689 LINE",
"356 676 OFFCURVE",
"326 663 OFFCURVE",
"312 663 CURVE SMOOTH",
"300 663 OFFCURVE",
"286 664 OFFCURVE",
"264 673 CURVE SMOOTH",
"226 688 OFFCURVE",
"199 698 OFFCURVE",
"173 698 CURVE SMOOTH",
"145 698 OFFCURVE",
"123 692 OFFCURVE",
"56 664 CURVE",
"90 597 LINE",
"119 609 OFFCURVE",
"148 620 OFFCURVE",
"173 620 CURVE SMOOTH",
"188 620 OFFCURVE",
"202 615 OFFCURVE",
"218 609 CURVE SMOOTH",
"248 597 OFFCURVE",
"280 587 OFFCURVE",
"310 587 CURVE SMOOTH",
"323 587 OFFCURVE",
"338 589 OFFCURVE",
"351 594 CURVE",
"351 196 LINE SMOOTH",
"351 138 OFFCURVE",
"328 69 OFFCURVE",
"234 69 CURVE SMOOTH",
"152 69 OFFCURVE",
"113 118 OFFCURVE",
"117 188 CURVE",
"39 194 LINE",
"36 103 OFFCURVE",
"83 -7 OFFCURVE",
"231 -7 CURVE SMOOTH"
);
}
);
width = 520;
},
{
anchors = (
{
name = bottom;
position = "{236, 0}";
},
{
name = top;
position = "{237, 684}";
}
);
layerId = "49C16FD3-6177-408B-A733-AEB3898BB77C";
paths = (
{
closed = 1;
nodes = (
"359 -6 OFFCURVE",
"413 86 OFFCURVE",
"413 185 CURVE SMOOTH",
"413 688 LINE",
"366 688 LINE",
"357 672 OFFCURVE",
"329 660 OFFCURVE",
"307 660 CURVE SMOOTH",
"289 660 OFFCURVE",
"269 666 OFFCURVE",
"249 674 CURVE SMOOTH",
"206 691 OFFCURVE",
"176 697 OFFCURVE",
"161 697 CURVE SMOOTH",
"135 697 OFFCURVE",
"117 691 OFFCURVE",
"66 672 CURVE",
"84 636 LINE",
"107 644 OFFCURVE",
"132 658 OFFCURVE",
"161 658 CURVE SMOOTH",
"182 658 OFFCURVE",
"200 651 OFFCURVE",
"218 643 CURVE SMOOTH",
"248 630 OFFCURVE",
"272 621 OFFCURVE",
"305 621 CURVE SMOOTH",
"326 621 OFFCURVE",
"352 625 OFFCURVE",
"371 644 CURVE",
"371 188 LINE SMOOTH",
"371 121 OFFCURVE",
"341 34 OFFCURVE",
"225 34 CURVE SMOOTH",
"136 34 OFFCURVE",
"84 86 OFFCURVE",
"82 159 CURVE",
"41 163 LINE",
"46 76 OFFCURVE",
"92 -6 OFFCURVE",
"222 -6 CURVE SMOOTH"
);
}
);
width = 508;
}
);
leftKerningGroup = J;
rightKerningGroup = J;
unicode = 004A;
userData = {
position = 333;
width = 53;
};
},
{
glyphname = J.ss01;
lastChange = "2019-10-11 08:41:31 +0000";
layers = (
{
anchors = (
{
name = bottom;
position = "{232, 0}";
},
{
name = top;
position = "{378, 684}";
}
);
layerId = "873CAA12-270D-4223-A88E-AE8E101FDBE8";
paths = (
{
closed = 1;
nodes = (
"360 -7 OFFCURVE",
"413 94 OFFCURVE",
"413 193 CURVE SMOOTH",
"413 684 LINE",
"351 684 LINE",
"353 629 LINE",
"353 196 LINE SMOOTH",
"353 132 OFFCURVE",
"327 49 OFFCURVE",
"220 49 CURVE SMOOTH",
"133 49 OFFCURVE",
"88 99 OFFCURVE",
"88 171 CURVE",
"31 176 LINE",
"33 87 OFFCURVE",
"79 -7 OFFCURVE",
"217 -7 CURVE SMOOTH"
);
}
);
width = 503;
},
{
anchors = (
{
name = bottom;
position = "{235, 0}";
},
{
name = top;
position = "{381, 684}";
}
);
layerId = "0CAF3BED-C4AC-4024-B3E1-4C69D1EF7EC0";
paths = (
{
closed = 1;
nodes = (
"368 -9 OFFCURVE",
"424 97 OFFCURVE",
"424 196 CURVE SMOOTH",
"424 684 LINE",
"342 684 LINE",
"342 606 LINE",
"342 199 LINE SMOOTH",
"342 141 OFFCURVE",
"319 67 OFFCURVE",
"225 67 CURVE SMOOTH",
"143 67 OFFCURVE",
"104 116 OFFCURVE",
"108 186 CURVE",
"30 192 LINE",
"27 101 OFFCURVE",
"74 -9 OFFCURVE",
"222 -9 CURVE SMOOTH"
);
}
);
width = 511;
},
{
anchors = (
{
name = bottom;
position = "{231, 0}";
},
{
name = top;
position = "{386, 684}";
}
);
layerId = "49C16FD3-6177-408B-A733-AEB3898BB77C";
paths = (
{
closed = 1;
nodes = (
"355 -6 OFFCURVE",
"407 92 OFFCURVE",
"407 191 CURVE SMOOTH",
"407 685 LINE",
"367 684 LINE",
"363 635 LINE",
"366 194 LINE SMOOTH",
"366 127 OFFCURVE",
"331 34 OFFCURVE",
"217 34 CURVE SMOOTH",
"128 34 OFFCURVE",
"81 89 OFFCURVE",
"79 162 CURVE",
"35 166 LINE",
"37 79 OFFCURVE",
"85 -6 OFFCURVE",
"217 -6 CURVE SMOOTH"
);
}
);
width = 502;
}
);
leftKerningGroup = Jtext;
rightKerningGroup = J;
userData = {
position = 333;
width = 53;
};
},
{
glyphname = K;
lastChange = "2019-10-11 08:41:28 +0000";
layers = (
{
anchors = (
{
name = bottom;
position = "{295, 0}";
},
{
name = top;
position = "{295, 684}";
}
);
layerId = "873CAA12-270D-4223-A88E-AE8E101FDBE8";
paths = (
{
closed = 1;
nodes = (
"162 1 LINE",
"162 314 LINE",
"216 313 OFFCURVE",
"233 313 OFFCURVE",
"272 325 CURVE",
"480 31 LINE SMOOTH",
"497 7 OFFCURVE",
"524 -8 OFFCURVE",
"552 -8 CURVE SMOOTH",
"580 -8 OFFCURVE",
"610 5 OFFCURVE",
"629 30 CURVE",
"583 62 LINE",
"577 54 OFFCURVE",
"566 48 OFFCURVE",
"554 48 CURVE SMOOTH",
"543 48 OFFCURVE",
"533 53 OFFCURVE",
"526 63 CURVE SMOOTH",
"325 347 LINE",
"343 362 OFFCURVE",
"355 374 OFFCURVE",
"380 409 CURVE SMOOTH",
"396 431 OFFCURVE",
"416 466 OFFCURVE",
"432 494 CURVE SMOOTH",
"453 531 OFFCURVE",
"477 576 OFFCURVE",
"534 684 CURVE",
"465 684 LINE",
"432 614 OFFCURVE",
"410 568 OFFCURVE",
"389 530 CURVE SMOOTH",
"369 495 OFFCURVE",
"341 450 OFFCURVE",
"320 423 CURVE SMOOTH",
"309 409 OFFCURVE",
"290 395 OFFCURVE",
"270 386 CURVE SMOOTH",
"254 379 OFFCURVE",
"235 372 OFFCURVE",
"204 372 CURVE SMOOTH",
"160 372 LINE",
"160 684 LINE",
"100 684 LINE",
"100 1 LINE"
);
}
);
width = 650;
},
{
anchors = (
{
name = bottom;
position = "{302, 2}";
},
{
name = top;
position = "{302, 684}";
}
);
layerId = "0CAF3BED-C4AC-4024-B3E1-4C69D1EF7EC0";
paths = (
{
closed = 1;
nodes = (
"181 0 LINE",
"181 303 LINE",
"226 302 OFFCURVE",
"244 305 OFFCURVE",
"271 312 CURVE",
"467 34 LINE SMOOTH",
"485 8 OFFCURVE",
"518 -8 OFFCURVE",
"553 -8 CURVE SMOOTH",
"578 -8 OFFCURVE",
"613 7 OFFCURVE",
"633 38 CURVE",
"571 82 LINE",
"567 75 OFFCURVE",
"561 70 OFFCURVE",
"553 70 CURVE SMOOTH",
"540 70 OFFCURVE",
"534 73 OFFCURVE",
"523 88 CURVE SMOOTH",
"341 346 LINE",
"342 347 OFFCURVE",
"365 364 OFFCURVE",
"389 400 CURVE SMOOTH",
"406 423 OFFCURVE",
"427 459 OFFCURVE",
"441 484 CURVE SMOOTH",
"463 523 OFFCURVE",
"471 538 OFFCURVE",
"550 686 CURVE",
"460 686 LINE",
"422 606 OFFCURVE",
"401 566 OFFCURVE",
"380 530 CURVE SMOOTH",
"361 497 OFFCURVE",
"337 457 OFFCURVE",
"315 430 CURVE SMOOTH",
"302 414 OFFCURVE",
"288 406 OFFCURVE",
"267 396 CURVE SMOOTH",
"254 390 OFFCURVE",
"237 385 OFFCURVE",
"209 384 CURVE SMOOTH",
"179 383 LINE",
"179 686 LINE",
"97 686 LINE",
"97 0 LINE"
);
}
);
width = 652;
},
{
anchors = (
{
name = bottom;
position = "{288, 1}";
},
{
name = top;
position = "{288, 684}";
}
);
layerId = "49C16FD3-6177-408B-A733-AEB3898BB77C";
paths = (
{
closed = 1;
nodes = (
"149 2 LINE",
"149 325 LINE",
"177 325 OFFCURVE",
"205 316 OFFCURVE",
"277 338 CURVE",
"495 30 LINE SMOOTH",
"512 6 OFFCURVE",
"535 -7 OFFCURVE",
"561 -7 CURVE SMOOTH",
"584 -7 OFFCURVE",
"610 2 OFFCURVE",
"627 22 CURVE",
"594 45 LINE",
"586 38 OFFCURVE",
"576 33 OFFCURVE",
"564 33 CURVE SMOOTH",
"548 33 OFFCURVE",
"534 44 OFFCURVE",
"528 53 CURVE SMOOTH",
"317 351 LINE",
"342 370 OFFCURVE",
"348 380 OFFCURVE",
"375 417 CURVE SMOOTH",
"391 440 OFFCURVE",
"413 478 OFFCURVE",
"428 505 CURVE SMOOTH",
"432 512 OFFCURVE",
"471 581 OFFCURVE",
"526 685 CURVE",
"475 685 LINE",
"431 592 OFFCURVE",
"416 566 OFFCURVE",
"397 531 CURVE SMOOTH",
"375 490 OFFCURVE",
"349 451 OFFCURVE",
"325 420 CURVE SMOOTH",
"311 402 OFFCURVE",
"298 389 OFFCURVE",
"273 378 CURVE SMOOTH",
"255 370 OFFCURVE",
"234 363 OFFCURVE",
"203 363 CURVE SMOOTH",
"147 363 LINE",
"147 685 LINE",
"105 685 LINE",
"105 2 LINE"
);
}
);
width = 652;
}
);
rightKerningGroup = K;
unicode = 004B;
userData = {
position = 542;
width = 57;
};
},
{
glyphname = K.ss01;
lastChange = "2019-10-13 12:27:39 +0000";
layers = (
{
anchors = (
{
name = bottom;
position = "{368, 0}";
},
{
name = top;
position = "{368, 684}";
}
);
layerId = "873CAA12-270D-4223-A88E-AE8E101FDBE8";
paths = (
{
closed = 1;
nodes = (
"163 1 LINE",
"163 313 LINE",
"192 313 OFFCURVE",
"228 311 OFFCURVE",
"272 324 CURVE",
"478 32 LINE SMOOTH",
"498 6 OFFCURVE",
"522 -8 OFFCURVE",
"554 -8 CURVE SMOOTH",
"571 -8 OFFCURVE",
"584 -4 OFFCURVE",
"600 8 CURVE",
"573 55 LINE",
"568 51 OFFCURVE",
"560 49 OFFCURVE",
"553 49 CURVE SMOOTH",
"542 49 OFFCURVE",
"533 53 OFFCURVE",
"525 64 CURVE SMOOTH",
"326 347 LINE",
"346 363 OFFCURVE",
"367 389 OFFCURVE",
"380 408 CURVE SMOOTH",
"394 428 OFFCURVE",
"416 464 OFFCURVE",
"432 492 CURVE SMOOTH",
"460 541 OFFCURVE",
"497 618 OFFCURVE",
"533 684 CURVE",
"460 684 LINE",
"422 604 OFFCURVE",
"403 565 OFFCURVE",
"383 529 CURVE SMOOTH",
"365 497 OFFCURVE",
"338 452 OFFCURVE",
"314 423 CURVE SMOOTH",
"283 385 OFFCURVE",
"255 375 OFFCURVE",
"204 373 CURVE SMOOTH",
"161 371 LINE",
"161 684 LINE",
"100 684 LINE",
"100 1 LINE"
);
}
);
width = 627;
},
{
anchors = (
{
name = bottom;
position = "{362, 0}";
},
{
name = top;
position = "{361, 684}";
}
);
layerId = "0CAF3BED-C4AC-4024-B3E1-4C69D1EF7EC0";
paths = (
{
closed = 1;
nodes = (
"181 0 LINE",
"181 302 LINE",
"212 302 OFFCURVE",
"241 304 OFFCURVE",
"270 312 CURVE",
"465 37 LINE SMOOTH",
"486 10 OFFCURVE",
"515 -4 OFFCURVE",
"548 -4 CURVE SMOOTH",
"569 -4 OFFCURVE",
"589 1 OFFCURVE",
"608 20 CURVE",
"571 79 LINE",
"563 73 OFFCURVE",
"559 70 OFFCURVE",
"549 70 CURVE SMOOTH",
"540 70 OFFCURVE",
"533 74 OFFCURVE",
"521 91 CURVE SMOOTH",
"343 346 LINE",
"361 361 OFFCURVE",
"382 390 OFFCURVE",
"390 400 CURVE SMOOTH",
"405 422 OFFCURVE",
"427 460 OFFCURVE",
"441 483 CURVE SMOOTH",
"473 540 OFFCURVE",
"510 619 OFFCURVE",
"548 686 CURVE",
"450 686 LINE",
"411 604 OFFCURVE",
"393 566 OFFCURVE",
"373 530 CURVE SMOOTH",
"354 496 OFFCURVE",
"330 456 OFFCURVE",
"307 429 CURVE SMOOTH",
"281 397 OFFCURVE",
"259 385 OFFCURVE",
"209 384 CURVE SMOOTH",
"179 383 LINE",
"179 686 LINE",
"97 686 LINE",
"97 0 LINE"
);
}
);
width = 634;
},
{
anchors = (
{
name = bottom;
position = "{371, -7}";
},
{
name = top;
position = "{371, 693}";
}
);
layerId = "49C16FD3-6177-408B-A733-AEB3898BB77C";
paths = (
{
closed = 1;
nodes = (
"152 2 LINE",
"152 322 LINE",
"177 322 OFFCURVE",
"221 319 OFFCURVE",
"273 335 CURVE",
"489 30 LINE SMOOTH",
"508 5 OFFCURVE",
"529 -6 OFFCURVE",
"555 -6 CURVE SMOOTH",
"574 -6 OFFCURVE",
"582 -3 OFFCURVE",
"594 3 CURVE",
"572 38 LINE",
"566 35 OFFCURVE",
"560 35 OFFCURVE",
"554 35 CURVE SMOOTH",
"540 35 OFFCURVE",
"530 42 OFFCURVE",
"522 53 CURVE SMOOTH",
"314 351 LINE",
"336 367 OFFCURVE",
"365 399 OFFCURVE",
"376 415 CURVE SMOOTH",
"387 431 OFFCURVE",
"414 474 OFFCURVE",
"429 501 CURVE SMOOTH",
"454 545 OFFCURVE",
"491 620 OFFCURVE",
"525 685 CURVE",
"471 685 LINE",
"428 595 OFFCURVE",
"416 571 OFFCURVE",
"394 530 CURVE SMOOTH",
"372 489 OFFCURVE",
"348 452 OFFCURVE",
"323 421 CURVE SMOOTH",
"288 379 OFFCURVE",
"258 367 OFFCURVE",
"204 365 CURVE SMOOTH",
"150 363 LINE",
"150 685 LINE",
"105 685 LINE",
"105 2 LINE"
);
}
);
width = 620;
}
);
rightKerningGroup = K;
userData = {
position = 542;
width = 57;
};
},
{
glyphname = K.swsh;
lastChange = "2019-10-09 09:02:54 +0000";
layers = (
{
anchors = (
{
name = bottom;
position = "{329, 0}";
},
{
name = top;
position = "{328, 684}";
}
);
components = (
{
name = _top_swash.part;
transform = "{1, 0, 0, 1, -18, 0}";
}
);
layerId = "873CAA12-270D-4223-A88E-AE8E101FDBE8";
paths = (
{
closed = 1;
nodes = (
"652 -8 OFFCURVE",
"701 24 OFFCURVE",
"701 83 CURVE",
"645 82 LINE",
"645 63 OFFCURVE",
"630 48 OFFCURVE",
"610 48 CURVE SMOOTH",
"599 48 OFFCURVE",
"589 53 OFFCURVE",
"582 63 CURVE SMOOTH",
"381 347 LINE",
"399 362 OFFCURVE",
"411 374 OFFCURVE",
"436 409 CURVE SMOOTH",
"452 431 OFFCURVE",
"472 466 OFFCURVE",
"488 494 CURVE SMOOTH",
"509 531 OFFCURVE",
"533 576 OFFCURVE",
"590 684 CURVE",
"521 684 LINE",
"488 614 OFFCURVE",
"466 568 OFFCURVE",
"445 530 CURVE SMOOTH",
"426 495 OFFCURVE",
"397 450 OFFCURVE",
"376 423 CURVE SMOOTH",
"365 409 OFFCURVE",
"346 395 OFFCURVE",
"326 386 CURVE SMOOTH",
"310 379 OFFCURVE",
"291 372 OFFCURVE",
"260 372 CURVE SMOOTH",
"216 372 LINE",
"216 574 LINE",
"156 574 LINE",
"156 1 LINE",
"218 1 LINE",
"218 314 LINE",
"272 313 OFFCURVE",
"289 313 OFFCURVE",
"328 325 CURVE",
"536 31 LINE SMOOTH",
"553 7 OFFCURVE",
"580 -8 OFFCURVE",
"608 -8 CURVE SMOOTH"
);
}
);
width = 734;
},
{
anchors = (
{
name = bottom;
position = "{345, 0}";
},
{
name = top;
position = "{343, 684}";
}
);
components = (
{
name = _top_swash.part;
transform = "{1, 0, 0, 1, -24, 0}";
}
);
layerId = "0CAF3BED-C4AC-4024-B3E1-4C69D1EF7EC0";
paths = (
{
closed = 1;
nodes = (
"647 -8 OFFCURVE",
"710 28 OFFCURVE",
"703 104 CURVE",
"629 102 LINE",
"631 88 OFFCURVE",
"624 70 OFFCURVE",
"608 70 CURVE SMOOTH",
"595 70 OFFCURVE",
"589 73 OFFCURVE",
"578 88 CURVE SMOOTH",
"396 346 LINE",
"397 347 OFFCURVE",
"420 364 OFFCURVE",
"444 400 CURVE SMOOTH",
"460 424 OFFCURVE",
"482 459 OFFCURVE",
"496 484 CURVE SMOOTH",
"518 523 OFFCURVE",
"526 538 OFFCURVE",
"605 686 CURVE",
"515 686 LINE",
"477 606 OFFCURVE",
"456 566 OFFCURVE",
"435 530 CURVE SMOOTH",
"416 497 OFFCURVE",
"392 457 OFFCURVE",
"370 430 CURVE SMOOTH",
"357 414 OFFCURVE",
"343 406 OFFCURVE",
"322 396 CURVE SMOOTH",
"309 390 OFFCURVE",
"292 385 OFFCURVE",
"264 384 CURVE SMOOTH",
"234 383 LINE",
"234 566 LINE",
"152 566 LINE",
"152 0 LINE",
"236 0 LINE",
"236 303 LINE",
"281 302 OFFCURVE",
"299 305 OFFCURVE",
"326 312 CURVE",
"522 34 LINE SMOOTH",
"540 8 OFFCURVE",
"573 -8 OFFCURVE",
"608 -8 CURVE SMOOTH"
);
}
);
width = 736;
},
{
anchors = (
{
name = bottom;
position = "{325, 0}";
},
{
name = top;
position = "{326, 684}";
}
);
components = (
{
name = _top_swash.part;
transform = "{1, 0, 0, 1, 1, 0}";
}
);
layerId = "49C16FD3-6177-408B-A733-AEB3898BB77C";
paths = (
{
closed = 1;
nodes = (
"643 -7 OFFCURVE",
"686 15 OFFCURVE",
"692 65 CURVE",
"653 69 LINE",
"650 51 OFFCURVE",
"632 33 OFFCURVE",
"610 33 CURVE SMOOTH",
"594 33 OFFCURVE",
"580 44 OFFCURVE",
"574 53 CURVE SMOOTH",
"363 351 LINE",
"388 370 OFFCURVE",
"394 380 OFFCURVE",
"421 417 CURVE SMOOTH",
"438 440 OFFCURVE",
"459 478 OFFCURVE",
"474 505 CURVE SMOOTH",
"478 512 OFFCURVE",
"517 581 OFFCURVE",
"572 685 CURVE",
"521 685 LINE",
"477 592 OFFCURVE",
"462 566 OFFCURVE",
"443 531 CURVE SMOOTH",
"421 490 OFFCURVE",
"395 451 OFFCURVE",
"371 420 CURVE SMOOTH",
"357 402 OFFCURVE",
"344 389 OFFCURVE",
"319 378 CURVE SMOOTH",
"301 370 OFFCURVE",
"280 363 OFFCURVE",
"249 363 CURVE SMOOTH",
"193 363 LINE",
"193 565 LINE",
"151 565 LINE",
"151 2 LINE",
"195 2 LINE",
"195 325 LINE",
"223 325 OFFCURVE",
"251 316 OFFCURVE",
"323 338 CURVE",
"541 30 LINE SMOOTH",
"558 6 OFFCURVE",
"581 -7 OFFCURVE",
"607 -7 CURVE SMOOTH"
);
}
);
width = 721;
}
);
leftKerningGroup = Swash;
rightKerningGroup = K;
userData = {
position = 542;
width = 57;
};
},
{
glyphname = L;
lastChange = "2019-10-11 08:41:28 +0000";
layers = (
{
anchors = (
{
name = bottom;
position = "{301, 0}";
},
{
name = center;
position = "{301, 342}";
},
{
name = top;
position = "{301, 684}";
},
{
name = topright;
position = "{361, 500}";
}
);
layerId = "873CAA12-270D-4223-A88E-AE8E101FDBE8";
paths = (
{
closed = 1;
nodes = (
"507 0 LINE",
"507 56 LINE",
"160 56 LINE",
"160 684 LINE",
"100 684 LINE",
"100 0 LINE"
);
}
);
width = 532;
},
{
anchors = (
{
name = bottom;
position = "{304, 0}";
},
{
name = center;
position = "{295, 342}";
},
{
name = top;
position = "{304, 684}";
},
{
name = topright;
position = "{369, 500}";
}
);
layerId = "0CAF3BED-C4AC-4024-B3E1-4C69D1EF7EC0";
paths = (
{
closed = 1;
nodes = (
"516 -1 LINE",
"516 75 LINE",
"179 75 LINE",
"179 686 LINE",
"97 686 LINE",
"97 -1 LINE"
);
}
);
width = 541;
},
{
anchors = (
{
name = bottom;
position = "{301, -7}";
},
{
name = center;
position = "{299, 342}";
},
{
name = top;
position = "{301, 693}";
},
{
name = topright;
position = "{329, 500}";
}
);
layerId = "49C16FD3-6177-408B-A733-AEB3898BB77C";
paths = (
{
closed = 1;
nodes = (
"503 1 LINE",
"503 41 LINE",
"147 41 LINE",
"147 685 LINE",
"105 685 LINE",
"105 1 LINE"
);
}
);
width = 532;
}
);
rightKerningGroup = L;
unicode = 004C;
userData = {
position = 54;
width = 61;
};
},
{
glyphname = L.swsh;
lastChange = "2019-10-07 12:43:16 +0000";
layers = (
{
anchors = (
{
name = bottom;
position = "{360, 0}";
},
{
name = center;
position = "{321, 342}";
},
{
name = top;
position = "{360, 684}";
},
{
name = topright;
position = "{550, 684}";
}
);
components = (
{
name = _top_swash.part;
transform = "{1, 0, 0, 1, -17, 1}";
}
);
layerId = "873CAA12-270D-4223-A88E-AE8E101FDBE8";
paths = (
{
closed = 1;
nodes = (
"556 0 LINE",
"556 57 LINE",
"219 57 LINE",
"219 569 LINE",
"158 569 LINE",
"158 0 LINE"
);
}
);
width = 589;
},
{
anchors = (
{
name = bottom;
position = "{359, 11}";
},
{
name = center;
position = "{322, 342}";
},
{
name = top;
position = "{359, 675}";
},
{
name = topright;
position = "{557, 684}";
}
);
components = (
{
name = _top_swash.part;
transform = "{1, 0, 0, 1, -24, 0}";
}
);
layerId = "0CAF3BED-C4AC-4024-B3E1-4C69D1EF7EC0";
paths = (
{
closed = 1;
nodes = (
"561 -1 LINE",
"561 78 LINE",
"234 78 LINE",
"234 566 LINE",
"152 566 LINE",
"152 -1 LINE"
);
}
);
width = 594;
},
{
anchors = (
{
name = bottom;
position = "{349, -8}";
},
{
name = center;
position = "{301, 342}";
},
{
name = top;
position = "{349, 694}";
},
{
name = topright;
position = "{515, 684}";
}
);
components = (
{
name = _top_swash.part;
transform = "{1, 0, 0, 1, 5, 0}";
}
);
layerId = "49C16FD3-6177-408B-A733-AEB3898BB77C";
paths = (
{
closed = 1;
nodes = (
"541 1 LINE",
"541 42 LINE",
"196 42 LINE",
"196 564 LINE",
"151 564 LINE",
"151 1 LINE"
);
}
);
width = 571;
}
);
leftKerningGroup = Swash;
rightKerningGroup = L;
userData = {
position = 54;
width = 61;
};
},
{
glyphname = M;
lastChange = "2019-10-11 08:41:30 +0000";
layers = (
{
anchors = (
{
name = bottom;
position = "{544, 0}";
},
{
name = top;
position = "{543, 690}";
}
);
layerId = "873CAA12-270D-4223-A88E-AE8E101FDBE8";
paths = (
{
closed = 1;
nodes = (
"148 -17 OFFCURVE",
"182 15 OFFCURVE",
"190 54 CURVE SMOOTH",
"295 561 LINE",
"301 601 LINE",
"312 561 LINE",
"514 0 LINE",
"573 0 LINE",
"776 562 LINE",
"787 601 LINE",
"793 563 LINE",
"906 0 LINE",
"964 0 LINE",
"824 684 LINE",
"766 684 LINE",
"555 113 LINE",
"544 74 LINE",
"533 113 LINE",
"324 684 LINE",
"265 684 LINE",
"134 61 LINE",
"129 46 OFFCURVE",
"119 39 OFFCURVE",
"105 39 CURVE SMOOTH",
"89 39 OFFCURVE",
"81 47 OFFCURVE",
"74 59 CURVE",
"22 38 LINE",
"35 7 OFFCURVE",
"67 -17 OFFCURVE",
"105 -17 CURVE SMOOTH"
);
}
);
width = 1004;
},
{
anchors = (
{
name = bottom;
position = "{547, -2}";
},
{
name = top;
position = "{540, 684}";
}
);
layerId = "0CAF3BED-C4AC-4024-B3E1-4C69D1EF7EC0";
paths = (
{
closed = 1;
nodes = (
"162 -12 OFFCURVE",
"202 24 OFFCURVE",
"211 66 CURVE SMOOTH",
"309 531 LINE",
"312 553 LINE",
"315 531 LINE",
"506 -1 LINE",
"578 -1 LINE",
"772 537 LINE",
"775 553 LINE",
"776 537 LINE",
"884 -1 LINE",
"966 -1 LINE",
"825 686 LINE",
"749 686 LINE",
"555 160 LINE",
"542 114 LINE",
"529 160 LINE",
"337 686 LINE",
"262 686 LINE",
"133 78 LINE",
"129 68 OFFCURVE",
"125 65 OFFCURVE",
"116 65 CURVE SMOOTH",
"103 65 OFFCURVE",
"101 70 OFFCURVE",
"91 88 CURVE",
"21 59 LINE",
"31 22 OFFCURVE",
"71 -12 OFFCURVE",
"116 -12 CURVE SMOOTH"
);
}
);
width = 1004;
},
{
anchors = (
{
name = bottom;
position = "{550, 1}";
},
{
name = top;
position = "{549, 684}";
}
);
layerId = "49C16FD3-6177-408B-A733-AEB3898BB77C";
paths = (
{
closed = 1;
nodes = (
"142 -11 OFFCURVE",
"173 18 OFFCURVE",
"181 56 CURVE SMOOTH",
"288 568 LINE",
"299 641 LINE",
"319 568 LINE",
"523 1 LINE",
"575 1 LINE",
"780 569 LINE",
"800 640 LINE",
"812 569 LINE",
"926 1 LINE",
"971 1 LINE",
"831 685 LINE",
"780 685 LINE",
"567 107 LINE",
"549 43 LINE",
"531 107 LINE",
"319 685 LINE",
"270 685 LINE",
"137 59 LINE",
"131 42 OFFCURVE",
"117 32 OFFCURVE",
"101 32 CURVE SMOOTH",
"84 32 OFFCURVE",
"74 40 OFFCURVE",
"67 51 CURVE",
"26 34 LINE",
"40 8 OFFCURVE",
"67 -11 OFFCURVE",
"101 -11 CURVE SMOOTH"
);
}
);
width = 1016;
}
);
leftKerningGroup = A;
rightKerningGroup = A;
unicode = 004D;
userData = {
position = 664;
width = 20;
};
},
{
glyphname = M.ss01;
lastChange = "2019-10-11 08:40:40 +0000";
layers = (
{
anchors = (
{
name = bottom;
position = "{401, 0}";
},
{
name = top;
position = "{401, 684}";
}
);
layerId = "873CAA12-270D-4223-A88E-AE8E101FDBE8";
paths = (
{
closed = 1;
nodes = (
"160 0 LINE",
"160 484 LINE SMOOTH",
"160 514 OFFCURVE",
"156 524 OFFCURVE",
"152 557 CURVE",
"169 528 OFFCURVE",
"178 513 OFFCURVE",
"200 486 CURVE SMOOTH",
"297 367 OFFCURVE",
"384 271 OFFCURVE",
"409 243 CURVE",
"484 323 OFFCURVE",
"609 484 OFFCURVE",
"670 568 CURVE",
"666 534 OFFCURVE",
"662 503 OFFCURVE",
"662 470 CURVE SMOOTH",
"662 0 LINE",
"722 0 LINE",
"722 693 LINE",
"704 693 LINE",
"408 323 LINE",
"118 693 LINE",
"100 693 LINE",
"100 0 LINE"
);
}
);
width = 822;
},
{
anchors = (
{
name = bottom;
position = "{412, 0}";
},
{
name = top;
position = "{412, 684}";
}
);
layerId = "0CAF3BED-C4AC-4024-B3E1-4C69D1EF7EC0";
paths = (
{
closed = 1;
nodes = (
"180 -1 LINE",
"180 452 LINE SMOOTH",
"180 467 OFFCURVE",
"179 486 OFFCURVE",
"177 505 CURVE",
"193 483 OFFCURVE",
"211 457 OFFCURVE",
"223 443 CURVE SMOOTH",
"343 304 OFFCURVE",
"383 262 OFFCURVE",
"411 229 CURVE",
"473 295 OFFCURVE",
"578 414 OFFCURVE",
"647 504 CURVE",
"645 479 OFFCURVE",
"644 472 OFFCURVE",
"644 452 CURVE SMOOTH",
"644 -1 LINE",
"726 -1 LINE",
"726 695 LINE",
"691 695 LINE",
"412 345 LINE",
"133 695 LINE",
"98 695 LINE",
"98 -1 LINE"
);
}
);
width = 824;
},
{
anchors = (
{
name = bottom;
position = "{416, 0}";
},
{
name = top;
position = "{416, 684}";
}
);
layerId = "49C16FD3-6177-408B-A733-AEB3898BB77C";
paths = (
{
closed = 1;
nodes = (
"147 1 LINE",
"147 459 LINE SMOOTH",
"147 505 OFFCURVE",
"138 573 OFFCURVE",
"133 612 CURVE",
"160 564 OFFCURVE",
"202 504 OFFCURVE",
"232 466 CURVE SMOOTH",
"349 321 OFFCURVE",
"396 279 OFFCURVE",
"415 258 CURVE",
"504 354 OFFCURVE",
"651 546 OFFCURVE",
"699 615 CURVE",
"693 587 OFFCURVE",
"685 506 OFFCURVE",
"685 459 CURVE SMOOTH",
"685 1 LINE",
"727 1 LINE",
"727 694 LINE",
"722 694 LINE",
"412 312 LINE",
"110 694 LINE",
"105 694 LINE",
"105 1 LINE"
);
}
);
width = 832;
}
);
userData = {
position = 658;
width = 61;
};
},
{
glyphname = M.swsh;
lastChange = "2019-10-11 08:41:27 +0000";
layers = (
{
anchors = (
{
name = bottom;
position = "{558, 0}";
},
{
name = top;
position = "{557, 690}";
}
);
layerId = "873CAA12-270D-4223-A88E-AE8E101FDBE8";
paths = (
{
closed = 1;
nodes = (
"175 -18 OFFCURVE",
"199 20 OFFCURVE",
"211 82 CURVE SMOOTH",
"309 561 LINE",
"315 601 LINE",
"326 561 LINE",
"528 0 LINE",
"587 0 LINE",
"790 562 LINE",
"801 601 LINE",
"807 563 LINE",
"920 0 LINE",
"978 0 LINE",
"838 684 LINE",
"780 684 LINE",
"569 113 LINE",
"558 74 LINE",
"547 113 LINE",
"338 684 LINE",
"279 684 LINE",
"155 95 LINE",
"148 62 OFFCURVE",
"141 37 OFFCURVE",
"114 37 CURVE SMOOTH",
"94 37 OFFCURVE",
"78 55 OFFCURVE",
"84 73 CURVE",
"29 86 LINE",
"27 79 OFFCURVE",
"27 72 OFFCURVE",
"27 65 CURVE SMOOTH",
"27 17 OFFCURVE",
"66 -18 OFFCURVE",
"113 -18 CURVE SMOOTH"
);
}
);
width = 1018;
},
{
anchors = (
{
name = bottom;
position = "{566, -2}";
},
{
name = top;
position = "{559, 684}";
}
);
layerId = "0CAF3BED-C4AC-4024-B3E1-4C69D1EF7EC0";
paths = (
{
closed = 1;
nodes = (
"185 -18 OFFCURVE",
"216 21 OFFCURVE",
"231 79 CURVE SMOOTH",
"325 528 LINE",
"329 549 LINE",
"333 528 LINE",
"524 -1 LINE",
"597 -1 LINE",
"791 534 LINE",
"793 549 LINE",
"795 534 LINE",
"903 -1 LINE",
"982 -1 LINE",
"841 686 LINE",
"768 686 LINE",
"562 121 LINE",
"561 107 LINE",
"559 121 LINE",
"356 686 LINE",
"281 686 LINE",
"158 109 LINE",
"152 83 OFFCURVE",
"144 61 OFFCURVE",
"127 61 CURVE SMOOTH",
"113 61 OFFCURVE",
"100 69 OFFCURVE",
"103 86 CURVE",
"34 114 LINE",
"29 100 OFFCURVE",
"27 87 OFFCURVE",
"27 75 CURVE SMOOTH",
"27 19 OFFCURVE",
"76 -18 OFFCURVE",
"128 -18 CURVE SMOOTH"
);
}
);
width = 1020;
},
{
anchors = (
{
name = bottom;
position = "{563, 1}";
},
{
name = top;
position = "{562, 684}";
}
);
layerId = "49C16FD3-6177-408B-A733-AEB3898BB77C";
paths = (
{
closed = 1;
nodes = (
"142 -16 OFFCURVE",
"173 -2 OFFCURVE",
"188 37 CURVE",
"301 568 LINE",
"312 641 LINE",
"331 568 LINE",
"535 1 LINE",
"585 1 LINE",
"791 570 LINE",
"810 640 LINE",
"822 569 LINE",
"936 1 LINE",
"980 1 LINE",
"840 685 LINE",
"792 685 LINE",
"579 107 LINE",
"561 43 LINE",
"543 107 LINE",
"331 685 LINE",
"283 685 LINE",
"153 72 LINE",
"144 41 OFFCURVE",
"134 26 OFFCURVE",
"111 26 CURVE SMOOTH",
"89 26 OFFCURVE",
"70 45 OFFCURVE",
"75 69 CURVE",
"34 80 LINE",
"32 72 OFFCURVE",
"31 65 OFFCURVE",
"31 58 CURVE SMOOTH",
"31 11 OFFCURVE",
"71 -16 OFFCURVE",
"112 -16 CURVE SMOOTH"
);
}
);
width = 1025;
}
);
leftKerningGroup = Aswash;
rightKerningGroup = A;
userData = {
position = 664;
width = 20;
};
},
{
glyphname = N;
lastChange = "2019-10-11 08:41:29 +0000";
layers = (
{
anchors = (
{
name = bottom;
position = "{414, 0}";
},
{
name = top;
position = "{413, 684}";
}
);
layerId = "873CAA12-270D-4223-A88E-AE8E101FDBE8";
paths = (
{
closed = 1;
nodes = (
"148 -13 OFFCURVE",
"194 23 OFFCURVE",
"194 79 CURVE SMOOTH",
"190 584 LINE",
"202 563 LINE",
"673 0 LINE",
"694 0 LINE",
"694 683 LINE",
"632 683 LINE",
"635 129 LINE",
"621 151 LINE",
"281 559 LINE",
"170 684 LINE",
"132 684 LINE",
"132 80 LINE SMOOTH",
"132 62 OFFCURVE",
"117 44 OFFCURVE",
"99 44 CURVE SMOOTH",
"90 44 OFFCURVE",
"75 49 OFFCURVE",
"68 60 CURVE",
"21 28 LINE",
"39 2 OFFCURVE",
"68 -13 OFFCURVE",
"100 -13 CURVE SMOOTH"
);
}
);
width = 794;
},
{
anchors = (
{
name = bottom;
position = "{399, 0}";
},
{
name = top;
position = "{413, 684}";
}
);
layerId = "0CAF3BED-C4AC-4024-B3E1-4C69D1EF7EC0";
paths = (
{
closed = 1;
nodes = (
"162 -12 OFFCURVE",
"212 31 OFFCURVE",
"212 90 CURVE SMOOTH",
"210 524 LINE",
"199 550 LINE",
"660 -1 LINE",
"698 -1 LINE",
"698 685 LINE",
"614 685 LINE",
"617 177 LINE",
"621 162 LINE",
"294 561 LINE",
"183 686 LINE",
"129 686 LINE",
"129 90 LINE SMOOTH",
"129 79 OFFCURVE",
"122 68 OFFCURVE",
"110 66 CURVE SMOOTH",
"99 64 OFFCURVE",
"86 67 OFFCURVE",
"78 83 CURVE",
"19 43 LINE",
"37 10 OFFCURVE",
"72 -12 OFFCURVE",
"110 -12 CURVE SMOOTH"
);
}
);
width = 795;
},
{
anchors = (
{
name = bottom;
position = "{416, -7}";
},
{
name = top;
position = "{415, 693}";
}
);
layerId = "49C16FD3-6177-408B-A733-AEB3898BB77C";
paths = (
{
closed = 1;
nodes = (
"139 -17 OFFCURVE",
"179 12 OFFCURVE",
"179 70 CURVE SMOOTH",
"175 618 LINE",
"206 573 LINE",
"685 1 LINE",
"692 1 LINE",
"692 684 LINE",
"647 684 LINE",
"650 97 LINE",
"622 142 LINE",
"274 560 LINE",
"163 685 LINE",
"135 685 LINE",
"135 70 LINE SMOOTH",
"135 42 OFFCURVE",
"115 26 OFFCURVE",
"94 26 CURVE SMOOTH",
"86 26 OFFCURVE",
"71 33 OFFCURVE",
"63 42 CURVE",
"25 15 LINE",
"43 -6 OFFCURVE",
"65 -17 OFFCURVE",
"93 -17 CURVE SMOOTH"
);
}
);
width = 797;
}
);
leftKerningGroup = N;
unicode = 004E;
userData = {
position = 642;
width = 56;
};
},
{
glyphname = N.ss01;
lastChange = "2019-10-11 08:40:39 +0000";
layers = (
{
anchors = (
{
name = bottom;
position = "{392, 0}";
},
{
name = top;
position = "{392, 684}";
}
);
layerId = "873CAA12-270D-4223-A88E-AE8E101FDBE8";
paths = (
{
closed = 1;
nodes = (
"160 0 LINE",
"160 482 LINE",
"154 561 LINE",
"206 493 LINE",
"578 57 LINE",
"634 -1 LINE",
"673 -1 LINE",
"673 685 LINE",
"610 685 LINE",
"614 149 LINE",
"614 107 LINE",
"580 144 LINE",
"119 694 LINE",
"100 694 LINE",
"100 0 LINE"
);
}
);
width = 773;
},
{
anchors = (
{
name = bottom;
position = "{393, 0}";
},
{
name = top;
position = "{393, 684}";
}
);
layerId = "0CAF3BED-C4AC-4024-B3E1-4C69D1EF7EC0";
paths = (
{
closed = 1;
nodes = (
"180 -1 LINE",
"180 452 LINE",
"175 518 LINE",
"214 466 LINE",
"575 56 LINE",
"633 -1 LINE",
"675 -1 LINE",
"675 687 LINE",
"592 687 LINE",
"596 162 LINE",
"599 140 LINE",
"584 159 LINE",
"133 696 LINE",
"98 696 LINE",
"98 -1 LINE"
);
}
);
width = 772;
},
{
anchors = (
{
name = bottom;
position = "{397, 0}";
},
{
name = top;
position = "{392, 684}";
}
);
layerId = "49C16FD3-6177-408B-A733-AEB3898BB77C";
paths = (
{
closed = 1;
nodes = (
"147 1 LINE",
"147 554 LINE",
"143 602 LINE",
"170 553 LINE",
"595 52 LINE",
"646 4 LINE",
"672 0 LINE",
"672 686 LINE",
"628 686 LINE",
"631 118 LINE",
"638 63 LINE",
"609 101 LINE",
"111 695 LINE",
"105 695 LINE",
"105 1 LINE"
);
}
);
width = 777;
}
);
userData = {
position = 605;
width = 61;
};
},
{
glyphname = N.swsh;
lastChange = "2019-10-09 11:46:47 +0000";
layers = (
{
anchors = (
{
name = bottom;
position = "{439, 0}";
},
{
name = top;
position = "{438, 684}";
}
);
components = (
{
name = _top_swash.part;
transform = "{1, 0, 0, -1, -18, 680}";
}
);
layerId = "873CAA12-270D-4223-A88E-AE8E101FDBE8";
paths = (
{
closed = 1;
nodes = (
"214 584 LINE",
"227 563 LINE",
"698 0 LINE",
"719 0 LINE",
"719 683 LINE",
"657 683 LINE",
"660 129 LINE",
"646 151 LINE",
"306 559 LINE",
"195 684 LINE",
"156 684 LINE",
"156 125 LINE",
"218 125 LINE"
);
}
);
width = 815;
},
{
anchors = (
{
name = bottom;
position = "{424, 0}";
},
{
name = top;
position = "{438, 684}";
}
);
components = (
{
name = _top_swash.part;
transform = "{1, 0, 0, -1, -24, 692}";
}
);
layerId = "0CAF3BED-C4AC-4024-B3E1-4C69D1EF7EC0";
paths = (
{
closed = 1;
nodes = (
"232 539 LINE",
"224 550 LINE",
"685 -1 LINE",
"723 -1 LINE",
"723 685 LINE",
"639 685 LINE",
"642 177 LINE",
"646 162 LINE",
"319 561 LINE",
"206 686 LINE",
"152 686 LINE",
"152 119 LINE",
"236 119 LINE"
);
}
);
width = 816;
},
{
anchors = (
{
name = bottom;
position = "{431, -7}";
},
{
name = top;
position = "{430, 693}";
}
);
components = (
{
name = _top_swash.part;
transform = "{1, 0, 0, -1, 3, 687}";
}
);
layerId = "49C16FD3-6177-408B-A733-AEB3898BB77C";
paths = (
{
closed = 1;
nodes = (
"194 618 LINE",
"221 574 LINE",
"700 1 LINE",
"706 1 LINE",
"706 684 LINE",
"662 684 LINE",
"665 97 LINE",
"636 143 LINE",
"288 560 LINE",
"177 685 LINE",
"153 685 LINE",
"153 121 LINE",
"196 121 LINE"
);
}
);
width = 801;
}
);
leftKerningGroup = N;
userData = {
position = 642;
width = 56;
};
},
{
glyphname = Nhookleft;
lastChange = "2019-10-11 08:40:37 +0000";
layers = (
{
anchors = (
{
name = bottom;
position = "{395, 0}";
},
{
name = top;
position = "{394, 684}";
}
);
layerId = "49C16FD3-6177-408B-A733-AEB3898BB77C";
paths = (
{
closed = 1;
nodes = (
"89 -201 OFFCURVE",
"149 -170 OFFCURVE",
"149 -97 CURVE SMOOTH",
"145 614 LINE",
"172 573 LINE",
"642 1 LINE",
"656 1 LINE",
"656 684 LINE",
"612 684 LINE",
"615 94 LINE",
"588 133 LINE",
"241 558 LINE",
"130 685 LINE",
"105 685 LINE",
"105 -97 LINE SMOOTH",
"105 -126 OFFCURVE",
"78 -158 OFFCURVE",
"43 -158 CURVE SMOOTH",
"15 -158 OFFCURVE",
"-15 -135 OFFCURVE",
"-19 -103 CURVE",
"-62 -103 LINE",
"-59 -158 OFFCURVE",
"-12 -201 OFFCURVE",
"40 -201 CURVE SMOOTH"
);
}
);
width = 761;
},
{
anchors = (
{
name = bottom;
position = "{390, 0}";
},
{
name = top;
position = "{383, 684}";
}
);
layerId = "873CAA12-270D-4223-A88E-AE8E101FDBE8";
paths = (
{
closed = 1;
nodes = (
"93 -204 OFFCURVE",
"163 -174 OFFCURVE",
"163 -95 CURVE SMOOTH",
"159 584 LINE",
"173 563 LINE",
"640 0 LINE",
"665 0 LINE",
"665 683 LINE",
"603 683 LINE",
"606 121 LINE",
"592 143 LINE",
"252 559 LINE",
"141 684 LINE",
"100 684 LINE",
"100 -95 LINE SMOOTH",
"100 -125 OFFCURVE",
"77 -148 OFFCURVE",
"46 -148 CURVE SMOOTH",
"19 -148 OFFCURVE",
"-9 -136 OFFCURVE",
"-9 -94 CURVE",
"-65 -94 LINE",
"-65 -164 OFFCURVE",
"-13 -204 OFFCURVE",
"43 -204 CURVE SMOOTH"
);
}
);
width = 765;
},
{
anchors = (
{
name = bottom;
position = "{257, 0}";
},
{
name = top;
position = "{891, 496}";
}
);
layerId = "0CAF3BED-C4AC-4024-B3E1-4C69D1EF7EC0";
paths = (
{
closed = 1;
nodes = (
"106 -204 OFFCURVE",
"184 -172 OFFCURVE",
"183 -86 CURVE SMOOTH",
"179 539 LINE",
"171 550 LINE",
"627 -1 LINE",
"670 -1 LINE",
"670 685 LINE",
"586 685 LINE",
"589 173 LINE",
"593 158 LINE",
"221 610 LINE",
"151 686 LINE",
"98 686 LINE",
"98 -86 LINE SMOOTH",
"98 -106 OFFCURVE",
"79 -127 OFFCURVE",
"57 -127 CURVE SMOOTH",
"23 -127 OFFCURVE",
"13 -99 OFFCURVE",
"11 -85 CURVE",
"-63 -86 LINE",
"-63 -150 OFFCURVE",
"-15 -204 OFFCURVE",
"54 -204 CURVE SMOOTH"
);
}
);
width = 767;
}
);
leftKerningGroup = N;
unicode = 019D;
},
{
glyphname = O;
lastChange = "2019-10-11 08:41:27 +0000";
layers = (
{
anchors = (
{
name = bottom;
position = "{407, 0}";
},
{
name = center;
position = "{408, 342}";
},
{
name = horn;
position = "{520, 677}";
},
{
name = ogonek;
position = "{637, 71}";
},
{
name = top;
position = "{403, 684}";
},
{
name = topleft;
position = "{35, 684}";
},
{
name = topright;
position = "{804, 684}";
}
);
layerId = "873CAA12-270D-4223-A88E-AE8E101FDBE8";
paths = (
{
closed = 1;
nodes = (
"606 -17 OFFCURVE",
"756 134 OFFCURVE",
"756 330 CURVE SMOOTH",
"756 349 LINE SMOOTH",
"756 542 OFFCURVE",
"603 700 OFFCURVE",
"404 700 CURVE SMOOTH",
"203 700 OFFCURVE",
"53 540 OFFCURVE",
"53 349 CURVE SMOOTH",
"53 330 LINE SMOOTH",
"53 136 OFFCURVE",
"209 -17 OFFCURVE",
"408 -17 CURVE SMOOTH"
);
},
{
closed = 1;
nodes = (
"245 38 OFFCURVE",
"113 162 OFFCURVE",
"113 330 CURVE SMOOTH",
"113 349 LINE SMOOTH",
"113 509 OFFCURVE",
"238 645 OFFCURVE",
"403 645 CURVE SMOOTH",
"561 645 OFFCURVE",
"696 519 OFFCURVE",
"696 349 CURVE SMOOTH",
"696 330 LINE SMOOTH",
"696 166 OFFCURVE",
"568 38 OFFCURVE",
"405 38 CURVE SMOOTH"
);
}
);
width = 809;
},
{
anchors = (
{
name = bottom;
position = "{405, -27}";
},
{
name = center;
position = "{400, 339}";
},
{
name = horn;
position = "{504, 689}";
},
{
name = ogonek;
position = "{643, 68}";
},
{
name = top;
position = "{401, 684}";
},
{
name = topleft;
position = "{29, 684}";
},
{
name = topright;
position = "{804, 684}";
}
);
layerId = "0CAF3BED-C4AC-4024-B3E1-4C69D1EF7EC0";
paths = (
{
closed = 1;
nodes = (
"602 -25 OFFCURVE",
"753 136 OFFCURVE",
"753 331 CURVE SMOOTH",
"753 350 LINE SMOOTH",
"753 535 OFFCURVE",
"599 702 OFFCURVE",
"401 702 CURVE SMOOTH",
"201 702 OFFCURVE",
"50 533 OFFCURVE",
"50 350 CURVE SMOOTH",
"50 331 LINE SMOOTH",
"50 138 OFFCURVE",
"197 -19 OFFCURVE",
"405 -22 CURVE SMOOTH"
);
},
{
closed = 1;
nodes = (
"254 52 OFFCURVE",
"132 175 OFFCURVE",
"132 331 CURVE SMOOTH",
"132 350 LINE SMOOTH",
"132 492 OFFCURVE",
"247 628 OFFCURVE",
"400 628 CURVE SMOOTH",
"547 628 OFFCURVE",
"671 502 OFFCURVE",
"671 350 CURVE SMOOTH",
"671 331 LINE SMOOTH",
"671 179 OFFCURVE",
"553 52 OFFCURVE",
"402 52 CURVE SMOOTH"
);
}
);
width = 804;
},
{
anchors = (
{
name = bottom;
position = "{412, 1}";
},
{
name = center;
position = "{413, 342}";
},
{
name = horn;
position = "{521, 691}";
},
{
name = ogonek;
position = "{624, 58}";
},
{
name = top;
position = "{408, 693}";
},
{
name = topleft;
position = "{38, 684}";
},
{
name = topright;
position = "{811, 684}";
}
);
layerId = "49C16FD3-6177-408B-A733-AEB3898BB77C";
paths = (
{
closed = 1;
nodes = (
"612 -14 OFFCURVE",
"761 134 OFFCURVE",
"761 331 CURVE SMOOTH",
"761 350 LINE SMOOTH",
"761 544 OFFCURVE",
"609 702 OFFCURVE",
"409 702 CURVE SMOOTH",
"207 702 OFFCURVE",
"59 543 OFFCURVE",
"59 350 CURVE SMOOTH",
"59 331 LINE SMOOTH",
"59 136 OFFCURVE",
"213 -14 OFFCURVE",
"413 -14 CURVE SMOOTH"
);
},
{
closed = 1;
nodes = (
"240 24 OFFCURVE",
"101 155 OFFCURVE",
"101 331 CURVE SMOOTH",
"101 350 LINE SMOOTH",
"101 518 OFFCURVE",
"232 662 OFFCURVE",
"408 662 CURVE SMOOTH",
"575 662 OFFCURVE",
"719 528 OFFCURVE",
"719 350 CURVE SMOOTH",
"719 331 LINE SMOOTH",
"719 159 OFFCURVE",
"583 24 OFFCURVE",
"410 24 CURVE SMOOTH"
);
}
);
width = 820;
}
);
leftKerningGroup = O;
rightKerningGroup = O;
unicode = 004F;
userData = {
position = 683;
width = 56;
};
},
{
glyphname = P;
lastChange = "2019-10-11 08:41:31 +0000";
layers = (
{
anchors = (
{
name = bottom;
position = "{295, 0}";
},
{
name = top;
position = "{295, 684}";
}
);
layerId = "873CAA12-270D-4223-A88E-AE8E101FDBE8";
paths = (
{
closed = 1;
nodes = (
"212 -1 LINE",
"212 628 LINE",
"344 628 LINE SMOOTH",
"431 628 OFFCURVE",
"490 579 OFFCURVE",
"490 471 CURVE SMOOTH",
"490 355 OFFCURVE",
"423 313 OFFCURVE",
"324 313 CURVE SMOOTH",
"309 313 OFFCURVE",
"286 314 OFFCURVE",
"255 316 CURVE",
"255 262 LINE",
"284 259 OFFCURVE",
"309 257 OFFCURVE",
"329 257 CURVE SMOOTH",
"446 257 OFFCURVE",
"550 323 OFFCURVE",
"550 472 CURVE SMOOTH",
"550 593 OFFCURVE",
"482 684 OFFCURVE",
"358 684 CURVE SMOOTH",
"129 684 LINE SMOOTH",
"99 684 OFFCURVE",
"75 671 OFFCURVE",
"56 652 CURVE SMOOTH",
"37 633 OFFCURVE",
"26 609 OFFCURVE",
"26 580 CURVE",
"82 580 LINE",
"82 595 OFFCURVE",
"88 606 OFFCURVE",
"97 615 CURVE SMOOTH",
"108 626 OFFCURVE",
"114 629 OFFCURVE",
"152 629 CURVE",
"152 -1 LINE"
);
}
);
width = 594;
},
{
anchors = (
{
name = bottom;
position = "{296, 0}";
},
{
name = top;
position = "{296, 684}";
}
);
layerId = "0CAF3BED-C4AC-4024-B3E1-4C69D1EF7EC0";
paths = (
{
closed = 1;
nodes = (
"229 -1 LINE",
"229 610 LINE",
"345 610 LINE SMOOTH",
"423 610 OFFCURVE",
"476 565 OFFCURVE",
"476 468 CURVE SMOOTH",
"476 364 OFFCURVE",
"416 325 OFFCURVE",
"326 325 CURVE SMOOTH",
"309 325 OFFCURVE",
"291 326 OFFCURVE",
"255 332 CURVE",
"255 258 LINE",
"287 250 OFFCURVE",
"308 249 OFFCURVE",
"330 249 CURVE SMOOTH",
"447 249 OFFCURVE",
"558 318 OFFCURVE",
"558 469 CURVE SMOOTH",
"558 590 OFFCURVE",
"485 686 OFFCURVE",
"359 686 CURVE SMOOTH",
"136 686 LINE SMOOTH",
"102 686 OFFCURVE",
"73 668 OFFCURVE",
"57 652 CURVE SMOOTH",
"32 627 OFFCURVE",
"25 602 OFFCURVE",
"26 563 CURVE",
"103 563 LINE",
"101 583 OFFCURVE",
"104 591 OFFCURVE",
"114 600 CURVE SMOOTH",
"125 610 OFFCURVE",
"124 610 OFFCURVE",
"147 611 CURVE",
"147 -1 LINE"
);
}
);
width = 599;
},
{
anchors = (
{
name = bottom;
position = "{293, 0}";
},
{
name = top;
position = "{293, 684}";
}
);
layerId = "49C16FD3-6177-408B-A733-AEB3898BB77C";
paths = (
{
closed = 1;
nodes = (
"196 0 LINE",
"196 645 LINE",
"341 645 LINE SMOOTH",
"433 645 OFFCURVE",
"501 590 OFFCURVE",
"501 475 CURVE SMOOTH",
"501 351 OFFCURVE",
"423 305 OFFCURVE",
"320 305 CURVE SMOOTH",
"308 305 OFFCURVE",
"290 306 OFFCURVE",
"256 308 CURVE",
"256 270 LINE",
"286 266 OFFCURVE",
"310 265 OFFCURVE",
"325 265 CURVE SMOOTH",
"442 265 OFFCURVE",
"543 328 OFFCURVE",
"543 476 CURVE SMOOTH",
"543 597 OFFCURVE",
"477 685 OFFCURVE",
"355 685 CURVE SMOOTH",
"126 685 LINE SMOOTH",
"100 685 OFFCURVE",
"78 675 OFFCURVE",
"58 655 CURVE SMOOTH",
"41 638 OFFCURVE",
"31 620 OFFCURVE",
"30 595 CURVE",
"70 595 LINE",
"71 609 OFFCURVE",
"78 619 OFFCURVE",
"87 628 CURVE SMOOTH",
"100 641 OFFCURVE",
"109 647 OFFCURVE",
"154 647 CURVE",
"154 0 LINE"
);
}
);
width = 592;
}
);
leftKerningGroup = E;
rightKerningGroup = P;
unicode = 0050;
userData = {
position = 480;
width = 59;
};
},
{
glyphname = P.ss01;
lastChange = "2019-10-11 08:41:27 +0000";
layers = (
{
anchors = (
{
name = bottom;
position = "{275, 0}";
},
{
name = top;
position = "{275, 684}";
}
);
layerId = "873CAA12-270D-4223-A88E-AE8E101FDBE8";
paths = (
{
closed = 1;
nodes = (
"418 254 OFFCURVE",
"501 337 OFFCURVE",
"501 470 CURVE SMOOTH",
"501 597 OFFCURVE",
"426 684 OFFCURVE",
"308 684 CURVE SMOOTH",
"100 684 LINE",
"100 628 LINE",
"294 628 LINE SMOOTH",
"382 628 OFFCURVE",
"441 572 OFFCURVE",
"441 473 CURVE SMOOTH",
"441 369 OFFCURVE",
"375 310 OFFCURVE",
"251 310 CURVE SMOOTH",
"222 310 OFFCURVE",
"188 312 OFFCURVE",
"152 313 CURVE",
"152 256 LINE",
"157 256 OFFCURVE",
"211 254 OFFCURVE",
"239 254 CURVE SMOOTH"
);
},
{
closed = 1;
nodes = (
"160 -1 LINE",
"160 681 LINE",
"100 681 LINE",
"100 -1 LINE"
);
}
);
width = 545;
},
{
anchors = (
{
name = bottom;
position = "{278, 0}";
},
{
name = top;
position = "{278, 684}";
}
);
layerId = "0CAF3BED-C4AC-4024-B3E1-4C69D1EF7EC0";
paths = (
{
closed = 1;
nodes = (
"422 246 OFFCURVE",
"510 333 OFFCURVE",
"510 467 CURVE SMOOTH",
"510 594 OFFCURVE",
"430 686 OFFCURVE",
"310 686 CURVE SMOOTH",
"97 686 LINE",
"97 610 LINE",
"297 610 LINE SMOOTH",
"375 610 OFFCURVE",
"428 559 OFFCURVE",
"428 470 CURVE SMOOTH",
"428 376 OFFCURVE",
"369 322 OFFCURVE",
"255 322 CURVE SMOOTH",
"224 322 OFFCURVE",
"188 325 OFFCURVE",
"148 326 CURVE",
"148 248 LINE",
"164 248 OFFCURVE",
"220 246 OFFCURVE",
"243 246 CURVE SMOOTH"
);
},
{
closed = 1;
nodes = (
"179 -1 LINE",
"179 683 LINE",
"97 683 LINE",
"97 -1 LINE"
);
}
);
width = 551;
},
{
anchors = (
{
name = bottom;
position = "{268, 0}";
},
{
name = top;
position = "{268, 684}";
}
);
layerId = "49C16FD3-6177-408B-A733-AEB3898BB77C";
paths = (
{
closed = 1;
nodes = (
"414 262 OFFCURVE",
"499 343 OFFCURVE",
"499 475 CURVE SMOOTH",
"499 600 OFFCURVE",
"422 685 OFFCURVE",
"308 685 CURVE SMOOTH",
"105 685 LINE",
"105 645 LINE",
"294 645 LINE SMOOTH",
"389 645 OFFCURVE",
"457 584 OFFCURVE",
"457 478 CURVE SMOOTH",
"457 366 OFFCURVE",
"380 302 OFFCURVE",
"250 302 CURVE SMOOTH",
"226 302 OFFCURVE",
"166 300 OFFCURVE",
"133 301 CURVE",
"133 264 LINE",
"152 264 OFFCURVE",
"217 262 OFFCURVE",
"238 262 CURVE SMOOTH"
);
},
{
closed = 1;
nodes = (
"147 0 LINE",
"147 681 LINE",
"105 681 LINE",
"105 0 LINE"
);
}
);
width = 547;
}
);
leftKerningGroup = E;
rightKerningGroup = P;
userData = {
position = 480;
width = 59;
};
},
{
glyphname = P.swsh;
lastChange = "2019-10-11 08:41:32 +0000";
layers = (
{
anchors = (
{
name = bottom;
position = "{299, 0}";
},
{
name = top;
position = "{299, 684}";
}
);
layerId = "873CAA12-270D-4223-A88E-AE8E101FDBE8";
paths = (
{
closed = 1;
nodes = (
"459 255 OFFCURVE",
"557 332 OFFCURVE",
"557 474 CURVE SMOOTH",
"557 592 OFFCURVE",
"489 684 OFFCURVE",
"365 684 CURVE SMOOTH",
"135 684 LINE SMOOTH",
"79 684 OFFCURVE",
"32 635 OFFCURVE",
"32 578 CURVE SMOOTH",
"32 543 OFFCURVE",
"49 509 OFFCURVE",
"82 489 CURVE",
"111 537 LINE",
"97 546 OFFCURVE",
"88 560 OFFCURVE",
"88 578 CURVE SMOOTH",
"88 606 OFFCURVE",
"110 628 OFFCURVE",
"137 627 CURVE SMOOTH",
"351 627 LINE SMOOTH",
"442 627 OFFCURVE",
"498 570 OFFCURVE",
"498 474 CURVE SMOOTH",
"498 373 OFFCURVE",
"436 310 OFFCURVE",
"319 310 CURVE SMOOTH",
"298 310 OFFCURVE",
"280 312 OFFCURVE",
"260 315 CURVE",
"260 260 LINE",
"275 257 OFFCURVE",
"292 255 OFFCURVE",
"315 255 CURVE SMOOTH"
);
},
{
closed = 1;
nodes = (
"219 -1 LINE",
"219 571 LINE",
"158 571 LINE",
"158 -1 LINE"
);
}
);
width = 600;
},
{
anchors = (
{
name = bottom;
position = "{306, 0}";
},
{
name = top;
position = "{306, 684}";
}
);
layerId = "0CAF3BED-C4AC-4024-B3E1-4C69D1EF7EC0";
paths = (
{
closed = 1;
nodes = (
"470 247 OFFCURVE",
"572 328 OFFCURVE",
"572 471 CURVE SMOOTH",
"572 589 OFFCURVE",
"501 686 OFFCURVE",
"375 686 CURVE SMOOTH",
"141 686 LINE SMOOTH",
"82 686 OFFCURVE",
"30 632 OFFCURVE",
"30 572 CURVE SMOOTH",
"30 532 OFFCURVE",
"53 489 OFFCURVE",
"94 470 CURVE",
"134 536 LINE",
"116 545 OFFCURVE",
"108 554 OFFCURVE",
"108 572 CURVE SMOOTH",
"108 592 OFFCURVE",
"124 609 OFFCURVE",
"143 609 CURVE SMOOTH",
"361 609 LINE SMOOTH",
"442 609 OFFCURVE",
"492 557 OFFCURVE",
"492 471 CURVE SMOOTH",
"492 380 OFFCURVE",
"437 323 OFFCURVE",
"330 323 CURVE SMOOTH",
"306 323 OFFCURVE",
"286 326 OFFCURVE",
"261 330 CURVE",
"261 254 LINE",
"278 250 OFFCURVE",
"298 247 OFFCURVE",
"326 247 CURVE SMOOTH"
);
},
{
closed = 1;
nodes = (
"245 -1 LINE",
"245 569 LINE",
"162 569 LINE",
"162 -1 LINE"
);
}
);
width = 613;
},
{
anchors = (
{
name = bottom;
position = "{304, 0}";
},
{
name = top;
position = "{304, 684}";
}
);
layerId = "49C16FD3-6177-408B-A733-AEB3898BB77C";
paths = (
{
closed = 1;
nodes = (
"462 262 OFFCURVE",
"558 337 OFFCURVE",
"558 478 CURVE SMOOTH",
"558 595 OFFCURVE",
"492 685 OFFCURVE",
"369 685 CURVE SMOOTH",
"134 685 LINE SMOOTH",
"81 685 OFFCURVE",
"37 640 OFFCURVE",
"37 585 CURVE SMOOTH",
"37 555 OFFCURVE",
"50 525 OFFCURVE",
"77 506 CURVE",
"97 541 LINE",
"86 551 OFFCURVE",
"77 567 OFFCURVE",
"77 585 CURVE SMOOTH",
"77 617 OFFCURVE",
"105 645 OFFCURVE",
"136 644 CURVE SMOOTH",
"355 644 LINE SMOOTH",
"452 644 OFFCURVE",
"515 580 OFFCURVE",
"515 478 CURVE SMOOTH",
"515 372 OFFCURVE",
"446 301 OFFCURVE",
"322 301 CURVE SMOOTH",
"305 301 OFFCURVE",
"287 303 OFFCURVE",
"271 305 CURVE",
"271 266 LINE",
"296 263 OFFCURVE",
"301 262 OFFCURVE",
"318 262 CURVE SMOOTH"
);
},
{
closed = 1;
nodes = (
"211 0 LINE",
"211 569 LINE",
"166 569 LINE",
"166 0 LINE"
);
}
);
width = 607;
}
);
leftKerningGroup = Swash;
rightKerningGroup = P;
userData = {
position = 480;
width = 59;
};
},
{
glyphname = Thorn;
lastChange = "2019-10-11 08:41:30 +0000";
layers = (
{
anchors = (
{
name = bottom;
position = "{280, 0}";
},
{
name = top;
position = "{280, 684}";
}
);
layerId = "873CAA12-270D-4223-A88E-AE8E101FDBE8";
paths = (
{
closed = 1;
nodes = (
"160 0 LINE",
"160 507 LINE",
"298 507 LINE SMOOTH",
"391 507 OFFCURVE",
"450 456 OFFCURVE",
"450 356 CURVE SMOOTH",
"450 241 OFFCURVE",
"372 193 OFFCURVE",
"271 193 CURVE SMOOTH",
"251 193 OFFCURVE",
"234 195 OFFCURVE",
"214 198 CURVE",
"214 141 LINE",
"227 139 OFFCURVE",
"244 137 OFFCURVE",
"268 137 CURVE SMOOTH",
"403 137 OFFCURVE",
"510 201 OFFCURVE",
"510 352 CURVE SMOOTH",
"510 477 OFFCURVE",
"436 556 OFFCURVE",
"317 563 CURVE",
"160 563 LINE",
"160 684 LINE",
"100 684 LINE",
"100 0 LINE"
);
}
);
width = 553;
},
{
anchors = (
{
name = bottom;
position = "{282, 0}";
},
{
name = top;
position = "{282, 684}";
}
);
layerId = "0CAF3BED-C4AC-4024-B3E1-4C69D1EF7EC0";
paths = (
{
closed = 1;
nodes = (
"179 -1 LINE",
"179 493 LINE",
"300 493 LINE SMOOTH",
"384 493 OFFCURVE",
"436 446 OFFCURVE",
"436 356 CURVE SMOOTH",
"436 253 OFFCURVE",
"367 208 OFFCURVE",
"274 208 CURVE SMOOTH",
"251 208 OFFCURVE",
"230 211 OFFCURVE",
"205 215 CURVE",
"205 138 LINE",
"217 136 OFFCURVE",
"240 132 OFFCURVE",
"271 132 CURVE SMOOTH",
"406 132 OFFCURVE",
"518 200 OFFCURVE",
"518 353 CURVE SMOOTH",
"518 478 OFFCURVE",
"440 562 OFFCURVE",
"320 569 CURVE",
"179 569 LINE",
"179 686 LINE",
"97 686 LINE",
"97 -1 LINE"
);
}
);
width = 559;
},
{
anchors = (
{
name = bottom;
position = "{271, 0}";
},
{
name = top;
position = "{271, 684}";
}
);
layerId = "49C16FD3-6177-408B-A733-AEB3898BB77C";
paths = (
{
closed = 1;
nodes = (
"147 1 LINE",
"147 520 LINE",
"296 520 LINE SMOOTH",
"395 520 OFFCURVE",
"461 464 OFFCURVE",
"461 357 CURVE SMOOTH",
"461 235 OFFCURVE",
"375 180 OFFCURVE",
"268 180 CURVE SMOOTH",
"251 180 OFFCURVE",
"234 180 OFFCURVE",
"217 183 CURVE",
"217 145 LINE",
"227 143 OFFCURVE",
"244 142 OFFCURVE",
"265 142 CURVE SMOOTH",
"401 142 OFFCURVE",
"503 204 OFFCURVE",
"503 353 CURVE SMOOTH",
"503 478 OFFCURVE",
"433 553 OFFCURVE",
"315 560 CURVE",
"147 560 LINE",
"147 685 LINE",
"105 685 LINE",
"105 1 LINE"
);
}
);
width = 552;
}
);
rightKerningGroup = O;
unicode = 00DE;
userData = {
position = 403;
width = 59;
};
},
{
glyphname = Q;
lastChange = "2019-10-11 08:41:30 +0000";
layers = (
{
anchors = (
{
name = bottom;
position = "{391, 0}";
},
{
name = top;
position = "{391, 684}";
}
);
layerId = "873CAA12-270D-4223-A88E-AE8E101FDBE8";
paths = (
{
closed = 1;
nodes = (
"273 -138 LINE",
"372 -171 LINE SMOOTH",
"413 -185 OFFCURVE",
"451 -193 OFFCURVE",
"502 -193 CURVE SMOOTH",
"538 -193 OFFCURVE",
"563 -189 OFFCURVE",
"617 -150 CURVE",
"592 -106 LINE",
"550 -135 OFFCURVE",
"526 -141 OFFCURVE",
"495 -141 CURVE SMOOTH",
"464 -141 OFFCURVE",
"422 -134 OFFCURVE",
"384 -121 CURVE SMOOTH",
"304 -94 LINE",
"363 -9 LINE",
"391 -9 LINE SMOOTH",
"590 -9 OFFCURVE",
"728 138 OFFCURVE",
"728 341 CURVE SMOOTH",
"728 542 OFFCURVE",
"593 694 OFFCURVE",
"390 694 CURVE SMOOTH",
"190 694 OFFCURVE",
"53 545 OFFCURVE",
"53 342 CURVE SMOOTH",
"53 179 OFFCURVE",
"141 39 OFFCURVE",
"306 0 CURVE",
"188 -166 LINE",
"231 -199 LINE"
);
},
{
closed = 1;
nodes = (
"218 45 OFFCURVE",
"113 174 OFFCURVE",
"113 343 CURVE SMOOTH",
"113 514 OFFCURVE",
"221 639 OFFCURVE",
"391 639 CURVE SMOOTH",
"561 639 OFFCURVE",
"668 513 OFFCURVE",
"668 343 CURVE SMOOTH",
"668 173 OFFCURVE",
"562 45 OFFCURVE",
"390 45 CURVE SMOOTH"
);
}
);
width = 781;
},
{
anchors = (
{
name = bottom;
position = "{390, 0}";
},
{
name = top;
position = "{390, 684}";
}
);
layerId = "0CAF3BED-C4AC-4024-B3E1-4C69D1EF7EC0";
paths = (
{
closed = 1;
nodes = (
"281 -137 LINE",
"369 -166 LINE SMOOTH",
"414 -181 OFFCURVE",
"451 -188 OFFCURVE",
"498 -188 CURVE SMOOTH",
"536 -188 OFFCURVE",
"565 -183 OFFCURVE",
"625 -138 CURVE",
"589 -75 LINE",
"543 -108 OFFCURVE",
"523 -114 OFFCURVE",
"492 -114 CURVE SMOOTH",
"461 -114 OFFCURVE",
"424 -107 OFFCURVE",
"388 -95 CURVE SMOOTH",
"325 -74 LINE",
"369 -9 LINE",
"390 -9 LINE SMOOTH",
"589 -9 OFFCURVE",
"731 140 OFFCURVE",
"731 342 CURVE SMOOTH",
"731 541 OFFCURVE",
"592 696 OFFCURVE",
"390 696 CURVE SMOOTH",
"191 696 OFFCURVE",
"51 544 OFFCURVE",
"51 343 CURVE SMOOTH",
"51 187 OFFCURVE",
"135 48 OFFCURVE",
"289 4 CURVE",
"178 -152 LINE",
"238 -199 LINE"
);
},
{
closed = 1;
nodes = (
"230 65 OFFCURVE",
"133 186 OFFCURVE",
"133 344 CURVE SMOOTH",
"133 503 OFFCURVE",
"233 622 OFFCURVE",
"391 622 CURVE SMOOTH",
"548 622 OFFCURVE",
"649 502 OFFCURVE",
"649 344 CURVE SMOOTH",
"649 185 OFFCURVE",
"549 65 OFFCURVE",
"390 65 CURVE SMOOTH"
);
}
);
width = 781;
},
{
anchors = (
{
name = bottom;
position = "{397, 0}";
},
{
name = top;
position = "{397, 684}";
}
);
layerId = "49C16FD3-6177-408B-A733-AEB3898BB77C";
paths = (
{
closed = 1;
nodes = (
"271 -138 LINE",
"379 -174 LINE SMOOTH",
"426 -190 OFFCURVE",
"462 -197 OFFCURVE",
"510 -197 CURVE SMOOTH",
"543 -197 OFFCURVE",
"568 -193 OFFCURVE",
"617 -159 CURVE",
"599 -129 LINE",
"560 -155 OFFCURVE",
"534 -161 OFFCURVE",
"503 -161 CURVE SMOOTH",
"469 -161 OFFCURVE",
"428 -154 OFFCURVE",
"386 -140 CURVE SMOOTH",
"294 -109 LINE",
"363 -8 LINE",
"397 -8 LINE SMOOTH",
"596 -8 OFFCURVE",
"733 138 OFFCURVE",
"733 342 CURVE SMOOTH",
"733 544 OFFCURVE",
"599 695 OFFCURVE",
"396 695 CURVE SMOOTH",
"195 695 OFFCURVE",
"59 547 OFFCURVE",
"59 343 CURVE SMOOTH",
"59 174 OFFCURVE",
"151 33 OFFCURVE",
"325 -1 CURVE",
"200 -176 LINE",
"231 -199 LINE"
);
},
{
closed = 1;
nodes = (
"215 30 OFFCURVE",
"101 168 OFFCURVE",
"101 344 CURVE SMOOTH",
"101 522 OFFCURVE",
"218 657 OFFCURVE",
"397 657 CURVE SMOOTH",
"574 657 OFFCURVE",
"691 522 OFFCURVE",
"691 344 CURVE SMOOTH",
"691 167 OFFCURVE",
"576 30 OFFCURVE",
"396 30 CURVE SMOOTH"
);
}
);
width = 792;
}
);
leftKerningGroup = O;
rightKerningGroup = O;
unicode = 0051;
userData = {
position = 652;
width = 60;
};
},
{
glyphname = R;
lastChange = "2019-10-11 08:41:29 +0000";
layers = (
{
anchors = (
{
name = bottom;
position = "{333, 0}";
},
{
name = top;
position = "{310, 684}";
}
);
layerId = "873CAA12-270D-4223-A88E-AE8E101FDBE8";
paths = (
{
closed = 1;
nodes = (
"82 579 LINE",
"82 607 OFFCURVE",
"104 628 OFFCURVE",
"131 628 CURVE SMOOTH",
"150 628 LINE",
"150 0 LINE",
"210 0 LINE",
"210 628 LINE",
"360 628 LINE SMOOTH",
"439 628 OFFCURVE",
"492 564 OFFCURVE",
"492 477 CURVE SMOOTH",
"492 391 OFFCURVE",
"440 332 OFFCURVE",
"349 332 CURVE SMOOTH",
"262 332 LINE",
"262 276 LINE",
"339 269 OFFCURVE",
"367 231 OFFCURVE",
"397 193 CURVE SMOOTH",
"522 29 LINE SMOOTH",
"542 3 OFFCURVE",
"566 -10 OFFCURVE",
"596 -10 CURVE SMOOTH",
"627 -10 OFFCURVE",
"656 5 OFFCURVE",
"672 29 CURVE",
"625 63 LINE",
"618 52 OFFCURVE",
"607 45 OFFCURVE",
"595 45 CURVE SMOOTH",
"585 45 OFFCURVE",
"577 50 OFFCURVE",
"569 61 CURVE SMOOTH",
"418 257 LINE SMOOTH",
"409 268 OFFCURVE",
"391 281 OFFCURVE",
"380 285 CURVE SMOOTH",
"376 286 OFFCURVE",
"371 288 OFFCURVE",
"367 289 CURVE",
"375 289 OFFCURVE",
"384 290 OFFCURVE",
"392 290 CURVE SMOOTH",
"484 294 OFFCURVE",
"552 372 OFFCURVE",
"552 477 CURVE SMOOTH",
"552 561 OFFCURVE",
"510 635 OFFCURVE",
"444 667 CURVE SMOOTH",
"423 677 OFFCURVE",
"398 684 OFFCURVE",
"364 684 CURVE SMOOTH",
"129 684 LINE SMOOTH",
"101 684 OFFCURVE",
"77 674 OFFCURVE",
"56 652 CURVE SMOOTH",
"36 631 OFFCURVE",
"26 608 OFFCURVE",
"26 579 CURVE"
);
}
);
width = 693;
},
{
anchors = (
{
name = bottom;
position = "{334, 11}";
},
{
name = top;
position = "{321, 684}";
}
);
layerId = "0CAF3BED-C4AC-4024-B3E1-4C69D1EF7EC0";
paths = (
{
closed = 1;
nodes = (
"104 563 LINE",
"97 590 OFFCURVE",
"115 611 OFFCURVE",
"138 611 CURVE SMOOTH",
"145 611 LINE",
"145 -1 LINE",
"227 -1 LINE",
"227 611 LINE",
"361 611 LINE SMOOTH",
"430 611 OFFCURVE",
"477 552 OFFCURVE",
"477 474 CURVE SMOOTH",
"477 397 OFFCURVE",
"431 345 OFFCURVE",
"350 345 CURVE SMOOTH",
"264 345 LINE",
"264 268 LINE",
"334 264 OFFCURVE",
"351 240 OFFCURVE",
"387 192 CURVE SMOOTH",
"508 32 LINE SMOOTH",
"530 3 OFFCURVE",
"560 -10 OFFCURVE",
"589 -10 CURVE SMOOTH",
"624 -10 OFFCURVE",
"658 9 OFFCURVE",
"676 38 CURVE",
"613 82 LINE",
"609 72 OFFCURVE",
"601 66 OFFCURVE",
"592 66 CURVE SMOOTH",
"585 66 OFFCURVE",
"578 70 OFFCURVE",
"573 77 CURVE SMOOTH",
"457 232 LINE SMOOTH",
"448 244 OFFCURVE",
"438 258 OFFCURVE",
"426 267 CURVE SMOOTH",
"419 272 OFFCURVE",
"409 281 OFFCURVE",
"400 286 CURVE",
"415 286 OFFCURVE",
"446 290 OFFCURVE",
"468 303 CURVE SMOOTH",
"512 332 OFFCURVE",
"559 389 OFFCURVE",
"559 474 CURVE SMOOTH",
"559 558 OFFCURVE",
"514 636 OFFCURVE",
"447 669 CURVE SMOOTH",
"426 679 OFFCURVE",
"399 686 OFFCURVE",
"364 686 CURVE SMOOTH",
"136 686 LINE SMOOTH",
"107 686 OFFCURVE",
"80 675 OFFCURVE",
"57 652 CURVE SMOOTH",
"34 629 OFFCURVE",
"22 599 OFFCURVE",
"25 563 CURVE"
);
}
);
width = 695;
},
{
anchors = (
{
name = bottom;
position = "{330, -8}";
},
{
name = top;
position = "{295, 684}";
}
);
layerId = "49C16FD3-6177-408B-A733-AEB3898BB77C";
paths = (
{
closed = 1;
nodes = (
"71 595 LINE",
"75 626 OFFCURVE",
"103 645 OFFCURVE",
"129 645 CURVE SMOOTH",
"153 645 LINE",
"153 1 LINE",
"195 1 LINE",
"195 645 LINE",
"358 645 LINE SMOOTH",
"443 645 OFFCURVE",
"504 574 OFFCURVE",
"504 482 CURVE SMOOTH",
"504 390 OFFCURVE",
"444 323 OFFCURVE",
"347 323 CURVE SMOOTH",
"266 323 LINE",
"266 284 LINE",
"344 274 OFFCURVE",
"372 233 OFFCURVE",
"402 196 CURVE SMOOTH",
"531 28 LINE SMOOTH",
"550 3 OFFCURVE",
"573 -9 OFFCURVE",
"600 -9 CURVE SMOOTH",
"628 -9 OFFCURVE",
"653 3 OFFCURVE",
"668 24 CURVE",
"637 45 LINE",
"627 35 OFFCURVE",
"611 30 OFFCURVE",
"599 30 CURVE SMOOTH",
"586 30 OFFCURVE",
"574 37 OFFCURVE",
"564 50 CURVE SMOOTH",
"410 250 LINE SMOOTH",
"400 263 OFFCURVE",
"384 280 OFFCURVE",
"372 285 CURVE SMOOTH",
"365 288 OFFCURVE",
"358 291 OFFCURVE",
"351 294 CURVE",
"364 294 OFFCURVE",
"377 294 OFFCURVE",
"390 294 CURVE SMOOTH",
"476 294 OFFCURVE",
"546 371 OFFCURVE",
"546 482 CURVE SMOOTH",
"546 565 OFFCURVE",
"505 636 OFFCURVE",
"441 668 CURVE SMOOTH",
"419 679 OFFCURVE",
"393 685 OFFCURVE",
"362 685 CURVE SMOOTH",
"127 685 LINE SMOOTH",
"100 685 OFFCURVE",
"79 675 OFFCURVE",
"59 655 CURVE SMOOTH",
"42 638 OFFCURVE",
"32 618 OFFCURVE",
"31 595 CURVE"
);
}
);
width = 694;
}
);
leftKerningGroup = E;
rightKerningGroup = K;
unicode = 0052;
userData = {
position = 619;
width = 57;
};
},
{
color = 1;
glyphname = R.ss01;
lastChange = "2019-10-13 09:54:02 +0000";
layers = (
{
anchors = (
{
name = bottom;
position = "{321, 0}";
},
{
name = top;
position = "{268, 684}";
}
);
layerId = "873CAA12-270D-4223-A88E-AE8E101FDBE8";
paths = (
{
closed = 1;
nodes = (
"562 -7 OFFCURVE",
"575 -3 OFFCURVE",
"589 7 CURVE",
"564 56 LINE",
"559 52 OFFCURVE",
"552 50 OFFCURVE",
"544 50 CURVE SMOOTH",
"530 50 OFFCURVE",
"524 56 OFFCURVE",
"516 65 CURVE SMOOTH",
"494 90 OFFCURVE",
"391 227 OFFCURVE",
"369 256 CURVE SMOOTH",
"356 273 OFFCURVE",
"337 288 OFFCURVE",
"314 293 CURVE",
"317 293 OFFCURVE",
"358 291 OFFCURVE",
"377 295 CURVE SMOOTH",
"421 304 OFFCURVE",
"502 369 OFFCURVE",
"502 483 CURVE SMOOTH",
"502 596 OFFCURVE",
"423 684 OFFCURVE",
"314 684 CURVE SMOOTH",
"100 684 LINE",
"100 628 LINE",
"310 628 LINE SMOOTH",
"387 628 OFFCURVE",
"442 565 OFFCURVE",
"442 477 CURVE SMOOTH",
"442 388 OFFCURVE",
"386 332 OFFCURVE",
"299 332 CURVE SMOOTH",
"212 332 LINE",
"212 276 LINE",
"272 272 OFFCURVE",
"297 255 OFFCURVE",
"346 193 CURVE SMOOTH",
"470 32 LINE SMOOTH",
"480 19 OFFCURVE",
"501 -7 OFFCURVE",
"545 -7 CURVE SMOOTH"
);
},
{
closed = 1;
nodes = (
"160 0 LINE",
"160 672 LINE",
"100 672 LINE",
"100 0 LINE"
);
}
);
width = 611;
},
{
anchors = (
{
name = bottom;
position = "{324, 0}";
},
{
name = top;
position = "{267, 684}";
}
);
layerId = "0CAF3BED-C4AC-4024-B3E1-4C69D1EF7EC0";
paths = (
{
closed = 1;
nodes = (
"570 -10 OFFCURVE",
"591 -3 OFFCURVE",
"603 10 CURVE",
"567 73 LINE",
"560 66 OFFCURVE",
"555 64 OFFCURVE",
"546 64 CURVE SMOOTH",
"536 64 OFFCURVE",
"529 69 OFFCURVE",
"517 84 CURVE SMOOTH",
"489 117 OFFCURVE",
"397 238 OFFCURVE",
"386 252 CURVE SMOOTH",
"365 278 OFFCURVE",
"353 286 OFFCURVE",
"314 297 CURVE",
"320 297 OFFCURVE",
"366 296 OFFCURVE",
"394 304 CURVE SMOOTH",
"458 321 OFFCURVE",
"511 398 OFFCURVE",
"511 484 CURVE SMOOTH",
"511 591 OFFCURVE",
"428 686 OFFCURVE",
"317 686 CURVE SMOOTH",
"97 686 LINE",
"97 610 LINE",
"313 610 LINE SMOOTH",
"381 610 OFFCURVE",
"429 554 OFFCURVE",
"429 474 CURVE SMOOTH",
"429 394 OFFCURVE",
"380 345 OFFCURVE",
"302 345 CURVE SMOOTH",
"206 345 LINE",
"206 268 LINE",
"284 266 OFFCURVE",
"310 229 OFFCURVE",
"339 191 CURVE SMOOTH",
"461 32 LINE SMOOTH",
"483 4 OFFCURVE",
"510 -10 OFFCURVE",
"545 -10 CURVE SMOOTH"
);
},
{
closed = 1;
nodes = (
"179 -1 LINE",
"179 675 LINE",
"97 675 LINE",
"97 -1 LINE"
);
}
);
width = 623;
},
{
anchors = (
{
name = bottom;
position = "{324, -8}";
},
{
name = top;
position = "{254, 684}";
}
);
layerId = "49C16FD3-6177-408B-A733-AEB3898BB77C";
paths = (
{
closed = 1;
nodes = (
"567 -8 OFFCURVE",
"575 -6 OFFCURVE",
"585 0 CURVE",
"568 33 LINE",
"564 31 OFFCURVE",
"559 30 OFFCURVE",
"550 30 CURVE SMOOTH",
"536 30 OFFCURVE",
"525 37 OFFCURVE",
"517 48 CURVE SMOOTH",
"498 73 OFFCURVE",
"380 227 OFFCURVE",
"356 258 CURVE SMOOTH",
"338 281 OFFCURVE",
"325 289 OFFCURVE",
"290 294 CURVE",
"312 294 OFFCURVE",
"326 295 OFFCURVE",
"343 296 CURVE SMOOTH",
"438 300 OFFCURVE",
"501 374 OFFCURVE",
"501 483 CURVE SMOOTH",
"501 600 OFFCURVE",
"423 684 OFFCURVE",
"315 684 CURVE SMOOTH",
"105 684 LINE",
"105 644 LINE",
"311 644 LINE SMOOTH",
"397 644 OFFCURVE",
"459 576 OFFCURVE",
"459 482 CURVE SMOOTH",
"459 385 OFFCURVE",
"395 320 OFFCURVE",
"300 320 CURVE SMOOTH",
"222 320 LINE",
"222 283 LINE",
"276 277 OFFCURVE",
"311 254 OFFCURVE",
"358 194 CURVE SMOOTH",
"484 27 LINE SMOOTH",
"502 4 OFFCURVE",
"523 -8 OFFCURVE",
"551 -8 CURVE SMOOTH"
);
},
{
closed = 1;
nodes = (
"147 0 LINE",
"147 671 LINE",
"105 671 LINE",
"105 0 LINE"
);
}
);
width = 611;
}
);
rightKerningGroup = K;
userData = {
position = 619;
width = 57;
};
},
{
glyphname = R.swsh;
lastChange = "2019-10-11 08:41:28 +0000";
layers = (
{
anchors = (
{
name = bottom;
position = "{378, 0}";
},
{
name = top;
position = "{378, 0}";
}
);
layerId = "873CAA12-270D-4223-A88E-AE8E101FDBE8";
paths = (
{
closed = 1;
nodes = (
"659 -10 OFFCURVE",
"694 32 OFFCURVE",
"694 79 CURVE",
"637 81 LINE",
"637 58 OFFCURVE",
"621 45 OFFCURVE",
"604 45 CURVE SMOOTH",
"594 45 OFFCURVE",
"585 49 OFFCURVE",
"576 61 CURVE SMOOTH",
"530 121 OFFCURVE",
"475 192 OFFCURVE",
"425 257 CURVE SMOOTH",
"415 270 OFFCURVE",
"398 283 OFFCURVE",
"374 289 CURVE",
"382 290 OFFCURVE",
"397 291 OFFCURVE",
"399 291 CURVE SMOOTH",
"501 299 OFFCURVE",
"559 380 OFFCURVE",
"559 478 CURVE SMOOTH",
"559 589 OFFCURVE",
"486 684 OFFCURVE",
"371 684 CURVE SMOOTH",
"135 684 LINE SMOOTH",
"79 684 OFFCURVE",
"32 637 OFFCURVE",
"32 578 CURVE SMOOTH",
"32 541 OFFCURVE",
"50 508 OFFCURVE",
"82 489 CURVE",
"111 537 LINE",
"96 546 OFFCURVE",
"88 561 OFFCURVE",
"88 578 CURVE SMOOTH",
"88 607 OFFCURVE",
"110 628 OFFCURVE",
"137 628 CURVE SMOOTH",
"367 628 LINE SMOOTH",
"449 628 OFFCURVE",
"499 559 OFFCURVE",
"499 476 CURVE SMOOTH",
"499 388 OFFCURVE",
"443 332 OFFCURVE",
"356 332 CURVE SMOOTH",
"271 332 LINE",
"271 276 LINE",
"348 270 OFFCURVE",
"378 228 OFFCURVE",
"404 193 CURVE SMOOTH",
"529 29 LINE SMOOTH",
"549 3 OFFCURVE",
"573 -10 OFFCURVE",
"604 -10 CURVE SMOOTH"
);
},
{
closed = 1;
nodes = (
"216 0 LINE",
"216 582 LINE",
"156 582 LINE",
"156 0 LINE"
);
}
);
width = 719;
},
{
anchors = (
{
name = bottom;
position = "{387, 11}";
},
{
name = top;
position = "{387, 11}";
}
);
layerId = "0CAF3BED-C4AC-4024-B3E1-4C69D1EF7EC0";
paths = (
{
closed = 1;
nodes = (
"670 -10 OFFCURVE",
"711 45 OFFCURVE",
"705 99 CURVE",
"628 98 LINE",
"633 78 OFFCURVE",
"622 66 OFFCURVE",
"606 66 CURVE SMOOTH",
"599 66 OFFCURVE",
"593 68 OFFCURVE",
"586 77 CURVE SMOOTH",
"586 77 OFFCURVE",
"581 83 OFFCURVE",
"573 94 CURVE SMOOTH",
"545 130 OFFCURVE",
"481 212 OFFCURVE",
"439 267 CURVE SMOOTH",
"436 271 OFFCURVE",
"422 281 OFFCURVE",
"409 281 CURVE",
"513 290 OFFCURVE",
"575 375 OFFCURVE",
"575 475 CURVE SMOOTH",
"575 586 OFFCURVE",
"498 686 OFFCURVE",
"380 686 CURVE SMOOTH",
"141 686 LINE SMOOTH",
"82 686 OFFCURVE",
"30 634 OFFCURVE",
"30 572 CURVE SMOOTH",
"30 529 OFFCURVE",
"55 488 OFFCURVE",
"94 470 CURVE",
"135 537 LINE",
"115 545 OFFCURVE",
"108 555 OFFCURVE",
"108 572 CURVE SMOOTH",
"108 593 OFFCURVE",
"124 610 OFFCURVE",
"143 610 CURVE SMOOTH",
"377 610 LINE SMOOTH",
"448 610 OFFCURVE",
"493 548 OFFCURVE",
"493 473 CURVE SMOOTH",
"493 394 OFFCURVE",
"443 345 OFFCURVE",
"366 345 CURVE SMOOTH",
"272 345 LINE",
"272 268 LINE",
"349 264 OFFCURVE",
"371 234 OFFCURVE",
"403 192 CURVE SMOOTH",
"524 32 LINE SMOOTH",
"546 3 OFFCURVE",
"576 -10 OFFCURVE",
"606 -10 CURVE SMOOTH"
);
},
{
closed = 1;
nodes = (
"242 -1 LINE",
"242 569 LINE",
"160 569 LINE",
"160 -1 LINE"
);
}
);
width = 730;
},
{
anchors = (
{
name = bottom;
position = "{383, -10}";
},
{
name = top;
position = "{383, -10}";
}
);
layerId = "49C16FD3-6177-408B-A733-AEB3898BB77C";
paths = (
{
closed = 1;
nodes = (
"659 -9 OFFCURVE",
"692 18 OFFCURVE",
"697 62 CURVE",
"660 63 LINE",
"655 41 OFFCURVE",
"637 26 OFFCURVE",
"618 26 CURVE SMOOTH",
"605 26 OFFCURVE",
"594 31 OFFCURVE",
"580 49 CURVE SMOOTH",
"527 118 OFFCURVE",
"475 184 OFFCURVE",
"420 256 CURVE SMOOTH",
"413 265 OFFCURVE",
"390 289 OFFCURVE",
"354 292 CURVE",
"370 292 OFFCURVE",
"403 292 OFFCURVE",
"403 292 CURVE SMOOTH",
"506 290 OFFCURVE",
"559 386 OFFCURVE",
"559 484 CURVE SMOOTH",
"559 594 OFFCURVE",
"489 685 OFFCURVE",
"376 685 CURVE SMOOTH",
"133 685 LINE SMOOTH",
"81 685 OFFCURVE",
"37 643 OFFCURVE",
"37 587 CURVE SMOOTH",
"37 557 OFFCURVE",
"50 527 OFFCURVE",
"75 510 CURVE",
"93 542 LINE",
"82 552 OFFCURVE",
"74 569 OFFCURVE",
"74 587 CURVE SMOOTH",
"74 620 OFFCURVE",
"103 645 OFFCURVE",
"135 645 CURVE SMOOTH",
"372 645 LINE SMOOTH",
"461 645 OFFCURVE",
"519 569 OFFCURVE",
"519 482 CURVE SMOOTH",
"519 388 OFFCURVE",
"454 321 OFFCURVE",
"361 321 CURVE SMOOTH",
"281 321 LINE",
"281 285 LINE",
"350 276 OFFCURVE",
"380 243 OFFCURVE",
"417 196 CURVE SMOOTH",
"547 28 LINE SMOOTH",
"564 6 OFFCURVE",
"583 -9 OFFCURVE",
"616 -9 CURVE SMOOTH"
);
},
{
closed = 1;
nodes = (
"207 1 LINE",
"207 576 LINE",
"165 576 LINE",
"165 1 LINE"
);
}
);
width = 726;
}
);
leftKerningGroup = Swash;
rightKerningGroup = K;
userData = {
position = 619;
width = 57;
};
},
{
glyphname = S;
lastChange = "2019-10-11 08:41:30 +0000";
layers = (
{
anchors = (
{
name = bottom;
position = "{281, -32}";
},
{
name = top;
position = "{282, 684}";
}
);
layerId = "873CAA12-270D-4223-A88E-AE8E101FDBE8";
paths = (
{
closed = 1;
nodes = (
"408 -21 OFFCURVE",
"508 75 OFFCURVE",
"508 194 CURVE SMOOTH",
"508 299 OFFCURVE",
"429 350 OFFCURVE",
"315 397 CURVE SMOOTH",
"240 428 OFFCURVE",
"159 467 OFFCURVE",
"159 543 CURVE SMOOTH",
"159 608 OFFCURVE",
"223 651 OFFCURVE",
"286 651 CURVE SMOOTH",
"332 651 OFFCURVE",
"389 627 OFFCURVE",
"389 587 CURVE SMOOTH",
"389 562 OFFCURVE",
"368 543 OFFCURVE",
"349 551 CURVE",
"345 496 LINE",
"403 489 OFFCURVE",
"447 528 OFFCURVE",
"447 586 CURVE SMOOTH",
"447 661 OFFCURVE",
"370 706 OFFCURVE",
"285 706 CURVE SMOOTH",
"180 706 OFFCURVE",
"99 637 OFFCURVE",
"99 540 CURVE SMOOTH",
"99 432 OFFCURVE",
"192 390 OFFCURVE",
"280 353 CURVE SMOOTH",
"378 312 OFFCURVE",
"448 279 OFFCURVE",
"448 193 CURVE SMOOTH",
"448 109 OFFCURVE",
"381 34 OFFCURVE",
"277 34 CURVE SMOOTH",
"192 34 OFFCURVE",
"102 85 OFFCURVE",
"79 173 CURVE",
"29 152 LINE",
"55 51 OFFCURVE",
"164 -21 OFFCURVE",
"277 -21 CURVE SMOOTH"
);
}
);
width = 551;
},
{
anchors = (
{
name = bottom;
position = "{280, 0}";
},
{
name = top;
position = "{291, 684}";
}
);
layerId = "0CAF3BED-C4AC-4024-B3E1-4C69D1EF7EC0";
paths = (
{
closed = 1;
nodes = (
"423 -20 OFFCURVE",
"518 84 OFFCURVE",
"518 202 CURVE SMOOTH",
"518 315 OFFCURVE",
"430 371 OFFCURVE",
"317 415 CURVE SMOOTH",
"264 435 OFFCURVE",
"179 472 OFFCURVE",
"179 537 CURVE SMOOTH",
"179 587 OFFCURVE",
"231 629 OFFCURVE",
"293 629 CURVE SMOOTH",
"340 629 OFFCURVE",
"381 606 OFFCURVE",
"381 576 CURVE SMOOTH",
"381 553 OFFCURVE",
"362 543 OFFCURVE",
"347 549 CURVE",
"341 478 LINE",
"400 468 OFFCURVE",
"460 511 OFFCURVE",
"460 577 CURVE SMOOTH",
"460 651 OFFCURVE",
"384 705 OFFCURVE",
"291 705 CURVE SMOOTH",
"187 705 OFFCURVE",
"98 635 OFFCURVE",
"98 533 CURVE SMOOTH",
"98 415 OFFCURVE",
"215 372 OFFCURVE",
"286 343 CURVE SMOOTH",
"383 304 OFFCURVE",
"435 275 OFFCURVE",
"435 201 CURVE SMOOTH",
"435 126 OFFCURVE",
"381 56 OFFCURVE",
"276 56 CURVE SMOOTH",
"193 56 OFFCURVE",
"115 108 OFFCURVE",
"96 196 CURVE",
"27 166 LINE",
"49 59 OFFCURVE",
"145 -20 OFFCURVE",
"274 -20 CURVE SMOOTH"
);
}
);
width = 560;
},
{
anchors = (
{
name = bottom;
position = "{279, 8}";
},
{
name = top;
position = "{271, 684}";
}
);
layerId = "49C16FD3-6177-408B-A733-AEB3898BB77C";
paths = (
{
closed = 1;
nodes = (
"407 -16 OFFCURVE",
"503 74 OFFCURVE",
"503 198 CURVE SMOOTH",
"503 309 OFFCURVE",
"419 357 OFFCURVE",
"291 411 CURVE SMOOTH",
"209 446 OFFCURVE",
"144 469 OFFCURVE",
"144 543 CURVE SMOOTH",
"144 602 OFFCURVE",
"207 661 OFFCURVE",
"289 661 CURVE SMOOTH",
"342 661 OFFCURVE",
"399 635 OFFCURVE",
"399 583 CURVE SMOOTH",
"399 550 OFFCURVE",
"377 537 OFFCURVE",
"358 539 CURVE",
"355 501 LINE",
"406 498 OFFCURVE",
"441 532 OFFCURVE",
"441 585 CURVE SMOOTH",
"441 662 OFFCURVE",
"367 701 OFFCURVE",
"287 701 CURVE SMOOTH",
"179 701 OFFCURVE",
"102 631 OFFCURVE",
"102 541 CURVE SMOOTH",
"102 453 OFFCURVE",
"170 418 OFFCURVE",
"271 376 CURVE SMOOTH",
"381 330 OFFCURVE",
"460 291 OFFCURVE",
"460 197 CURVE SMOOTH",
"460 102 OFFCURVE",
"385 24 OFFCURVE",
"272 24 CURVE SMOOTH",
"187 24 OFFCURVE",
"100 72 OFFCURVE",
"71 164 CURVE",
"33 149 LINE",
"63 52 OFFCURVE",
"156 -16 OFFCURVE",
"271 -16 CURVE SMOOTH"
);
}
);
width = 551;
}
);
leftKerningGroup = S;
rightKerningGroup = S;
unicode = 0053;
userData = {
position = 433;
width = 55;
};
},
{
glyphname = S.ss01;
lastChange = "2019-10-11 08:41:32 +0000";
layers = (
{
anchors = (
{
name = bottom;
position = "{287, 0}";
},
{
name = top;
position = "{280, 684}";
}
);
layerId = "873CAA12-270D-4223-A88E-AE8E101FDBE8";
paths = (
{
closed = 1;
nodes = (
"390 -23 OFFCURVE",
"498 61 OFFCURVE",
"498 186 CURVE SMOOTH",
"498 267 OFFCURVE",
"457 320 OFFCURVE",
"352 376 CURVE SMOOTH",
"285 412 OFFCURVE",
"153 454 OFFCURVE",
"153 544 CURVE SMOOTH",
"153 604 OFFCURVE",
"211 648 OFFCURVE",
"280 648 CURVE SMOOTH",
"324 648 OFFCURVE",
"380 628 OFFCURVE",
"380 586 CURVE",
"436 583 LINE",
"440 652 OFFCURVE",
"367 703 OFFCURVE",
"282 703 CURVE SMOOTH",
"182 703 OFFCURVE",
"93 640 OFFCURVE",
"93 541 CURVE SMOOTH",
"93 437 OFFCURVE",
"191 391 OFFCURVE",
"322 328 CURVE SMOOTH",
"404 288 OFFCURVE",
"438 252 OFFCURVE",
"438 187 CURVE SMOOTH",
"438 95 OFFCURVE",
"365 32 OFFCURVE",
"272 32 CURVE SMOOTH",
"195 32 OFFCURVE",
"108 79 OFFCURVE",
"81 164 CURVE",
"30 144 LINE",
"57 45 OFFCURVE",
"173 -23 OFFCURVE",
"272 -23 CURVE SMOOTH"
);
}
);
width = 540;
},
{
anchors = (
{
name = bottom;
position = "{277, 0}";
},
{
name = top;
position = "{285, 684}";
}
);
layerId = "0CAF3BED-C4AC-4024-B3E1-4C69D1EF7EC0";
paths = (
{
closed = 1;
nodes = (
"399 -21 OFFCURVE",
"507 65 OFFCURVE",
"507 193 CURVE SMOOTH",
"507 279 OFFCURVE",
"460 329 OFFCURVE",
"359 384 CURVE SMOOTH",
"296 418 OFFCURVE",
"176 461 OFFCURVE",
"176 538 CURVE SMOOTH",
"176 587 OFFCURVE",
"226 628 OFFCURVE",
"285 628 CURVE SMOOTH",
"324 628 OFFCURVE",
"379 601 OFFCURVE",
"370 566 CURVE",
"448 561 LINE",
"462 635 OFFCURVE",
"382 704 OFFCURVE",
"287 704 CURVE SMOOTH",
"186 704 OFFCURVE",
"94 637 OFFCURVE",
"94 535 CURVE SMOOTH",
"94 426 OFFCURVE",
"193 381 OFFCURVE",
"312 323 CURVE SMOOTH",
"396 283 OFFCURVE",
"425 251 OFFCURVE",
"425 194 CURVE SMOOTH",
"425 110 OFFCURVE",
"358 55 OFFCURVE",
"277 55 CURVE SMOOTH",
"205 55 OFFCURVE",
"123 102 OFFCURVE",
"101 190 CURVE",
"27 159 LINE",
"49 53 OFFCURVE",
"157 -21 OFFCURVE",
"277 -21 CURVE SMOOTH"
);
}
);
width = 547;
},
{
anchors = (
{
name = bottom;
position = "{262, 0}";
},
{
name = top;
position = "{262, 684}";
}
);
layerId = "49C16FD3-6177-408B-A733-AEB3898BB77C";
paths = (
{
closed = 1;
nodes = (
"387 -21 OFFCURVE",
"491 60 OFFCURVE",
"491 184 CURVE SMOOTH",
"491 264 OFFCURVE",
"430 316 OFFCURVE",
"319 382 CURVE SMOOTH",
"262 416 OFFCURVE",
"142 454 OFFCURVE",
"142 544 CURVE SMOOTH",
"142 608 OFFCURVE",
"206 660 OFFCURVE",
"278 660 CURVE SMOOTH",
"324 660 OFFCURVE",
"382 640 OFFCURVE",
"387 593 CURVE",
"431 591 LINE",
"430 657 OFFCURVE",
"364 700 OFFCURVE",
"281 700 CURVE SMOOTH",
"181 700 OFFCURVE",
"100 638 OFFCURVE",
"100 541 CURVE SMOOTH",
"100 439 OFFCURVE",
"196 407 OFFCURVE",
"306 344 CURVE SMOOTH",
"396 292 OFFCURVE",
"447 254 OFFCURVE",
"447 185 CURVE SMOOTH",
"447 88 OFFCURVE",
"368 19 OFFCURVE",
"270 19 CURVE SMOOTH",
"192 19 OFFCURVE",
"102 67 OFFCURVE",
"72 152 CURVE",
"33 137 LINE",
"62 42 OFFCURVE",
"174 -21 OFFCURVE",
"270 -21 CURVE SMOOTH"
);
}
);
width = 536;
}
);
leftKerningGroup = S;
rightKerningGroup = S;
userData = {
position = 433;
width = 55;
};
},
{
glyphname = S.swsh;
lastChange = "2019-10-13 10:13:16 +0000";
layers = (
{
anchors = (
{
name = bottom;
position = "{272, 0}";
},
{
name = top;
position = "{278, 684}";
}
);
layerId = "873CAA12-270D-4223-A88E-AE8E101FDBE8";
paths = (
{
closed = 1;
nodes = (
"392 -14 OFFCURVE",
"502 67 OFFCURVE",
"502 184 CURVE SMOOTH",
"502 300 OFFCURVE",
"405 356 OFFCURVE",
"303 406 CURVE SMOOTH",
"233 441 OFFCURVE",
"169 473 OFFCURVE",
"169 539 CURVE SMOOTH",
"169 598 OFFCURVE",
"218 642 OFFCURVE",
"280 642 CURVE SMOOTH",
"359 642 OFFCURVE",
"390 611 OFFCURVE",
"390 585 CURVE SMOOTH",
"390 569 OFFCURVE",
"382 560 OFFCURVE",
"371 560 CURVE SMOOTH",
"363 560 OFFCURVE",
"355 566 OFFCURVE",
"352 572 CURVE",
"304 549 LINE",
"319 520 OFFCURVE",
"346 507 OFFCURVE",
"372 507 CURVE SMOOTH",
"417 507 OFFCURVE",
"446 544 OFFCURVE",
"446 589 CURVE SMOOTH",
"446 656 OFFCURVE",
"371 696 OFFCURVE",
"286 696 CURVE SMOOTH",
"188 696 OFFCURVE",
"109 635 OFFCURVE",
"109 539 CURVE SMOOTH",
"109 448 OFFCURVE",
"187 399 OFFCURVE",
"278 356 CURVE SMOOTH",
"363 316 OFFCURVE",
"442 276 OFFCURVE",
"442 185 CURVE SMOOTH",
"442 103 OFFCURVE",
"364 42 OFFCURVE",
"270 42 CURVE SMOOTH",
"194 42 OFFCURVE",
"126 87 OFFCURVE",
"103 146 CURVE SMOOTH",
"93 171 OFFCURVE",
"91 203 OFFCURVE",
"102 232 CURVE",
"48 252 LINE",
"35 214 OFFCURVE",
"36 170 OFFCURVE",
"50 132 CURVE SMOOTH",
"85 38 OFFCURVE",
"174 -14 OFFCURVE",
"272 -14 CURVE SMOOTH"
);
}
);
width = 545;
},
{
anchors = (
{
name = bottom;
position = "{291, -25}";
},
{
name = top;
position = "{296, 694}";
}
);
layerId = "0CAF3BED-C4AC-4024-B3E1-4C69D1EF7EC0";
paths = (
{
closed = 1;
nodes = (
"408 -26 OFFCURVE",
"519 57 OFFCURVE",
"519 182 CURVE SMOOTH",
"519 300 OFFCURVE",
"435 357 OFFCURVE",
"322 411 CURVE SMOOTH",
"262 440 OFFCURVE",
"186 479 OFFCURVE",
"186 542 CURVE SMOOTH",
"186 588 OFFCURVE",
"226 631 OFFCURVE",
"289 631 CURVE SMOOTH",
"341 631 OFFCURVE",
"387 611 OFFCURVE",
"387 585 CURVE SMOOTH",
"387 574 OFFCURVE",
"383 566 OFFCURVE",
"375 566 CURVE SMOOTH",
"369 566 OFFCURVE",
"363 569 OFFCURVE",
"361 575 CURVE",
"299 541 LINE",
"315 510 OFFCURVE",
"347 493 OFFCURVE",
"377 493 CURVE SMOOTH",
"429 493 OFFCURVE",
"464 534 OFFCURVE",
"464 587 CURVE SMOOTH",
"463 642 OFFCURVE",
"415 707 OFFCURVE",
"287 706 CURVE SMOOTH",
"182 705 OFFCURVE",
"104 628 OFFCURVE",
"104 541 CURVE SMOOTH",
"104 444 OFFCURVE",
"189 386 OFFCURVE",
"280 347 CURVE SMOOTH",
"362 312 OFFCURVE",
"437 267 OFFCURVE",
"437 184 CURVE SMOOTH",
"437 109 OFFCURVE",
"363 50 OFFCURVE",
"280 50 CURVE SMOOTH",
"202 50 OFFCURVE",
"140 96 OFFCURVE",
"120 151 CURVE SMOOTH",
"115 163 OFFCURVE",
"113 179 OFFCURVE",
"113 193 CURVE SMOOTH",
"113 201 OFFCURVE",
"114 208 OFFCURVE",
"115 214 CURVE",
"37 231 LINE",
"36 220 OFFCURVE",
"35 210 OFFCURVE",
"35 199 CURVE SMOOTH",
"35 174 OFFCURVE",
"38 150 OFFCURVE",
"46 129 CURVE SMOOTH",
"79 39 OFFCURVE",
"175 -26 OFFCURVE",
"283 -26 CURVE SMOOTH"
);
}
);
width = 561;
},
{
anchors = (
{
name = bottom;
position = "{270, 0}";
},
{
name = top;
position = "{282, 695}";
}
);
layerId = "49C16FD3-6177-408B-A733-AEB3898BB77C";
paths = (
{
closed = 1;
nodes = (
"406 -13 OFFCURVE",
"490 84 OFFCURVE",
"490 183 CURVE SMOOTH",
"490 275 OFFCURVE",
"426 334 OFFCURVE",
"339 378 CURVE SMOOTH",
"257 420 OFFCURVE",
"155 458 OFFCURVE",
"155 541 CURVE SMOOTH",
"155 600 OFFCURVE",
"210 655 OFFCURVE",
"277 655 CURVE SMOOTH",
"327 655 OFFCURVE",
"388 632 OFFCURVE",
"393 595 CURVE SMOOTH",
"397 565 OFFCURVE",
"382 552 OFFCURVE",
"367 552 CURVE SMOOTH",
"357 552 OFFCURVE",
"348 557 OFFCURVE",
"343 568 CURVE",
"307 550 LINE",
"318 524 OFFCURVE",
"344 512 OFFCURVE",
"368 512 CURVE SMOOTH",
"411 512 OFFCURVE",
"435 549 OFFCURVE",
"435 588 CURVE SMOOTH",
"435 656 OFFCURVE",
"362 695 OFFCURVE",
"282 695 CURVE SMOOTH",
"179 695 OFFCURVE",
"113 616 OFFCURVE",
"113 540 CURVE SMOOTH",
"113 429 OFFCURVE",
"227 390 OFFCURVE",
"332 336 CURVE SMOOTH",
"397 303 OFFCURVE",
"448 263 OFFCURVE",
"448 186 CURVE SMOOTH",
"448 97 OFFCURVE",
"369 27 OFFCURVE",
"267 27 CURVE SMOOTH",
"160 27 OFFCURVE",
"85 113 OFFCURVE",
"85 192 CURVE SMOOTH",
"85 205 OFFCURVE",
"87 218 OFFCURVE",
"91 231 CURVE",
"51 244 LINE",
"46 228 OFFCURVE",
"43 211 OFFCURVE",
"43 194 CURVE SMOOTH",
"43 93 OFFCURVE",
"138 -13 OFFCURVE",
"270 -13 CURVE SMOOTH"
);
}
);
width = 538;
},
{
anchors = (
{
name = bottom;
position = "{273, -24}";
},
{
name = top;
position = "{278, 714}";
}
);
associatedMasterId = "49C16FD3-6177-408B-A733-AEB3898BB77C";
layerId = "07BC72AF-B0D1-4139-ADAE-DF16B9206D67";
name = "Sep 24 19, 11:40";
paths = (
{
closed = 1;
nodes = (
"492 228 OFFCURVE",
"470 280 OFFCURVE",
"419 322 CURVE",
"334 394 OFFCURVE",
"204 413 OFFCURVE",
"155 498 CURVE",
"112 575 OFFCURVE",
"181 664 OFFCURVE",
"270 660 CURVE",
"322 659 OFFCURVE",
"386 638 OFFCURVE",
"388 595 CURVE",
"390 546 OFFCURVE",
"348 543 OFFCURVE",
"335 570 CURVE",
"297 551 LINE",
"309 529 OFFCURVE",
"327 516 OFFCURVE",
"351 512 CURVE",
"434 499 OFFCURVE",
"479 630 OFFCURVE",
"369 682 CURVE",
"230 748 OFFCURVE",
"72 653 OFFCURVE",
"99 518 CURVE",
"135 336 OFFCURVE",
"494 360 OFFCURVE",
"442 136 CURVE",
"392 -33 OFFCURVE",
"120 -25 OFFCURVE",
"72 144 CURVE",
"29 131 LINE",
"44 83 OFFCURVE",
"76 42 OFFCURVE",
"117 14 CURVE",
"271 -89 OFFCURVE",
"500 0 OFFCURVE",
"493 183 CURVE"
);
}
);
width = 534;
},
{
anchors = (
{
name = bottom;
position = "{278, -25}";
},
{
name = top;
position = "{283, 706}";
}
);
associatedMasterId = "873CAA12-270D-4223-A88E-AE8E101FDBE8";
layerId = "8F60F1D1-073F-47A4-A90D-78AE31FB1A17";
name = "Sep 24 19, 11:40";
paths = (
{
closed = 1;
nodes = (
"497 236 OFFCURVE",
"475 289 OFFCURVE",
"424 332 CURVE SMOOTH",
"342 400 OFFCURVE",
"215 420 OFFCURVE",
"169 500 CURVE SMOOTH",
"133 565 OFFCURVE",
"184 645 OFFCURVE",
"269 649 CURVE SMOOTH",
"310 649 OFFCURVE",
"372 635 OFFCURVE",
"378 594 CURVE SMOOTH",
"385 549 OFFCURVE",
"348 550 OFFCURVE",
"338 570 CURVE",
"291 546 LINE",
"330 473 OFFCURVE",
"438 499 OFFCURVE",
"436 591 CURVE SMOOTH",
"434 665 OFFCURVE",
"360 700 OFFCURVE",
"275 702 CURVE SMOOTH",
"141 705 OFFCURVE",
"50 566 OFFCURVE",
"128 458 CURVE SMOOTH",
"207 350 OFFCURVE",
"382 351 OFFCURVE",
"432 229 CURVE",
"483 75 OFFCURVE",
"282 -29 OFFCURVE",
"147 71 CURVE SMOOTH",
"119 93 OFFCURVE",
"98 122 OFFCURVE",
"89 155 CURVE",
"35 139 LINE",
"113 -104 OFFCURVE",
"508 -56 OFFCURVE",
"498 191 CURVE SMOOTH"
);
}
);
width = 544;
},
{
anchors = (
{
name = bottom;
position = "{289, -25}";
},
{
name = top;
position = "{294, 696}";
}
);
associatedMasterId = "0CAF3BED-C4AC-4024-B3E1-4C69D1EF7EC0";
layerId = "343A3424-8ADD-44AD-B7AD-98CA22AF63FA";
name = "Sep 24 19, 11:40";
paths = (
{
closed = 1;
nodes = (
"510 346 OFFCURVE",
"334 398 OFFCURVE",
"265 438 CURVE SMOOTH",
"227 459 OFFCURVE",
"180 494 OFFCURVE",
"177 538 CURVE SMOOTH",
"172 577 OFFCURVE",
"202 622 OFFCURVE",
"253 635 CURVE SMOOTH",
"295 646 OFFCURVE",
"359 629 OFFCURVE",
"378 596 CURVE SMOOTH",
"389 577 OFFCURVE",
"380 569 OFFCURVE",
"372 567 CURVE SMOOTH",
"368 566 OFFCURVE",
"362 571 OFFCURVE",
"359 575 CURVE",
"294 543 LINE",
"317 499 OFFCURVE",
"364 486 OFFCURVE",
"402 501 CURVE SMOOTH",
"478 531 OFFCURVE",
"490 662 OFFCURVE",
"356 701 CURVE SMOOTH",
"200 745 OFFCURVE",
"76 638 OFFCURVE",
"101 514 CURVE SMOOTH",
"135 345 OFFCURVE",
"401 359 OFFCURVE",
"433 211 CURVE SMOOTH",
"467 79 OFFCURVE",
"258 -19 OFFCURVE",
"143 102 CURVE SMOOTH",
"130 114 OFFCURVE",
"115 137 OFFCURVE",
"108 162 CURVE",
"35 141 LINE",
"116 -110 OFFCURVE",
"524 -61 OFFCURVE",
"514 196 CURVE SMOOTH"
);
}
);
width = 561;
}
);
leftKerningGroup = S;
rightKerningGroup = S;
userData = {
position = 433;
width = 55;
};
},
{
glyphname = Germandbls;
lastChange = "2019-10-11 08:41:30 +0000";
layers = (
{
anchors = (
{
name = bottom;
position = "{405, 0}";
},
{
name = top;
position = "{405, 684}";
}
);
layerId = "49C16FD3-6177-408B-A733-AEB3898BB77C";
paths = (
{
closed = 1;
nodes = (
"289 0 OFFCURVE",
"309 0 OFFCURVE",
"330 0 CURVE SMOOTH",
"480 0 OFFCURVE",
"581 85 OFFCURVE",
"581 215 CURVE SMOOTH",
"581 360 OFFCURVE",
"478 439 OFFCURVE",
"344 438 CURVE",
"521 684 LINE",
"105 686 LINE",
"105 0 LINE",
"147 0 LINE",
"147 645 LINE",
"443 645 LINE",
"295 438 LINE",
"295 402 LINE",
"304 402 OFFCURVE",
"315 403 OFFCURVE",
"330 403 CURVE SMOOTH",
"460 403 OFFCURVE",
"539 345 OFFCURVE",
"539 211 CURVE SMOOTH",
"539 108 OFFCURVE",
"452 36 OFFCURVE",
"323 36 CURVE SMOOTH",
"303 36 OFFCURVE",
"286 38 OFFCURVE",
"269 38 CURVE",
"269 0 LINE"
);
}
);
width = 630;
},
{
anchors = (
{
name = bottom;
position = "{363, 0}";
},
{
name = top;
position = "{363, 684}";
}
);
layerId = "873CAA12-270D-4223-A88E-AE8E101FDBE8";
paths = (
{
closed = 1;
nodes = (
"292 0 OFFCURVE",
"331 -1 OFFCURVE",
"345 -1 CURVE SMOOTH",
"491 -3 OFFCURVE",
"586 79 OFFCURVE",
"586 216 CURVE SMOOTH",
"586 323 OFFCURVE",
"508 429 OFFCURVE",
"353 436 CURVE",
"542 684 LINE",
"100 685 LINE",
"100 0 LINE",
"160 0 LINE",
"160 629 LINE",
"431 629 LINE",
"287 436 LINE",
"287 381 LINE",
"304 381 OFFCURVE",
"320 382 OFFCURVE",
"335 382 CURVE SMOOTH",
"449 382 OFFCURVE",
"526 326 OFFCURVE",
"526 219 CURVE SMOOTH",
"526 141 OFFCURVE",
"476 63 OFFCURVE",
"379 55 CURVE SMOOTH",
"369 54 OFFCURVE",
"319 53 OFFCURVE",
"266 53 CURVE",
"266 0 LINE"
);
}
);
width = 631;
},
{
anchors = (
{
name = bottom;
position = "{397, 0}";
},
{
name = top;
position = "{397, 684}";
}
);
layerId = "0CAF3BED-C4AC-4024-B3E1-4C69D1EF7EC0";
paths = (
{
closed = 1;
nodes = (
"295 0 OFFCURVE",
"332 0 OFFCURVE",
"354 0 CURVE SMOOTH",
"507 0 OFFCURVE",
"602 64 OFFCURVE",
"602 233 CURVE SMOOTH",
"602 320 OFFCURVE",
"535 432 OFFCURVE",
"389 442 CURVE",
"573 684 LINE",
"97 684 LINE",
"97 -1 LINE",
"179 -1 LINE",
"179 608 LINE",
"416 608 LINE",
"295 445 LINE",
"295 372 LINE",
"307 372 OFFCURVE",
"320 373 OFFCURVE",
"333 373 CURVE SMOOTH",
"419 373 OFFCURVE",
"519 330 OFFCURVE",
"520 232 CURVE SMOOTH",
"521 113 OFFCURVE",
"458 77 OFFCURVE",
"341 77 CURVE SMOOTH",
"320 77 OFFCURVE",
"299 78 OFFCURVE",
"272 78 CURVE",
"272 0 LINE"
);
}
);
width = 648;
}
);
rightKerningGroup = B;
unicode = 1E9E;
},
{
glyphname = Schwa;
lastChange = "2019-10-11 08:41:31 +0000";
layers = (
{
anchors = (
{
name = bottom;
position = "{323, 712}";
},
{
name = ogonek;
position = "{83, 630}";
},
{
name = top;
position = "{320, -19}";
}
);
layerId = "49C16FD3-6177-408B-A733-AEB3898BB77C";
paths = (
{
closed = 1;
nodes = (
"235 702 OFFCURVE",
"152 674 OFFCURVE",
"83 630 CURVE",
"101 600 LINE",
"174 638 OFFCURVE",
"234 663 OFFCURVE",
"318 663 CURVE SMOOTH",
"553 663 OFFCURVE",
"573 443 OFFCURVE",
"573 365 CURVE SMOOTH",
"573 138 OFFCURVE",
"457 20 OFFCURVE",
"323 20 CURVE SMOOTH",
"198 20 OFFCURVE",
"96 123 OFFCURVE",
"96 265 CURVE SMOOTH",
"96 289 OFFCURVE",
"98 318 OFFCURVE",
"104 352 CURVE",
"61 352 LINE",
"58 322 OFFCURVE",
"56 295 OFFCURVE",
"56 269 CURVE SMOOTH",
"56 101 OFFCURVE",
"164 -14 OFFCURVE",
"322 -14 CURVE SMOOTH",
"514 -14 OFFCURVE",
"615 161 OFFCURVE",
"615 365 CURVE SMOOTH",
"615 566 OFFCURVE",
"514 702 OFFCURVE",
"323 702 CURVE SMOOTH"
);
},
{
closed = 1;
nodes = (
"87 352 LINE",
"87 312 LINE",
"588 312 LINE",
"588 352 LINE"
);
}
);
userData = {
RMXScaler = {
height = 140;
weight = -145;
width = 135;
};
};
width = 679;
},
{
anchors = (
{
name = bottom;
position = "{326, 708}";
},
{
name = ogonek;
position = "{80, 630}";
},
{
name = top;
position = "{325, -14}";
}
);
layerId = "873CAA12-270D-4223-A88E-AE8E101FDBE8";
paths = (
{
closed = 1;
nodes = (
"231 707 OFFCURVE",
"144 674 OFFCURVE",
"80 630 CURVE",
"105 588 LINE",
"177 626 OFFCURVE",
"238 652 OFFCURVE",
"321 652 CURVE SMOOTH",
"546 652 OFFCURVE",
"562 444 OFFCURVE",
"562 368 CURVE SMOOTH",
"562 150 OFFCURVE",
"454 35 OFFCURVE",
"327 35 CURVE SMOOTH",
"208 35 OFFCURVE",
"111 134 OFFCURVE",
"111 269 CURVE SMOOTH",
"111 296 OFFCURVE",
"114 326 OFFCURVE",
"121 363 CURVE",
"57 363 LINE",
"54 331 OFFCURVE",
"51 301 OFFCURVE",
"51 273 CURVE SMOOTH",
"51 105 OFFCURVE",
"167 -14 OFFCURVE",
"325 -14 CURVE SMOOTH",
"519 -14 OFFCURVE",
"622 165 OFFCURVE",
"622 367 CURVE SMOOTH",
"622 568 OFFCURVE",
"518 707 OFFCURVE",
"327 707 CURVE SMOOTH"
);
},
{
closed = 1;
nodes = (
"86 363 LINE",
"86 307 LINE",
"595 307 LINE",
"595 363 LINE"
);
}
);
userData = {
RMXScaler = {
height = 140;
weight = -145;
width = 135;
};
};
width = 680;
},
{
anchors = (
{
name = bottom;
position = "{333, 696}";
},
{
name = ogonek;
position = "{75, 629}";
},
{
name = top;
position = "{337, -14}";
}
);
layerId = "0CAF3BED-C4AC-4024-B3E1-4C69D1EF7EC0";
paths = (
{
closed = 1;
nodes = (
"238 712 OFFCURVE",
"146 680 OFFCURVE",
"75 629 CURVE",
"112 569 LINE",
"191 612 OFFCURVE",
"250 636 OFFCURVE",
"326 636 CURVE SMOOTH",
"536 636 OFFCURVE",
"549 442 OFFCURVE",
"549 370 CURVE SMOOTH",
"549 162 OFFCURVE",
"450 59 OFFCURVE",
"331 59 CURVE SMOOTH",
"221 59 OFFCURVE",
"133 146 OFFCURVE",
"133 273 CURVE SMOOTH",
"133 296 OFFCURVE",
"136 328 OFFCURVE",
"144 377 CURVE",
"58 377 LINE",
"55 339 OFFCURVE",
"51 307 OFFCURVE",
"51 277 CURVE SMOOTH",
"51 106 OFFCURVE",
"173 -15 OFFCURVE",
"330 -15 CURVE SMOOTH",
"526 -15 OFFCURVE",
"632 169 OFFCURVE",
"632 369 CURVE SMOOTH",
"632 568 OFFCURVE",
"525 712 OFFCURVE",
"331 712 CURVE SMOOTH"
);
},
{
closed = 1;
nodes = (
"86 377 LINE",
"86 301 LINE",
"605 301 LINE",
"605 377 LINE"
);
}
);
userData = {
RMXScaler = {
height = 140;
weight = -120;
width = 135;
};
};
width = 687;
}
);
leftKerningGroup = O;
rightKerningGroup = O;
unicode = 018F;
userData = {
RMXScaler = {
source = e.ss01;
};
};
},
{
glyphname = T;
lastChange = "2019-10-11 08:41:29 +0000";
layers = (
{
anchors = (
{
name = bottom;
position = "{309, 0}";
},
{
name = center;
position = "{315, 352}";
},
{
name = top;
position = "{308, 684}";
}
);
layerId = "873CAA12-270D-4223-A88E-AE8E101FDBE8";
paths = (
{
closed = 1;
nodes = (
"338 0 LINE",
"338 628 LINE",
"577 628 LINE",
"577 684 LINE",
"114 684 LINE SMOOTH",
"90 684 OFFCURVE",
"69 674 OFFCURVE",
"52 657 CURVE SMOOTH",
"35 640 OFFCURVE",
"26 618 OFFCURVE",
"26 594 CURVE",
"83 594 LINE",
"83 610 OFFCURVE",
"95 628 OFFCURVE",
"117 628 CURVE SMOOTH",
"278 628 LINE",
"278 0 LINE"
);
}
);
width = 603;
},
{
anchors = (
{
name = bottom;
position = "{312, 0}";
},
{
name = center;
position = "{310, 352}";
},
{
name = top;
position = "{317, 684}";
}
);
layerId = "0CAF3BED-C4AC-4024-B3E1-4C69D1EF7EC0";
paths = (
{
closed = 1;
nodes = (
"352 -1 LINE",
"352 610 LINE",
"583 610 LINE",
"583 686 LINE",
"123 686 LINE SMOOTH",
"97 686 OFFCURVE",
"72 675 OFFCURVE",
"54 657 CURVE SMOOTH",
"33 636 OFFCURVE",
"23 605 OFFCURVE",
"26 576 CURVE",
"104 576 LINE",
"97 595 OFFCURVE",
"108 610 OFFCURVE",
"126 610 CURVE SMOOTH",
"270 610 LINE",
"270 -1 LINE"
);
}
);
width = 608;
},
{
anchors = (
{
name = bottom;
position = "{311, 0}";
},
{
name = center;
position = "{310, 352}";
},
{
name = top;
position = "{309, 684}";
}
);
layerId = "49C16FD3-6177-408B-A733-AEB3898BB77C";
paths = (
{
closed = 1;
nodes = (
"330 1 LINE",
"330 645 LINE",
"574 645 LINE",
"574 685 LINE",
"111 685 LINE SMOOTH",
"87 685 OFFCURVE",
"70 676 OFFCURVE",
"54 660 CURVE SMOOTH",
"39 645 OFFCURVE",
"31 630 OFFCURVE",
"30 610 CURVE",
"71 610 LINE",
"76 629 OFFCURVE",
"92 645 OFFCURVE",
"114 645 CURVE SMOOTH",
"288 645 LINE",
"288 1 LINE"
);
}
);
width = 603;
}
);
leftKerningGroup = T;
rightKerningGroup = T;
unicode = 0054;
userData = {
position = 277;
width = 61;
};
},
{
glyphname = T.ss01;
lastChange = "2019-10-11 08:41:29 +0000";
layers = (
{
anchors = (
{
name = bottom;
position = "{295, 0}";
},
{
name = center;
position = "{301, 361}";
},
{
name = top;
position = "{295, 684}";
}
);
layerId = "873CAA12-270D-4223-A88E-AE8E101FDBE8";
paths = (
{
closed = 1;
nodes = (
"325 0 LINE",
"325 628 LINE",
"564 628 LINE",
"564 684 LINE",
"26 684 LINE",
"26 628 LINE",
"265 628 LINE",
"265 0 LINE"
);
}
);
width = 590;
},
{
anchors = (
{
name = bottom;
position = "{299, 0}";
},
{
name = center;
position = "{304, 355}";
},
{
name = top;
position = "{298, 684}";
}
);
layerId = "0CAF3BED-C4AC-4024-B3E1-4C69D1EF7EC0";
paths = (
{
closed = 1;
nodes = (
"339 -1 LINE",
"339 610 LINE",
"571 610 LINE",
"571 686 LINE",
"25 686 LINE",
"25 610 LINE",
"257 610 LINE",
"257 -1 LINE"
);
}
);
width = 596;
},
{
anchors = (
{
name = bottom;
position = "{299, 0}";
},
{
name = center;
position = "{301, 348}";
},
{
name = top;
position = "{295, 684}";
}
);
layerId = "49C16FD3-6177-408B-A733-AEB3898BB77C";
paths = (
{
closed = 1;
nodes = (
"319 1 LINE",
"319 644 LINE",
"563 644 LINE",
"563 685 LINE",
"29 685 LINE",
"29 644 LINE",
"274 644 LINE",
"274 1 LINE"
);
}
);
width = 592;
}
);
leftKerningGroup = T;
rightKerningGroup = T;
userData = {
position = 254;
width = 61;
};
},
{
glyphname = T.swsh;
lastChange = "2019-10-11 08:41:30 +0000";
layers = (
{
anchors = (
{
name = bottom;
position = "{314, 0}";
},
{
name = center;
position = "{319, 342}";
},
{
name = top;
position = "{315, 684}";
}
);
layerId = "873CAA12-270D-4223-A88E-AE8E101FDBE8";
paths = (
{
closed = 1;
nodes = (
"343 0 LINE",
"343 628 LINE",
"582 628 LINE",
"582 684 LINE",
"119 684 LINE SMOOTH",
"82 684 OFFCURVE",
"31 653 OFFCURVE",
"31 594 CURVE SMOOTH",
"31 562 OFFCURVE",
"45 536 OFFCURVE",
"71 518 CURVE",
"103 565 LINE",
"95 570 OFFCURVE",
"88 580 OFFCURVE",
"88 593 CURVE SMOOTH",
"88 610 OFFCURVE",
"100 628 OFFCURVE",
"122 628 CURVE SMOOTH",
"283 628 LINE",
"283 0 LINE"
);
}
);
width = 608;
},
{
anchors = (
{
name = bottom;
position = "{316, 0}";
},
{
name = center;
position = "{320, 343}";
},
{
name = top;
position = "{315, 687}";
}
);
layerId = "0CAF3BED-C4AC-4024-B3E1-4C69D1EF7EC0";
paths = (
{
closed = 1;
nodes = (
"355 -1 LINE",
"355 608 LINE",
"586 608 LINE",
"586 686 LINE",
"126 686 LINE SMOOTH",
"86 686 OFFCURVE",
"29 651 OFFCURVE",
"29 587 CURVE SMOOTH",
"29 549 OFFCURVE",
"49 516 OFFCURVE",
"82 498 CURVE",
"125 561 LINE",
"112 568 OFFCURVE",
"107 574 OFFCURVE",
"107 586 CURVE SMOOTH",
"107 597 OFFCURVE",
"115 608 OFFCURVE",
"129 608 CURVE SMOOTH",
"273 608 LINE",
"273 -1 LINE"
);
}
);
width = 612;
},
{
anchors = (
{
name = bottom;
position = "{314, 0}";
},
{
name = center;
position = "{321, 343}";
},
{
name = top;
position = "{315, 684}";
}
);
layerId = "49C16FD3-6177-408B-A733-AEB3898BB77C";
paths = (
{
closed = 1;
nodes = (
"335 1 LINE",
"335 645 LINE",
"579 645 LINE",
"579 685 LINE",
"116 685 LINE SMOOTH",
"81 685 OFFCURVE",
"35 656 OFFCURVE",
"35 602 CURVE SMOOTH",
"35 574 OFFCURVE",
"44 552 OFFCURVE",
"65 536 CURVE",
"87 570 LINE",
"79 579 OFFCURVE",
"76 591 OFFCURVE",
"76 601 CURVE SMOOTH",
"76 620 OFFCURVE",
"92 645 OFFCURVE",
"119 645 CURVE SMOOTH",
"293 645 LINE",
"293 1 LINE"
);
}
);
width = 608;
}
);
leftKerningGroup = T;
rightKerningGroup = T;
userData = {
position = 277;
width = 61;
};
},
{
glyphname = U;
lastChange = "2019-10-11 08:41:27 +0000";
layers = (
{
anchors = (
{
name = bottom;
position = "{406, -10}";
},
{
name = center;
position = "{405, 342}";
},
{
name = horn;
position = "{644, 684}";
},
{
name = ogonek;
position = "{572, 43}";
},
{
name = top;
position = "{404, 684}";
},
{
name = topright;
position = "{722, 684}";
}
);
layerId = "873CAA12-270D-4223-A88E-AE8E101FDBE8";
paths = (
{
closed = 1;
nodes = (
"592 -10 OFFCURVE",
"671 132 OFFCURVE",
"671 267 CURVE SMOOTH",
"671 684 LINE",
"611 684 LINE",
"611 267 LINE SMOOTH",
"611 161 OFFCURVE",
"554 46 OFFCURVE",
"405 46 CURVE SMOOTH",
"267 46 OFFCURVE",
"198 145 OFFCURVE",
"198 267 CURVE SMOOTH",
"198 594 LINE SMOOTH",
"198 658 OFFCURVE",
"162 692 OFFCURVE",
"102 692 CURVE SMOOTH",
"71 692 OFFCURVE",
"38 675 OFFCURVE",
"20 649 CURVE",
"70 615 LINE",
"77 626 OFFCURVE",
"90 632 OFFCURVE",
"104 632 CURVE SMOOTH",
"118 632 OFFCURVE",
"138 626 OFFCURVE",
"138 594 CURVE SMOOTH",
"138 267 LINE SMOOTH",
"138 118 OFFCURVE",
"230 -10 OFFCURVE",
"406 -10 CURVE SMOOTH"
);
}
);
width = 755;
},
{
anchors = (
{
name = bottom;
position = "{408, 2}";
},
{
name = center;
position = "{407, 342}";
},
{
name = horn;
position = "{658, 683}";
},
{
name = ogonek;
position = "{563, 46}";
},
{
name = top;
position = "{406, 675}";
},
{
name = topright;
position = "{728, 684}";
}
);
layerId = "0CAF3BED-C4AC-4024-B3E1-4C69D1EF7EC0";
paths = (
{
closed = 1;
nodes = (
"595 -13 OFFCURVE",
"677 133 OFFCURVE",
"677 267 CURVE SMOOTH",
"677 683 LINE",
"595 683 LINE",
"595 267 LINE SMOOTH",
"595 169 OFFCURVE",
"542 62 OFFCURVE",
"407 62 CURVE SMOOTH",
"281 62 OFFCURVE",
"218 158 OFFCURVE",
"218 267 CURVE SMOOTH",
"218 584 LINE SMOOTH",
"218 651 OFFCURVE",
"176 691 OFFCURVE",
"113 691 CURVE SMOOTH",
"76 691 OFFCURVE",
"36 667 OFFCURVE",
"20 634 CURVE",
"84 593 LINE",
"89 607 OFFCURVE",
"100 615 OFFCURVE",
"113 615 CURVE SMOOTH",
"122 615 OFFCURVE",
"136 612 OFFCURVE",
"136 584 CURVE SMOOTH",
"136 267 LINE SMOOTH",
"136 119 OFFCURVE",
"231 -13 OFFCURVE",
"408 -13 CURVE SMOOTH"
);
}
);
width = 758;
},
{
anchors = (
{
name = bottom;
position = "{406, -18}";
},
{
name = center;
position = "{405, 342}";
},
{
name = horn;
position = "{663, 684}";
},
{
name = ogonek;
position = "{572, 37}";
},
{
name = top;
position = "{397, 684}";
},
{
name = topright;
position = "{716, 684}";
}
);
layerId = "49C16FD3-6177-408B-A733-AEB3898BB77C";
paths = (
{
closed = 1;
nodes = (
"592 -10 OFFCURVE",
"667 130 OFFCURVE",
"667 265 CURVE SMOOTH",
"667 684 LINE",
"625 684 LINE",
"625 265 LINE SMOOTH",
"625 155 OFFCURVE",
"563 30 OFFCURVE",
"405 30 CURVE SMOOTH",
"259 30 OFFCURVE",
"185 138 OFFCURVE",
"185 265 CURVE SMOOTH",
"185 600 LINE SMOOTH",
"185 662 OFFCURVE",
"154 692 OFFCURVE",
"97 692 CURVE SMOOTH",
"71 692 OFFCURVE",
"43 679 OFFCURVE",
"25 659 CURVE",
"62 634 LINE",
"70 644 OFFCURVE",
"84 651 OFFCURVE",
"99 651 CURVE SMOOTH",
"114 651 OFFCURVE",
"143 640 OFFCURVE",
"143 600 CURVE SMOOTH",
"143 265 LINE SMOOTH",
"143 116 OFFCURVE",
"231 -10 OFFCURVE",
"406 -10 CURVE SMOOTH"
);
}
);
width = 756;
}
);
leftKerningGroup = E;
rightKerningGroup = U;
unicode = 0055;
userData = {
position = 606;
width = 61;
};
},
{
glyphname = U.ss01;
lastChange = "2019-10-11 08:41:28 +0000";
layers = (
{
anchors = (
{
name = bottom;
position = "{350, -10}";
},
{
name = center;
position = "{352, 342}";
},
{
name = horn;
position = "{599, 684}";
},
{
name = ogonek;
position = "{546, 67}";
},
{
name = top;
position = "{357, 684}";
},
{
name = topright;
position = "{676, 684}";
}
);
layerId = "873CAA12-270D-4223-A88E-AE8E101FDBE8";
paths = (
{
closed = 1;
nodes = (
"509 -10 OFFCURVE",
"619 98 OFFCURVE",
"619 267 CURVE SMOOTH",
"619 684 LINE",
"558 684 LINE",
"558 267 LINE SMOOTH",
"558 133 OFFCURVE",
"477 45 OFFCURVE",
"352 45 CURVE SMOOTH",
"229 45 OFFCURVE",
"145 131 OFFCURVE",
"145 267 CURVE SMOOTH",
"145 684 LINE",
"84 684 LINE",
"84 267 LINE SMOOTH",
"84 108 OFFCURVE",
"185 -10 OFFCURVE",
"350 -10 CURVE SMOOTH"
);
}
);
width = 703;
},
{
anchors = (
{
name = bottom;
position = "{352, 0}";
},
{
name = center;
position = "{352, 342}";
},
{
name = horn;
position = "{613, 686}";
},
{
name = ogonek;
position = "{541, 63}";
},
{
name = top;
position = "{357, 675}";
},
{
name = topright;
position = "{677, 684}";
}
);
layerId = "0CAF3BED-C4AC-4024-B3E1-4C69D1EF7EC0";
paths = (
{
closed = 1;
nodes = (
"509 -10 OFFCURVE",
"623 101 OFFCURVE",
"623 270 CURVE SMOOTH",
"623 686 LINE",
"541 686 LINE",
"541 270 LINE SMOOTH",
"541 147 OFFCURVE",
"467 63 OFFCURVE",
"352 63 CURVE SMOOTH",
"240 63 OFFCURVE",
"163 145 OFFCURVE",
"163 270 CURVE SMOOTH",
"163 686 LINE",
"81 686 LINE",
"81 270 LINE SMOOTH",
"81 112 OFFCURVE",
"185 -10 OFFCURVE",
"350 -10 CURVE SMOOTH"
);
}
);
width = 704;
},
{
anchors = (
{
name = bottom;
position = "{352, -9}";
},
{
name = center;
position = "{355, 342}";
},
{
name = horn;
position = "{611, 685}";
},
{
name = ogonek;
position = "{553, 61}";
},
{
name = top;
position = "{361, 694}";
},
{
name = topright;
position = "{690, 686}";
}
);
layerId = "49C16FD3-6177-408B-A733-AEB3898BB77C";
paths = (
{
closed = 1;
nodes = (
"513 -9 OFFCURVE",
"620 98 OFFCURVE",
"620 266 CURVE SMOOTH",
"620 685 LINE",
"575 685 LINE",
"575 266 LINE SMOOTH",
"575 126 OFFCURVE",
"487 30 OFFCURVE",
"355 30 CURVE SMOOTH",
"225 30 OFFCURVE",
"134 124 OFFCURVE",
"134 266 CURVE SMOOTH",
"134 685 LINE",
"89 685 LINE",
"89 266 LINE SMOOTH",
"89 107 OFFCURVE",
"188 -9 OFFCURVE",
"353 -9 CURVE SMOOTH"
);
}
);
width = 709;
}
);
leftKerningGroup = U;
rightKerningGroup = U;
userData = {
position = 564;
width = 61;
};
},
{
glyphname = U.swsh;
lastChange = "2019-10-07 12:43:16 +0000";
layers = (
{
anchors = (
{
name = bottom;
position = "{422, -10}";
},
{
name = center;
position = "{424, 342}";
},
{
name = horn;
position = "{692, 500}";
},
{
name = ogonek;
position = "{618, 67}";
},
{
name = top;
position = "{429, 684}";
},
{
name = topright;
position = "{745, 684}";
}
);
components = (
{
name = _top_swash.part;
transform = "{1, 0, 0, 1, -17, 0}";
}
);
layerId = "873CAA12-270D-4223-A88E-AE8E101FDBE8";
paths = (
{
closed = 1;
nodes = (
"581 -10 OFFCURVE",
"691 98 OFFCURVE",
"691 267 CURVE SMOOTH",
"691 684 LINE",
"630 684 LINE",
"630 267 LINE SMOOTH",
"630 133 OFFCURVE",
"549 45 OFFCURVE",
"424 45 CURVE SMOOTH",
"301 45 OFFCURVE",
"217 131 OFFCURVE",
"217 267 CURVE SMOOTH",
"217 534 LINE",
"156 534 LINE",
"156 267 LINE SMOOTH",
"156 108 OFFCURVE",
"257 -10 OFFCURVE",
"422 -10 CURVE SMOOTH"
);
}
);
width = 775;
},
{
anchors = (
{
name = bottom;
position = "{424, 0}";
},
{
name = center;
position = "{424, 342}";
},
{
name = horn;
position = "{689, 500}";
},
{
name = ogonek;
position = "{613, 63}";
},
{
name = top;
position = "{429, 675}";
},
{
name = topright;
position = "{749, 684}";
}
);
components = (
{
name = _top_swash.part;
transform = "{1, 0, 0, 1, -24, 0}";
}
);
layerId = "0CAF3BED-C4AC-4024-B3E1-4C69D1EF7EC0";
paths = (
{
closed = 1;
nodes = (
"581 -10 OFFCURVE",
"695 101 OFFCURVE",
"695 270 CURVE SMOOTH",
"695 686 LINE",
"613 686 LINE",
"613 270 LINE SMOOTH",
"613 147 OFFCURVE",
"539 63 OFFCURVE",
"424 63 CURVE SMOOTH",
"312 63 OFFCURVE",
"235 145 OFFCURVE",
"235 270 CURVE SMOOTH",
"235 536 LINE",
"153 536 LINE",
"153 270 LINE SMOOTH",
"153 112 OFFCURVE",
"257 -10 OFFCURVE",
"422 -10 CURVE SMOOTH"
);
}
);
width = 776;
},
{
anchors = (
{
name = bottom;
position = "{413, -9}";
},
{
name = center;
position = "{416, 342}";
},
{
name = horn;
position = "{679, 549}";
},
{
name = ogonek;
position = "{614, 61}";
},
{
name = top;
position = "{422, 694}";
},
{
name = topright;
position = "{674, 684}";
}
);
components = (
{
name = _top_swash.part;
transform = "{1, 0, 0, 1, 5, 0}";
}
);
layerId = "49C16FD3-6177-408B-A733-AEB3898BB77C";
paths = (
{
closed = 1;
nodes = (
"574 -9 OFFCURVE",
"681 98 OFFCURVE",
"681 266 CURVE SMOOTH",
"681 685 LINE",
"636 685 LINE",
"636 266 LINE SMOOTH",
"636 126 OFFCURVE",
"548 30 OFFCURVE",
"416 30 CURVE SMOOTH",
"286 30 OFFCURVE",
"195 124 OFFCURVE",
"195 266 CURVE SMOOTH",
"195 570 LINE",
"150 570 LINE",
"150 266 LINE SMOOTH",
"150 107 OFFCURVE",
"249 -9 OFFCURVE",
"414 -9 CURVE SMOOTH"
);
}
);
width = 762;
}
);
leftKerningGroup = Swash;
rightKerningGroup = U;
userData = {
position = 564;
width = 61;
};
},
{
glyphname = V;
lastChange = "2019-10-11 08:41:27 +0000";
layers = (
{
anchors = (
{
name = bottom;
position = "{377, 0}";
},
{
name = top;
position = "{377, 684}";
}
);
layerId = "873CAA12-270D-4223-A88E-AE8E101FDBE8";
paths = (
{
closed = 1;
nodes = (
"406 0 LINE",
"632 685 LINE",
"572 685 LINE",
"386 123 LINE",
"377 84 LINE",
"368 122 LINE",
"192 638 LINE SMOOTH",
"182 667 OFFCURVE",
"152 690 OFFCURVE",
"114 690 CURVE SMOOTH",
"73 690 OFFCURVE",
"36 665 OFFCURVE",
"23 623 CURVE",
"79 607 LINE",
"85 622 OFFCURVE",
"99 632 OFFCURVE",
"112 632 CURVE SMOOTH",
"125 632 OFFCURVE",
"137 623 OFFCURVE",
"142 610 CURVE SMOOTH",
"348 0 LINE"
);
}
);
width = 662;
},
{
anchors = (
{
name = bottom;
position = "{377, 0}";
},
{
name = top;
position = "{379, 684}";
}
);
layerId = "0CAF3BED-C4AC-4024-B3E1-4C69D1EF7EC0";
paths = (
{
closed = 1;
nodes = (
"416 -1 LINE",
"644 687 LINE",
"562 687 LINE",
"389 163 LINE",
"379 123 LINE",
"369 161 LINE",
"211 636 LINE SMOOTH",
"201 667 OFFCURVE",
"165 692 OFFCURVE",
"124 692 CURVE SMOOTH",
"77 692 OFFCURVE",
"31 659 OFFCURVE",
"22 607 CURVE",
"96 586 LINE",
"99 604 OFFCURVE",
"110 611 OFFCURVE",
"119 611 CURVE SMOOTH",
"131 611 OFFCURVE",
"137 607 OFFCURVE",
"140 599 CURVE SMOOTH",
"342 -1 LINE"
);
}
);
width = 672;
},
{
anchors = (
{
name = bottom;
position = "{381, 0}";
},
{
name = top;
position = "{380, 684}";
}
);
layerId = "49C16FD3-6177-408B-A733-AEB3898BB77C";
paths = (
{
closed = 1;
nodes = (
"402 1 LINE",
"627 686 LINE",
"580 686 LINE",
"391 98 LINE",
"380 53 LINE",
"369 97 LINE",
"185 644 LINE SMOOTH",
"176 672 OFFCURVE",
"147 691 OFFCURVE",
"111 691 CURVE SMOOTH",
"74 691 OFFCURVE",
"42 670 OFFCURVE",
"28 634 CURVE",
"72 622 LINE",
"80 636 OFFCURVE",
"96 646 OFFCURVE",
"109 646 CURVE SMOOTH",
"124 646 OFFCURVE",
"140 634 OFFCURVE",
"146 619 CURVE SMOOTH",
"355 1 LINE"
);
}
);
width = 662;
}
);
leftKerningGroup = V;
rightKerningGroup = V;
unicode = 0056;
userData = {
position = 631;
width = 59;
};
},
{
glyphname = V.ss01;
lastChange = "2019-10-11 08:41:30 +0000";
layers = (
{
anchors = (
{
name = bottom;
position = "{307, 0}";
},
{
name = top;
position = "{309, 679}";
}
);
layerId = "873CAA12-270D-4223-A88E-AE8E101FDBE8";
paths = (
{
closed = 1;
nodes = (
"337 0 LINE",
"570 685 LINE",
"509 685 LINE",
"307 86 LINE",
"117 625 LINE SMOOTH",
"108 652 OFFCURVE",
"80 690 OFFCURVE",
"29 690 CURVE",
"29 631 LINE",
"44 629 OFFCURVE",
"57 625 OFFCURVE",
"62 610 CURVE SMOOTH",
"278 0 LINE"
);
}
);
width = 600;
},
{
anchors = (
{
name = bottom;
position = "{309, 0}";
},
{
name = top;
position = "{309, 684}";
}
);
layerId = "0CAF3BED-C4AC-4024-B3E1-4C69D1EF7EC0";
paths = (
{
closed = 1;
nodes = (
"346 -1 LINE",
"580 687 LINE",
"497 687 LINE",
"309 132 LINE",
"136 621 LINE SMOOTH",
"117 673 OFFCURVE",
"79 691 OFFCURVE",
"28 691 CURVE",
"28 613 LINE",
"48 610 OFFCURVE",
"56 610 OFFCURVE",
"60 599 CURVE SMOOTH",
"273 -1 LINE"
);
}
);
width = 607;
},
{
anchors = (
{
name = bottom;
position = "{309, 3}";
},
{
name = top;
position = "{309, 684}";
}
);
layerId = "49C16FD3-6177-408B-A733-AEB3898BB77C";
paths = (
{
closed = 1;
nodes = (
"333 1 LINE",
"566 686 LINE",
"520 686 LINE",
"309 59 LINE",
"109 629 LINE SMOOTH",
"100 654 OFFCURVE",
"77 687 OFFCURVE",
"33 690 CURVE",
"33 644 LINE",
"47 641 OFFCURVE",
"60 635 OFFCURVE",
"66 618 CURVE SMOOTH",
"284 1 LINE"
);
}
);
width = 601;
}
);
leftKerningGroup = V;
rightKerningGroup = V;
userData = {
position = 631;
width = 59;
};
},
{
glyphname = V.swsh;
lastChange = "2019-10-11 09:21:45 +0000";
layers = (
{
anchors = (
{
name = bottom;
position = "{392, 0}";
},
{
name = top;
position = "{392, 684}";
}
);
components = (
{
name = _top_swash.part;
transform = "{0.94708, 0.32099, -0.32099, 0.94708, 206, -14}";
}
);
layerId = "873CAA12-270D-4223-A88E-AE8E101FDBE8";
paths = (
{
closed = 1;
nodes = (
"421 0 LINE",
"647 685 LINE",
"587 685 LINE",
"401 123 LINE",
"392 84 LINE",
"383 122 LINE",
"255 508 LINE",
"171 569 LINE",
"363 0 LINE"
);
}
);
width = 684;
},
{
anchors = (
{
name = bottom;
position = "{392, 0}";
},
{
name = top;
position = "{394, 684}";
}
);
components = (
{
name = _top_swash.part;
transform = "{0.95254, 0.30441, -0.30441, 0.95254, 177, -25}";
}
);
layerId = "0CAF3BED-C4AC-4024-B3E1-4C69D1EF7EC0";
paths = (
{
closed = 1;
nodes = (
"431 -1 LINE",
"659 687 LINE",
"577 687 LINE",
"404 163 LINE",
"394 123 LINE",
"384 161 LINE",
"242 588 LINE",
"187 493 LINE",
"357 -1 LINE"
);
}
);
width = 693;
},
{
anchors = (
{
name = bottom;
position = "{385, 0}";
},
{
name = top;
position = "{384, 684}";
}
);
components = (
{
name = _top_swash.part;
transform = "{0.94708, 0.32099, -0.32099, 0.94708, 155, 0}";
}
);
layerId = "49C16FD3-6177-408B-A733-AEB3898BB77C";
paths = (
{
closed = 1;
nodes = (
"406 1 LINE",
"631 686 LINE",
"584 686 LINE",
"395 98 LINE",
"384 53 LINE",
"373 97 LINE",
"191 633 LINE",
"152 614 LINE",
"359 1 LINE"
);
}
);
width = 665;
}
);
leftKerningGroup = V;
rightKerningGroup = V;
userData = {
position = 631;
width = 59;
};
},
{
glyphname = W;
lastChange = "2019-10-11 08:41:28 +0000";
layers = (
{
anchors = (
{
name = bottom;
position = "{555, 0}";
},
{
name = top;
position = "{595, 684}";
}
);
layerId = "873CAA12-270D-4223-A88E-AE8E101FDBE8";
paths = (
{
closed = 1;
nodes = (
"402 0 LINE",
"594 591 LINE",
"787 0 LINE",
"846 0 LINE",
"1069 685 LINE",
"1009 685 LINE",
"821 100 LINE",
"818 72 LINE",
"812 100 LINE",
"624 685 LINE",
"565 685 LINE",
"377 100 LINE",
"372 79 LINE",
"368 100 LINE",
"197 631 LINE SMOOTH",
"186 668 OFFCURVE",
"151 694 OFFCURVE",
"111 694 CURVE SMOOTH",
"74 694 OFFCURVE",
"35 671 OFFCURVE",
"23 628 CURVE",
"78 612 LINE",
"84 629 OFFCURVE",
"97 637 OFFCURVE",
"110 637 CURVE SMOOTH",
"123 637 OFFCURVE",
"136 629 OFFCURVE",
"142 613 CURVE SMOOTH",
"343 0 LINE"
);
}
);
width = 1100;
},
{
anchors = (
{
name = bottom;
position = "{552, 0}";
},
{
name = top;
position = "{590, 675}";
}
);
layerId = "0CAF3BED-C4AC-4024-B3E1-4C69D1EF7EC0";
paths = (
{
closed = 1;
nodes = (
"412 -1 LINE",
"589 547 LINE",
"768 -1 LINE",
"842 -1 LINE",
"1066 687 LINE",
"984 687 LINE",
"810 126 LINE",
"805 84 LINE",
"798 126 LINE",
"627 687 LINE",
"553 687 LINE",
"379 126 LINE",
"374 87 LINE",
"370 126 LINE",
"215 627 LINE SMOOTH",
"201 672 OFFCURVE",
"164 696 OFFCURVE",
"121 696 CURVE SMOOTH",
"79 696 OFFCURVE",
"30 665 OFFCURVE",
"22 612 CURVE",
"94 592 LINE",
"98 613 OFFCURVE",
"109 619 OFFCURVE",
"120 619 CURVE SMOOTH",
"129 619 OFFCURVE",
"136 613 OFFCURVE",
"140 602 CURVE SMOOTH",
"338 -1 LINE"
);
}
);
width = 1094;
},
{
anchors = (
{
name = bottom;
position = "{562, 0}";
},
{
name = top;
position = "{603, 692}";
}
);
layerId = "49C16FD3-6177-408B-A733-AEB3898BB77C";
paths = (
{
closed = 1;
nodes = (
"401 1 LINE",
"602 620 LINE",
"804 1 LINE",
"854 1 LINE",
"1076 686 LINE",
"1030 686 LINE",
"840 94 LINE",
"829 38 LINE",
"817 94 LINE",
"627 686 LINE",
"577 686 LINE",
"387 94 LINE",
"375 41 LINE",
"364 94 LINE",
"190 635 LINE SMOOTH",
"179 671 OFFCURVE",
"147 695 OFFCURVE",
"109 695 CURVE SMOOTH",
"75 695 OFFCURVE",
"42 676 OFFCURVE",
"28 639 CURVE",
"71 627 LINE",
"79 643 OFFCURVE",
"94 653 OFFCURVE",
"108 653 CURVE SMOOTH",
"123 653 OFFCURVE",
"139 645 OFFCURVE",
"147 622 CURVE SMOOTH",
"351 1 LINE"
);
}
);
width = 1112;
}
);
leftKerningGroup = V;
rightKerningGroup = V;
unicode = 0057;
userData = {
position = 665;
width = 20;
};
},
{
glyphname = W.ss01;
lastChange = "2019-10-11 08:41:29 +0000";
layers = (
{
anchors = (
{
name = bottom;
position = "{509, 0}";
},
{
name = top;
position = "{514, 684}";
}
);
layerId = "873CAA12-270D-4223-A88E-AE8E101FDBE8";
paths = (
{
closed = 1;
nodes = (
"321 0 LINE",
"513 591 LINE",
"706 0 LINE",
"765 0 LINE",
"988 685 LINE",
"928 685 LINE",
"743 100 LINE",
"737 72 LINE",
"731 100 LINE",
"543 685 LINE",
"484 685 LINE",
"296 100 LINE",
"291 79 LINE",
"287 100 LINE",
"116 631 LINE SMOOTH",
"110 650 OFFCURVE",
"99 666 OFFCURVE",
"83 677 CURVE SMOOTH",
"70 686 OFFCURVE",
"50 694 OFFCURVE",
"29 694 CURVE",
"29 637 LINE",
"46 636 OFFCURVE",
"56 628 OFFCURVE",
"61 613 CURVE SMOOTH",
"262 0 LINE"
);
}
);
width = 1019;
},
{
anchors = (
{
name = bottom;
position = "{508, 0}";
},
{
name = top;
position = "{512, 675}";
}
);
layerId = "0CAF3BED-C4AC-4024-B3E1-4C69D1EF7EC0";
paths = (
{
closed = 1;
nodes = (
"333 -1 LINE",
"511 547 LINE",
"689 -1 LINE",
"763 -1 LINE",
"987 687 LINE",
"905 687 LINE",
"733 144 LINE",
"727 100 LINE",
"720 144 LINE",
"548 687 LINE",
"474 687 LINE",
"303 144 LINE",
"296 100 LINE",
"290 144 LINE",
"137 627 LINE SMOOTH",
"131 647 OFFCURVE",
"117 666 OFFCURVE",
"100 677 CURVE SMOOTH",
"84 687 OFFCURVE",
"51 696 OFFCURVE",
"29 692 CURVE",
"29 616 LINE",
"46 616 OFFCURVE",
"56 615 OFFCURVE",
"63 594 CURVE SMOOTH",
"259 -1 LINE"
);
}
);
width = 1015;
},
{
anchors = (
{
name = bottom;
position = "{515, 0}";
},
{
name = top;
position = "{520, 692}";
}
);
layerId = "49C16FD3-6177-408B-A733-AEB3898BB77C";
paths = (
{
closed = 1;
nodes = (
"318 1 LINE",
"519 620 LINE",
"721 1 LINE",
"771 1 LINE",
"994 686 LINE",
"948 686 LINE",
"758 94 LINE",
"746 41 LINE",
"735 94 LINE",
"545 686 LINE",
"495 686 LINE",
"305 94 LINE",
"293 41 LINE",
"282 95 LINE",
"108 635 LINE SMOOTH",
"102 654 OFFCURVE",
"92 668 OFFCURVE",
"77 679 CURVE SMOOTH",
"66 686 OFFCURVE",
"50 693 OFFCURVE",
"33 694 CURVE",
"33 649 LINE",
"49 647 OFFCURVE",
"60 637 OFFCURVE",
"65 621 CURVE SMOOTH",
"268 1 LINE"
);
}
);
width = 1030;
}
);
leftKerningGroup = V;
rightKerningGroup = V;
userData = {
position = 665;
width = 20;
};
},
{
glyphname = W.swsh;
lastChange = "2019-10-09 15:01:18 +0000";
layers = (
{
anchors = (
{
name = bottom;
position = "{570, 0}";
},
{
name = top;
position = "{610, 684}";
}
);
components = (
{
name = _top_swash.part;
transform = "{0.95254, 0.30441, -0.30441, 0.95254, 173, -15}";
}
);
layerId = "873CAA12-270D-4223-A88E-AE8E101FDBE8";
paths = (
{
closed = 1;
nodes = (
"417 0 LINE",
"609 591 LINE",
"802 0 LINE",
"861 0 LINE",
"1084 685 LINE",
"1024 685 LINE",
"836 100 LINE",
"833 72 LINE",
"827 100 LINE",
"639 685 LINE",
"580 685 LINE",
"392 100 LINE",
"387 79 LINE",
"383 100 LINE",
"212 631 LINE",
"191 500 LINE",
"358 0 LINE"
);
}
);
width = 1121;
},
{
anchors = (
{
name = bottom;
position = "{567, 0}";
},
{
name = top;
position = "{605, 675}";
}
);
components = (
{
name = _top_swash.part;
transform = "{0.95254, 0.30441, -0.30441, 0.95254, 168, -23}";
}
);
layerId = "0CAF3BED-C4AC-4024-B3E1-4C69D1EF7EC0";
paths = (
{
closed = 1;
nodes = (
"427 -1 LINE",
"604 547 LINE",
"783 -1 LINE",
"857 -1 LINE",
"1081 687 LINE",
"999 687 LINE",
"825 126 LINE",
"820 84 LINE",
"813 126 LINE",
"642 687 LINE",
"568 687 LINE",
"394 126 LINE",
"389 87 LINE",
"385 126 LINE",
"258 544 LINE",
"185 500 LINE",
"353 -1 LINE"
);
}
);
width = 1115;
},
{
anchors = (
{
name = bottom;
position = "{562, 0}";
},
{
name = top;
position = "{603, 692}";
}
);
components = (
{
name = _top_swash.part;
transform = "{0.95254, 0.30441, -0.30441, 0.95254, 192, -1}";
}
);
layerId = "49C16FD3-6177-408B-A733-AEB3898BB77C";
paths = (
{
closed = 1;
nodes = (
"401 1 LINE",
"602 620 LINE",
"804 1 LINE",
"854 1 LINE",
"1076 686 LINE",
"1030 686 LINE",
"840 94 LINE",
"829 38 LINE",
"817 94 LINE",
"627 686 LINE",
"577 686 LINE",
"387 94 LINE",
"375 41 LINE",
"364 94 LINE",
"190 635 LINE",
"174 547 LINE",
"351 1 LINE"
);
}
);
width = 1110;
}
);
leftKerningGroup = V;
rightKerningGroup = V;
userData = {
position = 665;
width = 20;
};
},
{
glyphname = X;
lastChange = "2019-10-11 09:21:27 +0000";
layers = (
{
anchors = (
{
name = bottom;
position = "{287, 0}";
},
{
name = top;
position = "{287, 684}";
}
);
layerId = "873CAA12-270D-4223-A88E-AE8E101FDBE8";
paths = (
{
closed = 1;
nodes = (
"244 361 LINE",
"35 0 LINE",
"106 0 LINE",
"282 309 LINE",
"417 65 LINE SMOOTH",
"442 20 OFFCURVE",
"464 -7 OFFCURVE",
"508 -7 CURVE SMOOTH",
"537.922 -7 OFFCURVE",
"566.679 5.047 OFFCURVE",
"584.822 27.687 CURVE",
"536.361 61.694 LINE",
"530.497 55.091 OFFCURVE",
"522.271 51 OFFCURVE",
"512 51 CURVE SMOOTH",
"500 51 OFFCURVE",
"490 57 OFFCURVE",
"486 65 CURVE SMOOTH",
"321 354 LINE",
"536 684 LINE",
"465 684 LINE",
"284 405 LINE",
"102 684 LINE",
"33 684 LINE"
);
}
);
width = 609;
},
{
anchors = (
{
name = bottom;
position = "{298, 0}";
},
{
name = top;
position = "{298, 684}";
}
);
layerId = "0CAF3BED-C4AC-4024-B3E1-4C69D1EF7EC0";
paths = (
{
closed = 1;
nodes = (
"243 361 LINE",
"33 -1 LINE",
"129 -1 LINE",
"292 285 LINE",
"414 68 LINE SMOOTH",
"439 23 OFFCURVE",
"469 -7 OFFCURVE",
"517 -7 CURVE SMOOTH",
"556 -7 OFFCURVE",
"585 8 OFFCURVE",
"606 36 CURVE",
"540 82 LINE",
"536 76 OFFCURVE",
"530 72 OFFCURVE",
"524 72 CURVE SMOOTH",
"513 72 OFFCURVE",
"504 75 OFFCURVE",
"493 93 CURVE SMOOTH",
"344 351 LINE",
"561 686 LINE",
"464 686 LINE",
"295 426 LINE",
"125 686 LINE",
"31 686 LINE"
);
}
);
width = 628;
},
{
anchors = (
{
name = bottom;
position = "{284, 0}";
},
{
name = top;
position = "{284, 684}";
}
);
layerId = "49C16FD3-6177-408B-A733-AEB3898BB77C";
paths = (
{
closed = 1;
nodes = (
"251 362 LINE",
"42 1 LINE",
"95 1 LINE",
"278 321 LINE",
"423 64 LINE SMOOTH",
"449 18 OFFCURVE",
"468 -7 OFFCURVE",
"510 -7 CURVE SMOOTH",
"535 -7 OFFCURVE",
"558.374 2.276 OFFCURVE",
"575.264 18.288 CURVE",
"535.995 45.845 LINE",
"529.768 41.593 OFFCURVE",
"522 38 OFFCURVE",
"514 38 CURVE SMOOTH",
"499 38 OFFCURVE",
"486 47 OFFCURVE",
"481 56 CURVE SMOOTH",
"306 353 LINE",
"522 685 LINE",
"469 685 LINE",
"281 393 LINE",
"91 685 LINE",
"38 685 LINE"
);
}
);
width = 602;
},
{
anchors = (
{
name = bottom;
position = "{284, 0}";
},
{
name = top;
position = "{284, 684}";
}
);
associatedMasterId = "49C16FD3-6177-408B-A733-AEB3898BB77C";
layerId = "C396F3EE-AB0F-4C10-A1DC-81F9C8939901";
name = "Oct 11 19, 11:02";
paths = (
{
closed = 1;
nodes = (
"554 -6 OFFCURVE",
"594 20 OFFCURVE",
"600 69 CURVE",
"554 71 LINE",
"549 54 OFFCURVE",
"534 39 OFFCURVE",
"514 39 CURVE SMOOTH",
"499 39 OFFCURVE",
"486 47 OFFCURVE",
"481 56 CURVE SMOOTH",
"306 353 LINE",
"522 685 LINE",
"469 685 LINE",
"281 393 LINE",
"91 685 LINE",
"38 685 LINE",
"251 362 LINE",
"42 1 LINE",
"95 1 LINE",
"278 321 LINE",
"423 64 LINE SMOOTH",
"449 18 OFFCURVE",
"468 -6 OFFCURVE",
"510 -6 CURVE SMOOTH"
);
}
);
width = 630;
}
);
leftKerningGroup = X;
rightKerningGroup = K;
unicode = 0058;
userData = {
position = 566;
width = 58;
};
},
{
glyphname = X.ss01;
lastChange = "2019-10-11 09:20:42 +0000";
layers = (
{
anchors = (
{
name = bottom;
position = "{289, 0}";
},
{
name = top;
position = "{289, 684}";
}
);
layerId = "873CAA12-270D-4223-A88E-AE8E101FDBE8";
paths = (
{
closed = 1;
nodes = (
"547 -6 OFFCURVE",
"563 4 OFFCURVE",
"570 7 CURVE",
"548 57 LINE",
"542 54 OFFCURVE",
"536 51 OFFCURVE",
"526 51 CURVE SMOOTH",
"517 51 OFFCURVE",
"509.997 59.005 OFFCURVE",
"506 65 CURVE SMOOTH",
"322 353 LINE",
"536 684 LINE",
"465 684 LINE",
"284 405 LINE",
"102 684 LINE",
"33 684 LINE",
"244 361 LINE",
"35 0 LINE",
"106 0 LINE",
"283 308 LINE",
"437 65 LINE SMOOTH",
"464 22 OFFCURVE",
"481 -6 OFFCURVE",
"524 -6 CURVE SMOOTH"
);
}
);
width = 597;
},
{
anchors = (
{
name = bottom;
position = "{291, 0}";
},
{
name = top;
position = "{296, 684}";
}
);
layerId = "0CAF3BED-C4AC-4024-B3E1-4C69D1EF7EC0";
paths = (
{
closed = 1;
nodes = (
"554 -4 OFFCURVE",
"579 2 OFFCURVE",
"593 11 CURVE",
"568 75 LINE",
"561 71 OFFCURVE",
"551 69 OFFCURVE",
"542 69 CURVE SMOOTH",
"534 69 OFFCURVE",
"521 74 OFFCURVE",
"511 90 CURVE SMOOTH",
"345 352 LINE",
"560 686 LINE",
"463 686 LINE",
"294 426 LINE",
"124 686 LINE",
"30 686 LINE",
"242 361 LINE",
"32 -1 LINE",
"128 -1 LINE",
"293 286 LINE",
"433 68 LINE SMOOTH",
"467 15 OFFCURVE",
"494 -4 OFFCURVE",
"540 -4 CURVE SMOOTH"
);
}
);
width = 619;
},
{
anchors = (
{
name = bottom;
position = "{282, -2}";
},
{
name = top;
position = "{281, 684}";
}
);
layerId = "49C16FD3-6177-408B-A733-AEB3898BB77C";
paths = (
{
closed = 1;
nodes = (
"542 -6 OFFCURVE",
"553 -5 OFFCURVE",
"562 -1 CURVE",
"548 38 LINE",
"542 37 OFFCURVE",
"537 36 OFFCURVE",
"531 36 CURVE SMOOTH",
"518 36 OFFCURVE",
"508 46 OFFCURVE",
"501 56 CURVE",
"309 357 LINE",
"522 685 LINE",
"469 685 LINE",
"281 393 LINE",
"91 685 LINE",
"38 685 LINE",
"251 362 LINE",
"42 1 LINE",
"95 1 LINE",
"281 325 LINE",
"443 64 LINE SMOOTH",
"472 17 OFFCURVE",
"489 -6 OFFCURVE",
"531 -6 CURVE SMOOTH"
);
}
);
width = 592;
}
);
leftKerningGroup = X;
rightKerningGroup = K;
userData = {
position = 566;
width = 58;
};
},
{
color = 0;
glyphname = X.swsh;
lastChange = "2019-10-11 08:41:30 +0000";
layers = (
{
anchors = (
{
name = bottom;
position = "{340, 0}";
},
{
name = top;
position = "{337, 684}";
}
);
layerId = "873CAA12-270D-4223-A88E-AE8E101FDBE8";
paths = (
{
closed = 1;
nodes = (
"159 0 LINE",
"340 316 LINE",
"460 65 LINE SMOOTH",
"482 19 OFFCURVE",
"507 -7 OFFCURVE",
"551 -7 CURVE SMOOTH",
"599 -7 OFFCURVE",
"644 24 OFFCURVE",
"647 80 CURVE",
"589 83 LINE",
"586 65 OFFCURVE",
"574 51 OFFCURVE",
"555 51 CURVE SMOOTH",
"543 51 OFFCURVE",
"533 57 OFFCURVE",
"529 65 CURVE SMOOTH",
"379 361 LINE",
"589 684 LINE",
"518 684 LINE",
"337 405 LINE",
"198 648 LINE SMOOTH",
"178 683 OFFCURVE",
"147 694 OFFCURVE",
"120 694 CURVE SMOOTH",
"77 694 OFFCURVE",
"31 665 OFFCURVE",
"26 611 CURVE",
"85 605 LINE",
"86 624 OFFCURVE",
"101 635 OFFCURVE",
"117 635 CURVE SMOOTH",
"127 635 OFFCURVE",
"137 631 OFFCURVE",
"145 621 CURVE",
"297 361 LINE",
"88 0 LINE"
);
}
);
width = 674;
},
{
anchors = (
{
name = bottom;
position = "{340, 0}";
},
{
name = top;
position = "{338, 687}";
}
);
layerId = "0CAF3BED-C4AC-4024-B3E1-4C69D1EF7EC0";
paths = (
{
closed = 1;
nodes = (
"173 -1 LINE",
"340 290 LINE",
"448 68 LINE SMOOTH",
"470 23 OFFCURVE",
"498 -7 OFFCURVE",
"546 -7 CURVE SMOOTH",
"600 -7 OFFCURVE",
"654 33 OFFCURVE",
"651 100 CURVE",
"572 104 LINE",
"574 87 OFFCURVE",
"564 72 OFFCURVE",
"550 72 CURVE SMOOTH",
"542 72 OFFCURVE",
"538 75 OFFCURVE",
"535 80 CURVE SMOOTH",
"392 356 LINE",
"605 686 LINE",
"508 686 LINE",
"339 426 LINE",
"217 643 LINE SMOOTH",
"194 681 OFFCURVE",
"159 696 OFFCURVE",
"130 696 CURVE SMOOTH",
"82 696 OFFCURVE",
"26 659 OFFCURVE",
"27 593 CURVE",
"101 585 LINE",
"101 604 OFFCURVE",
"111 615 OFFCURVE",
"127 615 CURVE SMOOTH",
"143 615 OFFCURVE",
"148 600 OFFCURVE",
"154 590 CURVE",
"287 361 LINE",
"77 -1 LINE"
);
}
);
width = 677;
},
{
anchors = (
{
name = bottom;
position = "{330, 8}";
},
{
name = top;
position = "{330, 684}";
}
);
layerId = "49C16FD3-6177-408B-A733-AEB3898BB77C";
paths = (
{
closed = 1;
nodes = (
"141 1 LINE",
"330 327 LINE",
"459 64 LINE SMOOTH",
"482 17 OFFCURVE",
"504 -6 OFFCURVE",
"546 -6 CURVE SMOOTH",
"590 -6 OFFCURVE",
"630 20 OFFCURVE",
"636 69 CURVE",
"590 71 LINE",
"585 54 OFFCURVE",
"570 39 OFFCURVE",
"550 39 CURVE SMOOTH",
"525 39 OFFCURVE",
"518 48 OFFCURVE",
"498 87 CURVE",
"358 362 LINE",
"568 685 LINE",
"513 685 LINE",
"327 395 LINE",
"208 618 LINE SMOOTH",
"183 665 OFFCURVE",
"163 689 OFFCURVE",
"121 689 CURVE SMOOTH",
"77 689 OFFCURVE",
"37 663 OFFCURVE",
"31 614 CURVE",
"77 612 LINE",
"79 631 OFFCURVE",
"97 644 OFFCURVE",
"117 644 CURVE SMOOTH",
"137 644 OFFCURVE",
"145 635 OFFCURVE",
"160 612 CURVE",
"297 362 LINE",
"88 1 LINE"
);
}
);
width = 666;
}
);
leftKerningGroup = X;
rightKerningGroup = K;
userData = {
position = 566;
width = 58;
};
},
{
glyphname = Y;
lastChange = "2019-10-11 08:41:29 +0000";
layers = (
{
anchors = (
{
name = bottom;
position = "{349, 1}";
},
{
name = top;
position = "{348, 684}";
},
{
name = topleft;
position = "{24, 684}";
}
);
layerId = "873CAA12-270D-4223-A88E-AE8E101FDBE8";
paths = (
{
closed = 1;
nodes = (
"385 0 LINE",
"383 299 LINE",
"599 685 LINE",
"529 685 LINE",
"352 364 LINE",
"197 646 LINE SMOOTH",
"178 681 OFFCURVE",
"146 694 OFFCURVE",
"119 694 CURVE SMOOTH",
"76 694 OFFCURVE",
"30 665 OFFCURVE",
"25 611 CURVE",
"84 605 LINE",
"85 624 OFFCURVE",
"100 635 OFFCURVE",
"116 635 CURVE SMOOTH",
"127 635 OFFCURVE",
"138 630 OFFCURVE",
"146 618 CURVE",
"322 297 LINE",
"322 0 LINE"
);
}
);
width = 623;
},
{
anchors = (
{
name = bottom;
position = "{350, 12}";
},
{
name = top;
position = "{349, 675}";
},
{
name = topleft;
position = "{22, 684}";
}
);
layerId = "0CAF3BED-C4AC-4024-B3E1-4C69D1EF7EC0";
paths = (
{
closed = 1;
nodes = (
"396 -1 LINE",
"395 298 LINE",
"612 687 LINE",
"518 687 LINE",
"353 385 LINE",
"214 643 LINE",
"191 681 OFFCURVE",
"156 696 OFFCURVE",
"127 696 CURVE SMOOTH",
"79 696 OFFCURVE",
"23 659 OFFCURVE",
"24 593 CURVE",
"101 590 LINE",
"101 605 OFFCURVE",
"111 615 OFFCURVE",
"121 615 CURVE SMOOTH",
"132 615 OFFCURVE",
"138 613 OFFCURVE",
"145 601 CURVE",
"312 296 LINE",
"315 -1 LINE"
);
}
);
width = 633;
},
{
anchors = (
{
name = bottom;
position = "{351, 0}";
},
{
name = top;
position = "{350, 684}";
},
{
name = topleft;
position = "{48, 684}";
}
);
layerId = "49C16FD3-6177-408B-A733-AEB3898BB77C";
paths = (
{
closed = 1;
nodes = (
"376 1 LINE",
"374 302 LINE",
"590 686 LINE",
"541 686 LINE",
"354 348 LINE",
"186 651 LINE SMOOTH",
"167 685 OFFCURVE",
"140 695 OFFCURVE",
"115 695 CURVE SMOOTH",
"76 695 OFFCURVE",
"38 673 OFFCURVE",
"29 629 CURVE",
"70 625 LINE",
"76 642 OFFCURVE",
"94 655 OFFCURVE",
"112 655 CURVE SMOOTH",
"124 655 OFFCURVE",
"141 647 OFFCURVE",
"151 633 CURVE",
"333 300 LINE",
"333 1 LINE"
);
}
);
width = 618;
}
);
leftKerningGroup = Y;
rightKerningGroup = Y;
unicode = 0059;
userData = {
position = 308;
width = 66;
};
},
{
glyphname = Y.ss01;
lastChange = "2019-10-11 08:41:28 +0000";
layers = (
{
anchors = (
{
name = bottom;
position = "{271, 0}";
},
{
name = top;
position = "{270, 684}";
},
{
name = topleft;
position = "{22, 684}";
}
);
layerId = "873CAA12-270D-4223-A88E-AE8E101FDBE8";
paths = (
{
closed = 1;
nodes = (
"298 0 LINE",
"296 299 LINE",
"513 685 LINE",
"445 685 LINE",
"266 362 LINE",
"110 646 LINE SMOOTH",
"92 679 OFFCURVE",
"66 694 OFFCURVE",
"26 694 CURVE",
"26 637 LINE",
"44 637 OFFCURVE",
"54 631 OFFCURVE",
"60 620 CURVE SMOOTH",
"237 297 LINE",
"237 0 LINE"
);
}
);
width = 537;
},
{
anchors = (
{
name = bottom;
position = "{266, 0}";
},
{
name = top;
position = "{265, 684}";
},
{
name = topleft;
position = "{19, 684}";
}
);
layerId = "0CAF3BED-C4AC-4024-B3E1-4C69D1EF7EC0";
paths = (
{
closed = 1;
nodes = (
"312 -1 LINE",
"310 298 LINE",
"528 687 LINE",
"434 687 LINE",
"269 385 LINE",
"130 643 LINE SMOOTH",
"109 681 OFFCURVE",
"72 699 OFFCURVE",
"25 695 CURVE",
"25 617 LINE",
"47 618 OFFCURVE",
"53 617 OFFCURVE",
"59 606 CURVE",
"230 296 LINE",
"230 -1 LINE"
);
}
);
width = 549;
},
{
anchors = (
{
name = bottom;
position = "{262, 0}";
},
{
name = top;
position = "{270, 684}";
},
{
name = topleft;
position = "{44, 684}";
}
);
layerId = "49C16FD3-6177-408B-A733-AEB3898BB77C";
paths = (
{
closed = 1;
nodes = (
"287 1 LINE",
"287 302 LINE",
"504 686 LINE",
"452 686 LINE",
"265 345 LINE",
"100 650 LINE SMOOTH",
"85 678 OFFCURVE",
"60 692 OFFCURVE",
"29 695 CURVE",
"29 652 LINE",
"43 651 OFFCURVE",
"54 644 OFFCURVE",
"61 631 CURVE SMOOTH",
"246 300 LINE",
"246 1 LINE"
);
}
);
width = 532;
}
);
leftKerningGroup = Y;
rightKerningGroup = Y;
userData = {
position = 308;
width = 66;
};
},
{
glyphname = Y.swsh;
lastChange = "2019-10-09 17:37:34 +0000";
layers = (
{
anchors = (
{
name = bottom;
position = "{360, 1}";
},
{
name = top;
position = "{359, 684}";
},
{
name = topleft;
position = "{35, 684}";
}
);
components = (
{
name = _top_swash.part;
transform = "{0.87696, 0.48057, -0.48057, 0.87696, 292, 7}";
}
);
layerId = "873CAA12-270D-4223-A88E-AE8E101FDBE8";
paths = (
{
closed = 1;
nodes = (
"396 0 LINE",
"394 299 LINE",
"610 685 LINE",
"540 685 LINE",
"363 364 LINE",
"210 642 LINE",
"167 599 LINE",
"333 297 LINE",
"333 0 LINE"
);
}
);
width = 641;
},
{
anchors = (
{
name = bottom;
position = "{360, 12}";
},
{
name = top;
position = "{359, 675}";
},
{
name = topleft;
position = "{32, 684}";
}
);
components = (
{
name = _top_swash.part;
transform = "{0.88521, 0.46519, -0.46519, 0.88521, 275, -5}";
}
);
layerId = "0CAF3BED-C4AC-4024-B3E1-4C69D1EF7EC0";
paths = (
{
closed = 1;
nodes = (
"406 -1 LINE",
"405 298 LINE",
"622 687 LINE",
"528 687 LINE",
"363 385 LINE",
"224 643 LINE",
"155 601 LINE",
"322 296 LINE",
"325 -1 LINE"
);
}
);
width = 651;
},
{
anchors = (
{
name = bottom;
position = "{350, 0}";
},
{
name = top;
position = "{349, 684}";
},
{
name = topleft;
position = "{47, 684}";
}
);
components = (
{
name = _top_swash.part;
transform = "{0.87696, 0.48057, -0.48057, 0.87696, 308, 30}";
}
);
layerId = "49C16FD3-6177-408B-A733-AEB3898BB77C";
paths = (
{
closed = 1;
nodes = (
"375 1 LINE",
"373 302 LINE",
"589 686 LINE",
"540 686 LINE",
"353 348 LINE",
"187 648 LINE",
"155 619 LINE",
"332 300 LINE",
"332 1 LINE"
);
}
);
width = 618;
}
);
leftKerningGroup = Y;
rightKerningGroup = Y;
userData = {
position = 308;
width = 66;
};
},
{
glyphname = Z;
lastChange = "2019-10-11 08:41:32 +0000";
layers = (
{
anchors = (
{
name = bottom;
position = "{275, 0}";
},
{
name = center;
position = "{275, 342}";
},
{
name = top;
position = "{273, 684}";
}
);
layerId = "873CAA12-270D-4223-A88E-AE8E101FDBE8";
paths = (
{
closed = 1;
nodes = (
"109 46 LINE",
"207 28 OFFCURVE",
"278 -14 OFFCURVE",
"366 -14 CURVE SMOOTH",
"423 -14 OFFCURVE",
"470 4 OFFCURVE",
"523 54 CURVE",
"485 91 LINE",
"451 59 OFFCURVE",
"413 39 OFFCURVE",
"366 39 CURVE SMOOTH",
"307 39 OFFCURVE",
"234 71 OFFCURVE",
"170 84 CURVE SMOOTH",
"136 90 LINE",
"489 684 LINE",
"83 684 LINE",
"83 628 LINE",
"396 628 LINE",
"28 12 LINE",
"73 -15 LINE"
);
}
);
width = 550;
},
{
anchors = (
{
name = bottom;
position = "{283, 0}";
},
{
name = center;
position = "{283, 342}";
},
{
name = top;
position = "{281, 682}";
}
);
layerId = "0CAF3BED-C4AC-4024-B3E1-4C69D1EF7EC0";
paths = (
{
closed = 1;
nodes = (
"127 43 LINE",
"216 25 OFFCURVE",
"284 -14 OFFCURVE",
"370 -14 CURVE SMOOTH",
"431 -14 OFFCURVE",
"483 7 OFFCURVE",
"539 63 CURVE",
"485 116 LINE",
"451 81 OFFCURVE",
"416 61 OFFCURVE",
"370 61 CURVE SMOOTH",
"315 61 OFFCURVE",
"246 91 OFFCURVE",
"182 104 CURVE SMOOTH",
"166 107 LINE",
"510 684 LINE",
"84 684 LINE",
"84 608 LINE",
"379 608 LINE",
"26 19 LINE",
"90 -19 LINE"
);
}
);
width = 565;
},
{
anchors = (
{
name = bottom;
position = "{274, 0}";
},
{
name = center;
position = "{274, 342}";
},
{
name = top;
position = "{274, 684}";
}
);
layerId = "49C16FD3-6177-408B-A733-AEB3898BB77C";
paths = (
{
closed = 1;
nodes = (
"102 49 LINE",
"205 31 OFFCURVE",
"278 -13 OFFCURVE",
"367 -13 CURVE SMOOTH",
"422 -13 OFFCURVE",
"466 3 OFFCURVE",
"517 49 CURVE",
"489 77 LINE",
"454 46 OFFCURVE",
"415 27 OFFCURVE",
"367 27 CURVE SMOOTH",
"306 27 OFFCURVE",
"230 60 OFFCURVE",
"166 73 CURVE SMOOTH",
"121 81 LINE",
"480 684 LINE",
"86 684 LINE",
"86 644 LINE",
"410 644 LINE",
"32 9 LINE",
"66 -11 LINE"
);
}
);
width = 549;
}
);
leftKerningGroup = S;
rightKerningGroup = S;
unicode = 005A;
userData = {
position = 628;
width = 53;
};
},
{
glyphname = Z.ss01;
lastChange = "2019-10-11 08:41:27 +0000";
layers = (
{
anchors = (
{
name = bottom;
position = "{270, 0}";
},
{
name = center;
position = "{269, 342}";
},
{
name = top;
position = "{270, 684}";
}
);
layerId = "873CAA12-270D-4223-A88E-AE8E101FDBE8";
paths = (
{
closed = 1;
nodes = (
"505 0 LINE",
"505 56 LINE",
"126 56 LINE",
"485 671 LINE",
"485 684 LINE",
"54 684 LINE",
"54 628 LINE",
"393 628 LINE",
"34 13 LINE",
"34 0 LINE"
);
}
);
width = 539;
},
{
anchors = (
{
name = bottom;
position = "{276, 0}";
},
{
name = center;
position = "{276, 342}";
},
{
name = top;
position = "{277, 684}";
}
);
layerId = "0CAF3BED-C4AC-4024-B3E1-4C69D1EF7EC0";
paths = (
{
closed = 1;
nodes = (
"516 -1 LINE",
"516 75 LINE",
"155 75 LINE",
"496 659 LINE",
"496 684 LINE",
"55 684 LINE",
"55 608 LINE",
"377 608 LINE",
"36 27 LINE",
"36 -1 LINE"
);
}
);
width = 551;
},
{
anchors = (
{
name = bottom;
position = "{270, 0}";
},
{
name = center;
position = "{269, 342}";
},
{
name = top;
position = "{270, 684}";
}
);
layerId = "49C16FD3-6177-408B-A733-AEB3898BB77C";
paths = (
{
closed = 1;
nodes = (
"503 1 LINE",
"503 43 LINE",
"111 43 LINE",
"482 680 LINE",
"482 685 LINE",
"57 685 LINE",
"57 643 LINE",
"408 643 LINE",
"37 5 LINE",
"37 1 LINE"
);
}
);
width = 539;
}
);
leftKerningGroup = S;
rightKerningGroup = S;
userData = {
position = 627;
width = 57;
};
},
